ISO-10303-21;
HEADER;
FILE_DESCRIPTION (( 'STEP AP214' ),
    '1' );
FILE_NAME ('30_deg_ramp.STEP',
    '2024-04-26T22:30:12',
    ( '' ),
    ( '' ),
    'SwSTEP 2.0',
    'SolidWorks 2022',
    '' );
FILE_SCHEMA (( 'AUTOMOTIVE_DESIGN' ));
ENDSEC;

DATA;
#1 = CARTESIAN_POINT ( 'NONE',  ( 0.000000000000000000, 0.000000000000000000, 0.000000000000000000 ) ) ;
#2 = ADVANCED_FACE ( 'NONE', ( #79 ), #133, .T. ) ;
#3 = PLANE ( 'NONE',  #6 ) ;
#4 = DIRECTION ( 'NONE',  ( -0.000000000000000000, -0.000000000000000000, -1.000000000000000000 ) ) ;
#5 = SURFACE_SIDE_STYLE ('',( #110 ) ) ;
#6 = AXIS2_PLACEMENT_3D ( 'NONE', #138, #39, #62 ) ;
#7 = EDGE_CURVE ( 'NONE', #51, #108, #66, .T. ) ;
#8 = ORIENTED_EDGE ( 'NONE', *, *, #7, .F. ) ;
#9 = EDGE_LOOP ( 'NONE', ( #47, #165, #131, #145 ) ) ;
#10 = CARTESIAN_POINT ( 'NONE',  ( 0.000000000000000000, 0.000000000000000000, 40.00000000000002132 ) ) ;
#11 = EDGE_LOOP ( 'NONE', ( #146, #8, #117, #98 ) ) ;
#12 = VECTOR ( 'NONE', #157, 1000.000000000000114 ) ;
#13 = PRODUCT_DEFINITION_SHAPE ( 'NONE', 'NONE',  #72 ) ;
#14 = CARTESIAN_POINT ( 'NONE',  ( 50.00000000000000000, 0.000000000000000000, 40.00000000000002132 ) ) ;
#15 = MECHANICAL_DESIGN_GEOMETRIC_PRESENTATION_REPRESENTATION (  '', ( #37 ), #67 ) ;
#16 = EDGE_CURVE ( 'NONE', #99, #143, #83, .T. ) ;
#17 = UNCERTAINTY_MEASURE_WITH_UNIT (LENGTH_MEASURE( 1.000000000000000082E-05 ), #26, 'distance_accuracy_value', 'NONE');
#18 = COLOUR_RGB ( '',0.7921568627450980005, 0.8196078431372548767, 0.9333333333333333481 ) ;
#19 = DIRECTION ( 'NONE',  ( 0.000000000000000000, -0.000000000000000000, 1.000000000000000000 ) ) ;
#20 = PLANE ( 'NONE',  #164 ) ;
#21 = ORIENTED_EDGE ( 'NONE', *, *, #16, .F. ) ;
#22 = CARTESIAN_POINT ( 'NONE',  ( 0.000000000000000000, 0.000000000000000000, 0.000000000000000000 ) ) ;
#23 = SURFACE_STYLE_USAGE ( .BOTH. , #5 ) ;
#24 = DIRECTION ( 'NONE',  ( -0.000000000000000000, -0.000000000000000000, -1.000000000000000000 ) ) ;
#25 = DIRECTION ( 'NONE',  ( 1.000000000000000000, 0.000000000000000000, 0.000000000000000000 ) ) ;
#26 =( LENGTH_UNIT ( ) NAMED_UNIT ( * ) SI_UNIT ( .MILLI., .METRE. ) );
#27 = CARTESIAN_POINT ( 'NONE',  ( 0.000000000000000000, 0.000000000000000000, 0.000000000000000000 ) ) ;
#28 = VECTOR ( 'NONE', #169, 1000.000000000000000 ) ;
#29 = FACE_OUTER_BOUND ( 'NONE', #9, .T. ) ;
#30 = ADVANCED_FACE ( 'NONE', ( #88 ), #3, .T. ) ;
#31 =( GEOMETRIC_REPRESENTATION_CONTEXT ( 3 ) GLOBAL_UNCERTAINTY_ASSIGNED_CONTEXT ( ( #17 ) ) GLOBAL_UNIT_ASSIGNED_CONTEXT ( ( #26, #75, #124 ) ) REPRESENTATION_CONTEXT ( 'NONE', 'WORKASPACE' ) );
#32 = PLANE ( 'NONE',  #137 ) ;
#33 = DIRECTION ( 'NONE',  ( -1.000000000000000000, 2.403703357979446759E-16, 0.000000000000000000 ) ) ;
#34 = MANIFOLD_SOLID_BREP ( 'Boss-Extrude1', #166 ) ;
#35 = PRODUCT_DEFINITION_CONTEXT ( 'detailed design', #121, 'design' ) ;
#36 = SURFACE_STYLE_FILL_AREA ( #126 ) ;
#37 = STYLED_ITEM ( 'NONE', ( #55 ), #116 ) ;
#38 = PRODUCT ( '30_deg_ramp', '30_deg_ramp', '', ( #82 ) ) ;
#39 = DIRECTION ( 'NONE',  ( -0.000000000000000000, 0.000000000000000000, 1.000000000000000000 ) ) ;
#40 = CARTESIAN_POINT ( 'NONE',  ( 50.00000000000000000, -1.201851678989723438E-14, 0.000000000000000000 ) ) ;
#41 = APPLICATION_PROTOCOL_DEFINITION ( 'draft international standard', 'automotive_design', 1998, #121 ) ;
#42 = MECHANICAL_DESIGN_GEOMETRIC_PRESENTATION_REPRESENTATION (  '', ( #153 ), #115 ) ;
#43 = FILL_AREA_STYLE_COLOUR ( '', #18 ) ;
#44 = PLANE ( 'NONE',  #149 ) ;
#45 = UNCERTAINTY_MEASURE_WITH_UNIT (LENGTH_MEASURE( 1.000000000000000082E-05 ), #101, 'distance_accuracy_value', 'NONE');
#46 = VECTOR ( 'NONE', #102, 1000.000000000000000 ) ;
#47 = ORIENTED_EDGE ( 'NONE', *, *, #89, .T. ) ;
#48 = ORIENTED_EDGE ( 'NONE', *, *, #152, .T. ) ;
#49 = APPLICATION_PROTOCOL_DEFINITION ( 'draft international standard', 'automotive_design', 1998, #105 ) ;
#50 = EDGE_LOOP ( 'NONE', ( #68, #155, #78, #168 ) ) ;
#51 = VERTEX_POINT ( 'NONE', #14 ) ;
#52 = LINE ( 'NONE', #109, #141 ) ;
#53 = LINE ( 'NONE', #40, #46 ) ;
#54 =( LENGTH_UNIT ( ) NAMED_UNIT ( * ) SI_UNIT ( .MILLI., .METRE. ) );
#55 = PRESENTATION_STYLE_ASSIGNMENT (( #23 ) ) ;
#56 = PRESENTATION_LAYER_ASSIGNMENT (  '', '', ( #37 ) ) ;
#57 = AXIS2_PLACEMENT_3D ( 'NONE', #22, #160, #80 ) ;
#58 =( NAMED_UNIT ( * ) SI_UNIT ( $, .STERADIAN. ) SOLID_ANGLE_UNIT ( ) );
#59 = EDGE_CURVE ( 'NONE', #93, #167, #60, .T. ) ;
#60 = LINE ( 'NONE', #1, #12 ) ;
#61 = DIRECTION ( 'NONE',  ( -2.403703357979446759E-16, -1.000000000000000000, 0.000000000000000000 ) ) ;
#62 = DIRECTION ( 'NONE',  ( 1.000000000000000000, 0.000000000000000000, 0.000000000000000000 ) ) ;
#63 = DIRECTION ( 'NONE',  ( -0.000000000000000000, -0.000000000000000000, -1.000000000000000000 ) ) ;
#64 = DIRECTION ( 'NONE',  ( -0.8660254037844379305, -0.5000000000000011102, 0.000000000000000000 ) ) ;
#65 = EDGE_CURVE ( 'NONE', #93, #108, #69, .T. ) ;
#66 = LINE ( 'NONE', #148, #161 ) ;
#67 =( GEOMETRIC_REPRESENTATION_CONTEXT ( 3 ) GLOBAL_UNCERTAINTY_ASSIGNED_CONTEXT ( ( #128 ) ) GLOBAL_UNIT_ASSIGNED_CONTEXT ( ( #54, #87, #58 ) ) REPRESENTATION_CONTEXT ( 'NONE', 'WORKASPACE' ) );
#68 = ORIENTED_EDGE ( 'NONE', *, *, #59, .F. ) ;
#69 = LINE ( 'NONE', #150, #123 ) ;
#70 = DIRECTION ( 'NONE',  ( 2.403703357979446759E-16, 1.000000000000000000, 0.000000000000000000 ) ) ;
#71 = FILL_AREA_STYLE_COLOUR ( '', #86 ) ;
#72 = PRODUCT_DEFINITION ( 'UNKNOWN', '', #122, #35 ) ;
#73 = CARTESIAN_POINT ( 'NONE',  ( 0.000000000000000000, 0.000000000000000000, 40.00000000000002132 ) ) ;
#74 = LINE ( 'NONE', #129, #28 ) ;
#75 =( NAMED_UNIT ( * ) PLANE_ANGLE_UNIT ( ) SI_UNIT ( $, .RADIAN. ) );
#76 = EDGE_LOOP ( 'NONE', ( #48, #119, #21 ) ) ;
#77 = EDGE_CURVE ( 'NONE', #51, #143, #85, .T. ) ;
#78 = ORIENTED_EDGE ( 'NONE', *, *, #16, .T. ) ;
#79 = FACE_OUTER_BOUND ( 'NONE', #50, .T. ) ;
#80 = DIRECTION ( 'NONE',  ( 1.000000000000000000, 0.000000000000000000, 0.000000000000000000 ) ) ;
#81 = DIRECTION ( 'NONE',  ( -0.5000000000000012212, 0.8660254037844380415, 0.000000000000000000 ) ) ;
#82 = PRODUCT_CONTEXT ( 'NONE', #105, 'mechanical' ) ;
#83 = LINE ( 'NONE', #120, #135 ) ;
#84 = SURFACE_STYLE_USAGE ( .BOTH. , #114 ) ;
#85 = LINE ( 'NONE', #136, #112 ) ;
#86 = COLOUR_RGB ( '',0.7921568627450980005, 0.8196078431372548767, 0.9333333333333333481 ) ;
#87 =( NAMED_UNIT ( * ) PLANE_ANGLE_UNIT ( ) SI_UNIT ( $, .RADIAN. ) );
#88 = FACE_OUTER_BOUND ( 'NONE', #76, .T. ) ;
#89 = EDGE_CURVE ( 'NONE', #108, #167, #53, .T. ) ;
#90 = FACE_OUTER_BOUND ( 'NONE', #156, .T. ) ;
#91 = PRESENTATION_LAYER_ASSIGNMENT (  '', '', ( #153 ) ) ;
#92 = CARTESIAN_POINT ( 'NONE',  ( 50.00000000000000711, 28.86751345948137626, 40.00000000000002132 ) ) ;
#93 = VERTEX_POINT ( 'NONE', #27 ) ;
#94 = CARTESIAN_POINT ( 'NONE',  ( 0.000000000000000000, 0.000000000000000000, 40.00000000000002132 ) ) ;
#95 = ORIENTED_EDGE ( 'NONE', *, *, #65, .F. ) ;
#96 = DIRECTION ( 'NONE',  ( 1.000000000000000000, 0.000000000000000000, 0.000000000000000000 ) ) ;
#97 = ORIENTED_EDGE ( 'NONE', *, *, #89, .F. ) ;
#98 = ORIENTED_EDGE ( 'NONE', *, *, #125, .T. ) ;
#99 = VERTEX_POINT ( 'NONE', #127 ) ;
#100 = PRODUCT_RELATED_PRODUCT_CATEGORY ( 'part', '', ( #38 ) ) ;
#101 =( LENGTH_UNIT ( ) NAMED_UNIT ( * ) SI_UNIT ( .MILLI., .METRE. ) );
#102 = DIRECTION ( 'NONE',  ( 2.403703357979446759E-16, 1.000000000000000000, 0.000000000000000000 ) ) ;
#103 = AXIS2_PLACEMENT_3D ( 'NONE', #10, #81, #64 ) ;
#104 = DIRECTION ( 'NONE',  ( 0.000000000000000000, 1.000000000000000000, 0.000000000000000000 ) ) ;
#105 = APPLICATION_CONTEXT ( 'automotive_design' ) ;
#106 = ORIENTED_EDGE ( 'NONE', *, *, #59, .T. ) ;
#107 = VECTOR ( 'NONE', #63, 1000.000000000000000 ) ;
#108 = VERTEX_POINT ( 'NONE', #154 ) ;
#109 = CARTESIAN_POINT ( 'NONE',  ( 50.00000000000000711, 28.86751345948137626, 40.00000000000002132 ) ) ;
#110 = SURFACE_STYLE_FILL_AREA ( #111 ) ;
#111 = FILL_AREA_STYLE ('',( #71 ) ) ;
#112 = VECTOR ( 'NONE', #70, 1000.000000000000000 ) ;
#113 = CARTESIAN_POINT ( 'NONE',  ( 50.00000000000000711, 28.86751345948137626, 0.000000000000000000 ) ) ;
#114 = SURFACE_SIDE_STYLE ('',( #36 ) ) ;
#115 =( GEOMETRIC_REPRESENTATION_CONTEXT ( 3 ) GLOBAL_UNCERTAINTY_ASSIGNED_CONTEXT ( ( #45 ) ) GLOBAL_UNIT_ASSIGNED_CONTEXT ( ( #101, #163, #151 ) ) REPRESENTATION_CONTEXT ( 'NONE', 'WORKASPACE' ) );
#116 = ADVANCED_BREP_SHAPE_REPRESENTATION ( '30_deg_ramp', ( #34, #57 ), #31 ) ;
#117 = ORIENTED_EDGE ( 'NONE', *, *, #152, .F. ) ;
#118 = DIRECTION ( 'NONE',  ( -0.000000000000000000, 0.000000000000000000, 1.000000000000000000 ) ) ;
#119 = ORIENTED_EDGE ( 'NONE', *, *, #77, .T. ) ;
#120 = CARTESIAN_POINT ( 'NONE',  ( 0.000000000000000000, 0.000000000000000000, 40.00000000000002132 ) ) ;
#121 = APPLICATION_CONTEXT ( 'automotive_design' ) ;
#122 = PRODUCT_DEFINITION_FORMATION_WITH_SPECIFIED_SOURCE ( 'ANY', '', #38, .NOT_KNOWN. ) ;
#123 = VECTOR ( 'NONE', #25, 1000.000000000000000 ) ;
#124 =( NAMED_UNIT ( * ) SI_UNIT ( $, .STERADIAN. ) SOLID_ANGLE_UNIT ( ) );
#125 = EDGE_CURVE ( 'NONE', #99, #93, #130, .T. ) ;
#126 = FILL_AREA_STYLE ('',( #43 ) ) ;
#127 = CARTESIAN_POINT ( 'NONE',  ( 0.000000000000000000, 0.000000000000000000, 40.00000000000002132 ) ) ;
#128 = UNCERTAINTY_MEASURE_WITH_UNIT (LENGTH_MEASURE( 1.000000000000000082E-05 ), #54, 'distance_accuracy_value', 'NONE');
#129 = CARTESIAN_POINT ( 'NONE',  ( 0.000000000000000000, 0.000000000000000000, 40.00000000000002132 ) ) ;
#130 = LINE ( 'NONE', #94, #107 ) ;
#131 = ORIENTED_EDGE ( 'NONE', *, *, #77, .F. ) ;
#132 = ADVANCED_FACE ( 'NONE', ( #29 ), #44, .F. ) ;
#133 = PLANE ( 'NONE',  #103 ) ;
#134 = SHAPE_DEFINITION_REPRESENTATION ( #13, #116 ) ;
#135 = VECTOR ( 'NONE', #159, 1000.000000000000114 ) ;
#136 = CARTESIAN_POINT ( 'NONE',  ( 50.00000000000000000, -1.201851678989723438E-14, 40.00000000000002132 ) ) ;
#137 = AXIS2_PLACEMENT_3D ( 'NONE', #142, #118, #96 ) ;
#138 = CARTESIAN_POINT ( 'NONE',  ( 0.000000000000000000, 0.000000000000000000, 40.00000000000002132 ) ) ;
#139 = ADVANCED_FACE ( 'NONE', ( #90 ), #32, .F. ) ;
#140 = FACE_OUTER_BOUND ( 'NONE', #11, .T. ) ;
#141 = VECTOR ( 'NONE', #4, 1000.000000000000000 ) ;
#142 = CARTESIAN_POINT ( 'NONE',  ( 0.000000000000000000, 0.000000000000000000, 0.000000000000000000 ) ) ;
#143 = VERTEX_POINT ( 'NONE', #92 ) ;
#144 = CARTESIAN_POINT ( 'NONE',  ( 50.00000000000000000, -1.201851678989723438E-14, 40.00000000000002132 ) ) ;
#145 = ORIENTED_EDGE ( 'NONE', *, *, #7, .T. ) ;
#146 = ORIENTED_EDGE ( 'NONE', *, *, #65, .T. ) ;
#147 = ADVANCED_FACE ( 'NONE', ( #140 ), #20, .F. ) ;
#148 = CARTESIAN_POINT ( 'NONE',  ( 50.00000000000000000, 0.000000000000000000, 40.00000000000002132 ) ) ;
#149 = AXIS2_PLACEMENT_3D ( 'NONE', #144, #33, #61 ) ;
#150 = CARTESIAN_POINT ( 'NONE',  ( 0.000000000000000000, 0.000000000000000000, 0.000000000000000000 ) ) ;
#151 =( NAMED_UNIT ( * ) SI_UNIT ( $, .STERADIAN. ) SOLID_ANGLE_UNIT ( ) );
#152 = EDGE_CURVE ( 'NONE', #99, #51, #74, .T. ) ;
#153 = STYLED_ITEM ( 'NONE', ( #162 ), #34 ) ;
#154 = CARTESIAN_POINT ( 'NONE',  ( 50.00000000000000000, 0.000000000000000000, 0.000000000000000000 ) ) ;
#155 = ORIENTED_EDGE ( 'NONE', *, *, #125, .F. ) ;
#156 = EDGE_LOOP ( 'NONE', ( #95, #106, #97 ) ) ;
#157 = DIRECTION ( 'NONE',  ( 0.8660254037844379305, 0.5000000000000011102, 0.000000000000000000 ) ) ;
#158 = EDGE_CURVE ( 'NONE', #143, #167, #52, .T. ) ;
#159 = DIRECTION ( 'NONE',  ( 0.8660254037844379305, 0.5000000000000011102, 0.000000000000000000 ) ) ;
#160 = DIRECTION ( 'NONE',  ( 0.000000000000000000, 0.000000000000000000, 1.000000000000000000 ) ) ;
#161 = VECTOR ( 'NONE', #24, 1000.000000000000000 ) ;
#162 = PRESENTATION_STYLE_ASSIGNMENT (( #84 ) ) ;
#163 =( NAMED_UNIT ( * ) PLANE_ANGLE_UNIT ( ) SI_UNIT ( $, .RADIAN. ) );
#164 = AXIS2_PLACEMENT_3D ( 'NONE', #73, #104, #19 ) ;
#165 = ORIENTED_EDGE ( 'NONE', *, *, #158, .F. ) ;
#166 = CLOSED_SHELL ( 'NONE', ( #147, #132, #2, #30, #139 ) ) ;
#167 = VERTEX_POINT ( 'NONE', #113 ) ;
#168 = ORIENTED_EDGE ( 'NONE', *, *, #158, .T. ) ;
#169 = DIRECTION ( 'NONE',  ( 1.000000000000000000, 0.000000000000000000, 0.000000000000000000 ) ) ;
ENDSEC;
END-ISO-10303-21;
