ISO-10303-21;
HEADER;
FILE_DESCRIPTION (( 'STEP AP214' ),
    '1' );
FILE_NAME ('ScrewAngleAdapterS.STEP',
    '2024-04-26T23:59:57',
    ( '' ),
    ( '' ),
    'SwSTEP 2.0',
    'SolidWorks 2022',
    '' );
FILE_SCHEMA (( 'AUTOMOTIVE_DESIGN' ));
ENDSEC;

DATA;
#1 =( GEOMETRIC_REPRESENTATION_CONTEXT ( 3 ) GLOBAL_UNCERTAINTY_ASSIGNED_CONTEXT ( ( #121 ) ) GLOBAL_UNIT_ASSIGNED_CONTEXT ( ( #135, #12, #195 ) ) REPRESENTATION_CONTEXT ( 'NONE', 'WORKASPACE' ) );
#2 =( GEOMETRIC_REPRESENTATION_CONTEXT ( 3 ) GLOBAL_UNCERTAINTY_ASSIGNED_CONTEXT ( ( #63 ) ) GLOBAL_UNIT_ASSIGNED_CONTEXT ( ( #155, #87, #62 ) ) REPRESENTATION_CONTEXT ( 'NONE', 'WORKASPACE' ) );
#3 = ORIENTED_EDGE ( 'NONE', *, *, #31, .F. ) ;
#4 = ORIENTED_EDGE ( 'NONE', *, *, #171, .T. ) ;
#5 = ORIENTED_EDGE ( 'NONE', *, *, #51, .T. ) ;
#6 = FACE_OUTER_BOUND ( 'NONE', #146, .T. ) ;
#7 = DIRECTION ( 'NONE',  ( -0.000000000000000000, -1.000000000000000000, -0.000000000000000000 ) ) ;
#8 = AXIS2_PLACEMENT_3D ( 'NONE', #150, #166, #46 ) ;
#9 = SURFACE_STYLE_FILL_AREA ( #60 ) ;
#10 = DIRECTION ( 'NONE',  ( 0.000000000000000000, -0.9848077530122079093, -0.1736481776669312749 ) ) ;
#11 = STYLED_ITEM ( 'NONE', ( #154 ), #105 ) ;
#12 =( NAMED_UNIT ( * ) PLANE_ANGLE_UNIT ( ) SI_UNIT ( $, .RADIAN. ) );
#13 = APPLICATION_PROTOCOL_DEFINITION ( 'draft international standard', 'automotive_design', 1998, #175 ) ;
#14 = PRESENTATION_STYLE_ASSIGNMENT (( #33 ) ) ;
#15 = ORIENTED_EDGE ( 'NONE', *, *, #16, .F. ) ;
#16 = EDGE_CURVE ( 'NONE', #111, #92, #124, .T. ) ;
#17 = ORIENTED_EDGE ( 'NONE', *, *, #159, .T. ) ;
#18 = AXIS2_PLACEMENT_3D ( 'NONE', #165, #21, #95 ) ;
#19 = DIRECTION ( 'NONE',  ( 0.000000000000000000, 1.000000000000000000, 0.000000000000000000 ) ) ;
#20 = CYLINDRICAL_SURFACE ( 'NONE', #180, 4.000000000000000000 ) ;
#21 = DIRECTION ( 'NONE',  ( -0.000000000000000000, -1.000000000000000000, -0.000000000000000000 ) ) ;
#22 = MECHANICAL_DESIGN_GEOMETRIC_PRESENTATION_REPRESENTATION (  '', ( #11 ), #1 ) ;
#23 = CYLINDRICAL_SURFACE ( 'NONE', #18, 2.000000000000000000 ) ;
#24 = FACE_OUTER_BOUND ( 'NONE', #144, .T. ) ;
#25 = DIRECTION ( 'NONE',  ( 0.000000000000000000, 0.000000000000000000, -1.000000000000000000 ) ) ;
#26 = CARTESIAN_POINT ( 'NONE',  ( 0.000000000000000000, 1.647346038583068273, -2.000000000000000000 ) ) ;
#27 = CARTESIAN_POINT ( 'NONE',  ( 10.00000000000000000, 1.255652334134566894, 0.2214053848974860128 ) ) ;
#28 = DIRECTION ( 'NONE',  ( 0.000000000000000000, 0.000000000000000000, 1.000000000000000000 ) ) ;
#29 = DIRECTION ( 'NONE',  ( 0.000000000000000000, 0.000000000000000000, 1.000000000000000000 ) ) ;
#30 = PRODUCT_DEFINITION_CONTEXT ( 'detailed design', #175, 'design' ) ;
#31 = EDGE_CURVE ( 'NONE', #109, #75, #66, .T. ) ;
#32 = PRODUCT ( 'ScrewAngleAdapterS', 'ScrewAngleAdapterS', '', ( #214 ) ) ;
#33 = SURFACE_STYLE_USAGE ( .BOTH. , #184 ) ;
#34 = ORIENTED_EDGE ( 'NONE', *, *, #156, .F. ) ;
#35 = EDGE_CURVE ( 'NONE', #186, #111, #176, .T. ) ;
#36 = FACE_OUTER_BOUND ( 'NONE', #198, .T. ) ;
#37 = VECTOR ( 'NONE', #40, 1000.000000000000000 ) ;
#38 = ORIENTED_EDGE ( 'NONE', *, *, #51, .F. ) ;
#39 = CYLINDRICAL_SURFACE ( 'NONE', #149, 4.000000000000000000 ) ;
#40 = DIRECTION ( 'NONE',  ( -0.000000000000000000, -1.000000000000000000, -0.000000000000000000 ) ) ;
#41 = ORIENTED_EDGE ( 'NONE', *, *, #188, .T. ) ;
#42 = DIRECTION ( 'NONE',  ( 0.000000000000000000, 1.000000000000000000, 0.000000000000000000 ) ) ;
#43 = FACE_OUTER_BOUND ( 'NONE', #128, .T. ) ;
#44 = FACE_BOUND ( 'NONE', #69, .T. ) ;
#45 = ADVANCED_FACE ( 'NONE', ( #110 ), #20, .T. ) ;
#46 = DIRECTION ( 'NONE',  ( 0.000000000000000000, 0.000000000000000000, 1.000000000000000000 ) ) ;
#47 = CARTESIAN_POINT ( 'NONE',  ( 8.000000000000000000, 2.000000000000000000, -4.000000000000000888 ) ) ;
#48 =( NAMED_UNIT ( * ) PLANE_ANGLE_UNIT ( ) SI_UNIT ( $, .RADIAN. ) );
#49 = EDGE_LOOP ( 'NONE', ( #139, #106 ) ) ;
#50 = SURFACE_STYLE_FILL_AREA ( #123 ) ;
#51 = EDGE_CURVE ( 'NONE', #52, #186, #93, .T. ) ;
#52 = VERTEX_POINT ( 'NONE', #73 ) ;
#53 = CARTESIAN_POINT ( 'NONE',  ( 0.000000000000000000, 2.000000000000000000, -4.000000000000000000 ) ) ;
#54 = CARTESIAN_POINT ( 'NONE',  ( 4.898587196589412829E-16, 0.000000000000000000, 4.000000000000000000 ) ) ;
#55 = DIRECTION ( 'NONE',  ( 0.000000000000000000, 0.000000000000000000, 1.000000000000000000 ) ) ;
#56 = ORIENTED_EDGE ( 'NONE', *, *, #104, .T. ) ;
#57 = CARTESIAN_POINT ( 'NONE',  ( 0.000000000000000000, 2.000000000000000000, 0.000000000000000000 ) ) ;
#58 = CARTESIAN_POINT ( 'NONE',  ( 0.000000000000000000, 0.000000000000000000, 0.000000000000000000 ) ) ;
#59 = DIRECTION ( 'NONE',  ( -0.000000000000000000, -1.000000000000000000, -0.000000000000000000 ) ) ;
#60 = FILL_AREA_STYLE ('',( #101 ) ) ;
#61 = DIRECTION ( 'NONE',  ( 0.000000000000000000, 0.1736481776669312749, -0.9848077530122079093 ) ) ;
#62 =( NAMED_UNIT ( * ) SI_UNIT ( $, .STERADIAN. ) SOLID_ANGLE_UNIT ( ) );
#63 = UNCERTAINTY_MEASURE_WITH_UNIT (LENGTH_MEASURE( 1.000000000000000082E-05 ), #155, 'distance_accuracy_value', 'NONE');
#64 = ORIENTED_EDGE ( 'NONE', *, *, #82, .T. ) ;
#65 = AXIS2_PLACEMENT_3D ( 'NONE', #27, #10, #61 ) ;
#66 =( BOUNDED_CURVE ( )  B_SPLINE_CURVE ( 3, ( #97, #145, #200, #77 ),
 .UNSPECIFIED., .F., .F. ) 
 B_SPLINE_CURVE_WITH_KNOTS ( ( 4, 4 ),
 ( 3.141592653589793116, 6.283185307179586232 ),
 .UNSPECIFIED. ) 
 CURVE ( )  GEOMETRIC_REPRESENTATION_ITEM ( )  RATIONAL_B_SPLINE_CURVE ( ( 1.000000000000000000, 0.3333333333333333703, 0.3333333333333333703, 1.000000000000000000 ) ) 
 REPRESENTATION_ITEM ( '' )  );
#67 = SHAPE_DEFINITION_REPRESENTATION ( #172, #138 ) ;
#68 = AXIS2_PLACEMENT_3D ( 'NONE', #153, #42, #28 ) ;
#69 = EDGE_LOOP ( 'NONE', ( #89, #17 ) ) ;
#70 = ORIENTED_EDGE ( 'NONE', *, *, #35, .T. ) ;
#71 = LINE ( 'NONE', #108, #85 ) ;
#72 = ADVANCED_FACE ( 'NONE', ( #36 ), #23, .F. ) ;
#73 = CARTESIAN_POINT ( 'NONE',  ( 4.898587196589412829E-16, 0.5893841543322725363, 4.000000000000000000 ) ) ;
#74 = COLOUR_RGB ( '',0.7921568627450980005, 0.8196078431372548767, 0.9333333333333333481 ) ;
#75 = VERTEX_POINT ( 'NONE', #130 ) ;
#76 = ADVANCED_FACE ( 'NONE', ( #6 ), #39, .T. ) ;
#77 = CARTESIAN_POINT ( 'NONE',  ( 2.449293598294706414E-16, 0.9420381157492043744, 2.000000000000000000 ) ) ;
#78 = CARTESIAN_POINT ( 'NONE',  ( 2.449293598294706414E-16, 0.000000000000000000, 2.000000000000000000 ) ) ;
#79 = CARTESIAN_POINT ( 'NONE',  ( 8.000000000000000000, 0.5893841543322726473, 4.000000000000000000 ) ) ;
#80 = CIRCLE ( 'NONE', #199, 2.000000000000000000 ) ;
#81 = FACE_BOUND ( 'NONE', #49, .T. ) ;
#82 = EDGE_CURVE ( 'NONE', #52, #92, #71, .T. ) ;
#83 = APPLICATION_PROTOCOL_DEFINITION ( 'draft international standard', 'automotive_design', 1998, #126 ) ;
#84 = ORIENTED_EDGE ( 'NONE', *, *, #159, .F. ) ;
#85 = VECTOR ( 'NONE', #201, 1000.000000000000000 ) ;
#86 = AXIS2_PLACEMENT_3D ( 'NONE', #160, #29, #157 ) ;
#87 =( NAMED_UNIT ( * ) PLANE_ANGLE_UNIT ( ) SI_UNIT ( $, .RADIAN. ) );
#88 =( NAMED_UNIT ( * ) SI_UNIT ( $, .STERADIAN. ) SOLID_ANGLE_UNIT ( ) );
#89 = ORIENTED_EDGE ( 'NONE', *, *, #156, .T. ) ;
#90 = CIRCLE ( 'NONE', #68, 2.000000000000000000 ) ;
#91 = EDGE_CURVE ( 'NONE', #75, #109, #192, .T. ) ;
#92 = VERTEX_POINT ( 'NONE', #54 ) ;
#93 =( BOUNDED_CURVE ( )  B_SPLINE_CURVE ( 3, ( #163, #162, #173, #53 ),
 .UNSPECIFIED., .F., .F. ) 
 B_SPLINE_CURVE_WITH_KNOTS ( ( 4, 4 ),
 ( 0.000000000000000000, 3.141592653589793116 ),
 .UNSPECIFIED. ) 
 CURVE ( )  GEOMETRIC_REPRESENTATION_ITEM ( )  RATIONAL_B_SPLINE_CURVE ( ( 1.000000000000000000, 0.3333333333333333703, 0.3333333333333333703, 1.000000000000000000 ) ) 
 REPRESENTATION_ITEM ( '' )  );
#94 = CARTESIAN_POINT ( 'NONE',  ( 0.000000000000000000, 0.000000000000000000, 0.000000000000000000 ) ) ;
#95 = DIRECTION ( 'NONE',  ( 0.000000000000000000, 0.000000000000000000, -1.000000000000000000 ) ) ;
#96 = ADVANCED_FACE ( 'NONE', ( #81, #43 ), #205, .F. ) ;
#97 = CARTESIAN_POINT ( 'NONE',  ( 0.000000000000000000, 1.647346038583068273, -2.000000000000000000 ) ) ;
#98 = CARTESIAN_POINT ( 'NONE',  ( 0.000000000000000000, 2.000000000000000000, -4.000000000000000000 ) ) ;
#99 = CARTESIAN_POINT ( 'NONE',  ( 0.000000000000000000, 0.000000000000000000, -4.000000000000000000 ) ) ;
#100 = PRODUCT_DEFINITION_FORMATION_WITH_SPECIFIED_SOURCE ( 'ANY', '', #32, .NOT_KNOWN. ) ;
#101 = FILL_AREA_STYLE_COLOUR ( '', #112 ) ;
#102 = CARTESIAN_POINT ( 'NONE',  ( 0.000000000000000000, 2.000000000000000000, 0.000000000000000000 ) ) ;
#103 = DIRECTION ( 'NONE',  ( 0.000000000000000000, 1.000000000000000000, 0.000000000000000000 ) ) ;
#104 = EDGE_CURVE ( 'NONE', #109, #185, #206, .T. ) ;
#105 = MANIFOLD_SOLID_BREP ( 'Cut-Extrude1', #212 ) ;
#106 = ORIENTED_EDGE ( 'NONE', *, *, #91, .T. ) ;
#107 =( LENGTH_UNIT ( ) NAMED_UNIT ( * ) SI_UNIT ( .MILLI., .METRE. ) );
#108 = CARTESIAN_POINT ( 'NONE',  ( 4.898587196589412829E-16, 2.000000000000000000, 4.000000000000000000 ) ) ;
#109 = VERTEX_POINT ( 'NONE', #136 ) ;
#110 = FACE_OUTER_BOUND ( 'NONE', #127, .T. ) ;
#111 = VERTEX_POINT ( 'NONE', #99 ) ;
#112 = COLOUR_RGB ( '',0.7921568627450980005, 0.8196078431372548767, 0.9333333333333333481 ) ;
#113 = ORIENTED_EDGE ( 'NONE', *, *, #122, .T. ) ;
#114 = FACE_OUTER_BOUND ( 'NONE', #142, .T. ) ;
#115 =( BOUNDED_CURVE ( )  B_SPLINE_CURVE ( 3, ( #98, #47, #79, #120 ),
 .UNSPECIFIED., .F., .T. ) 
 B_SPLINE_CURVE_WITH_KNOTS ( ( 4, 4 ),
 ( 3.141592653589793116, 6.283185307179586232 ),
 .UNSPECIFIED. ) 
 CURVE ( )  GEOMETRIC_REPRESENTATION_ITEM ( )  RATIONAL_B_SPLINE_CURVE ( ( 1.000000000000000000, 0.3333333333333333703, 0.3333333333333333703, 1.000000000000000000 ) ) 
 REPRESENTATION_ITEM ( '' )  );
#116 = CARTESIAN_POINT ( 'NONE',  ( 0.000000000000000000, 2.000000000000000000, -2.000000000000000000 ) ) ;
#117 = ADVANCED_FACE ( 'NONE', ( #24 ), #118, .F. ) ;
#118 = CYLINDRICAL_SURFACE ( 'NONE', #167, 2.000000000000000000 ) ;
#119 = VECTOR ( 'NONE', #59, 1000.000000000000000 ) ;
#120 = CARTESIAN_POINT ( 'NONE',  ( 4.898587196589412829E-16, 0.5893841543322725363, 4.000000000000000000 ) ) ;
#121 = UNCERTAINTY_MEASURE_WITH_UNIT (LENGTH_MEASURE( 1.000000000000000082E-05 ), #135, 'distance_accuracy_value', 'NONE');
#122 = EDGE_CURVE ( 'NONE', #186, #52, #115, .T. ) ;
#123 = FILL_AREA_STYLE ('',( #137 ) ) ;
#124 = CIRCLE ( 'NONE', #202, 4.000000000000000000 ) ;
#125 =( GEOMETRIC_REPRESENTATION_CONTEXT ( 3 ) GLOBAL_UNCERTAINTY_ASSIGNED_CONTEXT ( ( #148 ) ) GLOBAL_UNIT_ASSIGNED_CONTEXT ( ( #107, #48, #88 ) ) REPRESENTATION_CONTEXT ( 'NONE', 'WORKASPACE' ) );
#126 = APPLICATION_CONTEXT ( 'automotive_design' ) ;
#127 = EDGE_LOOP ( 'NONE', ( #161, #5, #70, #174 ) ) ;
#128 = EDGE_LOOP ( 'NONE', ( #177, #38 ) ) ;
#129 = ORIENTED_EDGE ( 'NONE', *, *, #171, .F. ) ;
#130 = CARTESIAN_POINT ( 'NONE',  ( 2.449293598294706414E-16, 0.9420381157492043744, 2.000000000000000000 ) ) ;
#131 = ORIENTED_EDGE ( 'NONE', *, *, #91, .F. ) ;
#132 = CARTESIAN_POINT ( 'NONE',  ( 0.000000000000000000, 2.000000000000000000, 0.000000000000000000 ) ) ;
#133 = CARTESIAN_POINT ( 'NONE',  ( -4.000000000000000000, 0.9420381157492045965, 2.000000000000000000 ) ) ;
#134 = DIRECTION ( 'NONE',  ( 0.000000000000000000, 1.000000000000000000, 0.000000000000000000 ) ) ;
#135 =( LENGTH_UNIT ( ) NAMED_UNIT ( * ) SI_UNIT ( .MILLI., .METRE. ) );
#136 = CARTESIAN_POINT ( 'NONE',  ( 0.000000000000000000, 1.647346038583068273, -2.000000000000000000 ) ) ;
#137 = FILL_AREA_STYLE_COLOUR ( '', #74 ) ;
#138 = ADVANCED_BREP_SHAPE_REPRESENTATION ( 'ScrewAngleAdapterS', ( #105, #86 ), #2 ) ;
#139 = ORIENTED_EDGE ( 'NONE', *, *, #31, .T. ) ;
#140 = VECTOR ( 'NONE', #193, 1000.000000000000000 ) ;
#141 = PRODUCT_RELATED_PRODUCT_CATEGORY ( 'part', '', ( #32 ) ) ;
#142 = EDGE_LOOP ( 'NONE', ( #15, #189 ) ) ;
#143 = VERTEX_POINT ( 'NONE', #78 ) ;
#144 = EDGE_LOOP ( 'NONE', ( #129, #3, #56, #84 ) ) ;
#145 = CARTESIAN_POINT ( 'NONE',  ( 4.000000000000000000, 1.647346038583068495, -2.000000000000000444 ) ) ;
#146 = EDGE_LOOP ( 'NONE', ( #113, #64, #41, #203 ) ) ;
#147 = DIRECTION ( 'NONE',  ( 0.000000000000000000, 0.000000000000000000, -1.000000000000000000 ) ) ;
#148 = UNCERTAINTY_MEASURE_WITH_UNIT (LENGTH_MEASURE( 1.000000000000000082E-05 ), #107, 'distance_accuracy_value', 'NONE');
#149 = AXIS2_PLACEMENT_3D ( 'NONE', #132, #7, #147 ) ;
#150 = CARTESIAN_POINT ( 'NONE',  ( 0.000000000000000000, 0.000000000000000000, 0.000000000000000000 ) ) ;
#151 = DIRECTION ( 'NONE',  ( 0.000000000000000000, 0.000000000000000000, 1.000000000000000000 ) ) ;
#152 = CARTESIAN_POINT ( 'NONE',  ( 2.449293598294706414E-16, 2.000000000000000000, 2.000000000000000000 ) ) ;
#153 = CARTESIAN_POINT ( 'NONE',  ( 0.000000000000000000, 0.000000000000000000, 0.000000000000000000 ) ) ;
#154 = PRESENTATION_STYLE_ASSIGNMENT (( #191 ) ) ;
#155 =( LENGTH_UNIT ( ) NAMED_UNIT ( * ) SI_UNIT ( .MILLI., .METRE. ) );
#156 = EDGE_CURVE ( 'NONE', #185, #143, #90, .T. ) ;
#157 = DIRECTION ( 'NONE',  ( 1.000000000000000000, 0.000000000000000000, 0.000000000000000000 ) ) ;
#158 = PRODUCT_DEFINITION ( 'UNKNOWN', '', #100, #30 ) ;
#159 = EDGE_CURVE ( 'NONE', #143, #185, #80, .T. ) ;
#160 = CARTESIAN_POINT ( 'NONE',  ( 0.000000000000000000, 0.000000000000000000, 0.000000000000000000 ) ) ;
#161 = ORIENTED_EDGE ( 'NONE', *, *, #82, .F. ) ;
#162 = CARTESIAN_POINT ( 'NONE',  ( -8.000000000000000000, 0.5893841543322726473, 4.000000000000000000 ) ) ;
#163 = CARTESIAN_POINT ( 'NONE',  ( 4.898587196589412829E-16, 0.5893841543322725363, 4.000000000000000000 ) ) ;
#164 = DIRECTION ( 'NONE',  ( -0.000000000000000000, -1.000000000000000000, -0.000000000000000000 ) ) ;
#165 = CARTESIAN_POINT ( 'NONE',  ( 0.000000000000000000, 2.000000000000000000, 0.000000000000000000 ) ) ;
#166 = DIRECTION ( 'NONE',  ( 0.000000000000000000, 1.000000000000000000, 0.000000000000000000 ) ) ;
#167 = AXIS2_PLACEMENT_3D ( 'NONE', #102, #211, #25 ) ;
#168 = LINE ( 'NONE', #152, #140 ) ;
#169 = SURFACE_SIDE_STYLE ('',( #9 ) ) ;
#170 = CARTESIAN_POINT ( 'NONE',  ( 0.000000000000000000, 0.000000000000000000, 0.000000000000000000 ) ) ;
#171 = EDGE_CURVE ( 'NONE', #75, #143, #168, .T. ) ;
#172 = PRODUCT_DEFINITION_SHAPE ( 'NONE', 'NONE',  #158 ) ;
#173 = CARTESIAN_POINT ( 'NONE',  ( -8.000000000000000000, 2.000000000000000000, -3.999999999999999556 ) ) ;
#174 = ORIENTED_EDGE ( 'NONE', *, *, #16, .T. ) ;
#175 = APPLICATION_CONTEXT ( 'automotive_design' ) ;
#176 = LINE ( 'NONE', #204, #37 ) ;
#177 = ORIENTED_EDGE ( 'NONE', *, *, #122, .F. ) ;
#178 = DIRECTION ( 'NONE',  ( 0.000000000000000000, 0.000000000000000000, -1.000000000000000000 ) ) ;
#179 = CARTESIAN_POINT ( 'NONE',  ( 0.000000000000000000, 2.000000000000000000, -4.000000000000000000 ) ) ;
#180 = AXIS2_PLACEMENT_3D ( 'NONE', #57, #164, #178 ) ;
#181 = MECHANICAL_DESIGN_GEOMETRIC_PRESENTATION_REPRESENTATION (  '', ( #213 ), #125 ) ;
#182 = PLANE ( 'NONE',  #190 ) ;
#183 = DIRECTION ( 'NONE',  ( 0.000000000000000000, -0.000000000000000000, 1.000000000000000000 ) ) ;
#184 = SURFACE_SIDE_STYLE ('',( #50 ) ) ;
#185 = VERTEX_POINT ( 'NONE', #194 ) ;
#186 = VERTEX_POINT ( 'NONE', #179 ) ;
#187 = CARTESIAN_POINT ( 'NONE',  ( 2.449293598294706414E-16, 0.9420381157492043744, 2.000000000000000000 ) ) ;
#188 = EDGE_CURVE ( 'NONE', #92, #111, #196, .T. ) ;
#189 = ORIENTED_EDGE ( 'NONE', *, *, #188, .F. ) ;
#190 = AXIS2_PLACEMENT_3D ( 'NONE', #58, #134, #183 ) ;
#191 = SURFACE_STYLE_USAGE ( .BOTH. , #169 ) ;
#192 =( BOUNDED_CURVE ( )  B_SPLINE_CURVE ( 3, ( #187, #133, #209, #26 ),
 .UNSPECIFIED., .F., .F. ) 
 B_SPLINE_CURVE_WITH_KNOTS ( ( 4, 4 ),
 ( 0.000000000000000000, 3.141592653589793116 ),
 .UNSPECIFIED. ) 
 CURVE ( )  GEOMETRIC_REPRESENTATION_ITEM ( )  RATIONAL_B_SPLINE_CURVE ( ( 1.000000000000000000, 0.3333333333333333703, 0.3333333333333333703, 1.000000000000000000 ) ) 
 REPRESENTATION_ITEM ( '' )  );
#193 = DIRECTION ( 'NONE',  ( -0.000000000000000000, -1.000000000000000000, -0.000000000000000000 ) ) ;
#194 = CARTESIAN_POINT ( 'NONE',  ( 0.000000000000000000, 0.000000000000000000, -2.000000000000000000 ) ) ;
#195 =( NAMED_UNIT ( * ) SI_UNIT ( $, .STERADIAN. ) SOLID_ANGLE_UNIT ( ) );
#196 = CIRCLE ( 'NONE', #8, 4.000000000000000000 ) ;
#197 = ORIENTED_EDGE ( 'NONE', *, *, #104, .F. ) ;
#198 = EDGE_LOOP ( 'NONE', ( #131, #4, #34, #197 ) ) ;
#199 = AXIS2_PLACEMENT_3D ( 'NONE', #170, #103, #151 ) ;
#200 = CARTESIAN_POINT ( 'NONE',  ( 4.000000000000000000, 0.9420381157492045965, 2.000000000000000000 ) ) ;
#201 = DIRECTION ( 'NONE',  ( -0.000000000000000000, -1.000000000000000000, -0.000000000000000000 ) ) ;
#202 = AXIS2_PLACEMENT_3D ( 'NONE', #94, #19, #55 ) ;
#203 = ORIENTED_EDGE ( 'NONE', *, *, #35, .F. ) ;
#204 = CARTESIAN_POINT ( 'NONE',  ( 0.000000000000000000, 2.000000000000000000, -4.000000000000000000 ) ) ;
#205 = PLANE ( 'NONE',  #65 ) ;
#206 = LINE ( 'NONE', #116, #119 ) ;
#207 = PRESENTATION_LAYER_ASSIGNMENT (  '', '', ( #11 ) ) ;
#208 = PRESENTATION_LAYER_ASSIGNMENT (  '', '', ( #213 ) ) ;
#209 = CARTESIAN_POINT ( 'NONE',  ( -4.000000000000000000, 1.647346038583068495, -1.999999999999999778 ) ) ;
#210 = ADVANCED_FACE ( 'NONE', ( #114, #44 ), #182, .F. ) ;
#211 = DIRECTION ( 'NONE',  ( -0.000000000000000000, -1.000000000000000000, -0.000000000000000000 ) ) ;
#212 = CLOSED_SHELL ( 'NONE', ( #72, #76, #210, #45, #117, #96 ) ) ;
#213 = STYLED_ITEM ( 'NONE', ( #14 ), #138 ) ;
#214 = PRODUCT_CONTEXT ( 'NONE', #126, 'mechanical' ) ;
ENDSEC;
END-ISO-10303-21;
