ISO-10303-21;
HEADER;
FILE_DESCRIPTION (( 'STEP AP214' ),
    '1' );
FILE_NAME ('ScrewAngleAdapterFW.STEP',
    '2024-04-26T22:40:50',
    ( '' ),
    ( '' ),
    'SwSTEP 2.0',
    'SolidWorks 2022',
    '' );
FILE_SCHEMA (( 'AUTOMOTIVE_DESIGN' ));
ENDSEC;

DATA;
#1 = AXIS2_PLACEMENT_3D ( 'NONE', #190, #85, #155 ) ;
#2 = DIRECTION ( 'NONE',  ( 1.000000000000000000, 0.000000000000000000, 0.000000000000000000 ) ) ;
#3 = CYLINDRICAL_SURFACE ( 'NONE', #39, 3.500000000000000000 ) ;
#4 = AXIS2_PLACEMENT_3D ( 'NONE', #11, #25, #193 ) ;
#5 = CARTESIAN_POINT ( 'NONE',  ( 13.00000000000000355, 1.516660498395393075, 6.500000000000001776 ) ) ;
#6 = PRESENTATION_STYLE_ASSIGNMENT (( #33 ) ) ;
#7 =( NAMED_UNIT ( * ) SI_UNIT ( $, .STERADIAN. ) SOLID_ANGLE_UNIT ( ) );
#8 = CARTESIAN_POINT ( 'NONE',  ( 0.000000000000000000, 5.000000000000000000, -6.500000000000000888 ) ) ;
#9 = CARTESIAN_POINT ( 'NONE',  ( 0.000000000000000000, 0.000000000000000000, 0.000000000000000000 ) ) ;
#10 = EDGE_CURVE ( 'NONE', #81, #102, #106, .T. ) ;
#11 = CARTESIAN_POINT ( 'NONE',  ( 0.000000000000000000, 0.000000000000000000, 0.000000000000000000 ) ) ;
#12 = CYLINDRICAL_SURFACE ( 'NONE', #88, 3.500000000000000000 ) ;
#13 = EDGE_LOOP ( 'NONE', ( #121, #201 ) ) ;
#14 = MECHANICAL_DESIGN_GEOMETRIC_PRESENTATION_REPRESENTATION (  '', ( #18 ), #97 ) ;
#15 = VERTEX_POINT ( 'NONE', #65 ) ;
#16 = EDGE_LOOP ( 'NONE', ( #123, #200 ) ) ;
#17 = ORIENTED_EDGE ( 'NONE', *, *, #51, .F. ) ;
#18 = STYLED_ITEM ( 'NONE', ( #6 ), #43 ) ;
#19 = DIRECTION ( 'NONE',  ( 0.000000000000000000, 1.000000000000000000, 0.000000000000000000 ) ) ;
#20 = CARTESIAN_POINT ( 'NONE',  ( 4.286263797015736595E-16, 2.320508075688763938, 3.500000000000000000 ) ) ;
#21 = CARTESIAN_POINT ( 'NONE',  ( 0.000000000000000000, 5.000000000000000000, -6.500000000000000888 ) ) ;
#22 = AXIS2_PLACEMENT_3D ( 'NONE', #93, #147, #73 ) ;
#23 = EDGE_CURVE ( 'NONE', #81, #15, #92, .T. ) ;
#24 = CARTESIAN_POINT ( 'NONE',  ( 0.000000000000000000, 4.196152422706629359, -3.500000000000000000 ) ) ;
#25 = DIRECTION ( 'NONE',  ( 0.000000000000000000, 1.000000000000000000, 0.000000000000000000 ) ) ;
#26 = FACE_OUTER_BOUND ( 'NONE', #83, .T. ) ;
#27 =( LENGTH_UNIT ( ) NAMED_UNIT ( * ) SI_UNIT ( .MILLI., .METRE. ) );
#28 = DIRECTION ( 'NONE',  ( -0.000000000000000000, -1.000000000000000000, -0.000000000000000000 ) ) ;
#29 =( GEOMETRIC_REPRESENTATION_CONTEXT ( 3 ) GLOBAL_UNCERTAINTY_ASSIGNED_CONTEXT ( ( #91 ) ) GLOBAL_UNIT_ASSIGNED_CONTEXT ( ( #101, #58, #78 ) ) REPRESENTATION_CONTEXT ( 'NONE', 'WORKASPACE' ) );
#30 = ORIENTED_EDGE ( 'NONE', *, *, #191, .F. ) ;
#31 = ORIENTED_EDGE ( 'NONE', *, *, #42, .F. ) ;
#32 = VERTEX_POINT ( 'NONE', #104 ) ;
#33 = SURFACE_STYLE_USAGE ( .BOTH. , #89 ) ;
#34 = FACE_OUTER_BOUND ( 'NONE', #170, .T. ) ;
#35 = PRESENTATION_LAYER_ASSIGNMENT (  '', '', ( #18 ) ) ;
#36 = CARTESIAN_POINT ( 'NONE',  ( 4.286263797015736595E-16, 2.320508075688763938, 3.500000000000000000 ) ) ;
#37 = CARTESIAN_POINT ( 'NONE',  ( -7.000000000000000888, 4.196152422706629359, -3.499999999999999112 ) ) ;
#38 = FACE_BOUND ( 'NONE', #13, .T. ) ;
#39 = AXIS2_PLACEMENT_3D ( 'NONE', #141, #204, #157 ) ;
#40 = DIRECTION ( 'NONE',  ( 0.000000000000000000, 0.000000000000000000, -1.000000000000000000 ) ) ;
#41 = FILL_AREA_STYLE ('',( #95 ) ) ;
#42 = EDGE_CURVE ( 'NONE', #102, #32, #128, .T. ) ;
#43 = MANIFOLD_SOLID_BREP ( 'Cut-Extrude1', #210 ) ;
#44 = ORIENTED_EDGE ( 'NONE', *, *, #82, .T. ) ;
#45 = EDGE_LOOP ( 'NONE', ( #99, #30 ) ) ;
#46 = CARTESIAN_POINT ( 'NONE',  ( 7.000000000000000888, 2.320508075688763494, 3.500000000000000000 ) ) ;
#47 = LINE ( 'NONE', #126, #194 ) ;
#48 = PRODUCT_DEFINITION_FORMATION_WITH_SPECIFIED_SOURCE ( 'ANY', '', #77, .NOT_KNOWN. ) ;
#49 = PLANE ( 'NONE',  #1 ) ;
#50 = DIRECTION ( 'NONE',  ( -0.000000000000000000, -1.000000000000000000, -0.000000000000000000 ) ) ;
#51 = EDGE_CURVE ( 'NONE', #15, #81, #138, .T. ) ;
#52 =( GEOMETRIC_REPRESENTATION_CONTEXT ( 3 ) GLOBAL_UNCERTAINTY_ASSIGNED_CONTEXT ( ( #156 ) ) GLOBAL_UNIT_ASSIGNED_CONTEXT ( ( #27, #209, #7 ) ) REPRESENTATION_CONTEXT ( 'NONE', 'WORKASPACE' ) );
#53 = CARTESIAN_POINT ( 'NONE',  ( 7.960204194457796463E-16, 1.516660498395393075, 6.500000000000000888 ) ) ;
#54 = SURFACE_STYLE_USAGE ( .BOTH. , #72 ) ;
#55 = APPLICATION_CONTEXT ( 'automotive_design' ) ;
#56 = VERTEX_POINT ( 'NONE', #189 ) ;
#57 = UNCERTAINTY_MEASURE_WITH_UNIT (LENGTH_MEASURE( 1.000000000000000082E-05 ), #139, 'distance_accuracy_value', 'NONE');
#58 =( NAMED_UNIT ( * ) PLANE_ANGLE_UNIT ( ) SI_UNIT ( $, .RADIAN. ) );
#59 = ADVANCED_FACE ( 'NONE', ( #129, #207 ), #49, .F. ) ;
#60 = AXIS2_PLACEMENT_3D ( 'NONE', #9, #164, #146 ) ;
#61 = APPLICATION_PROTOCOL_DEFINITION ( 'draft international standard', 'automotive_design', 1998, #55 ) ;
#62 = ORIENTED_EDGE ( 'NONE', *, *, #98, .T. ) ;
#63 = AXIS2_PLACEMENT_3D ( 'NONE', #125, #186, #105 ) ;
#64 = VECTOR ( 'NONE', #50, 1000.000000000000000 ) ;
#65 = CARTESIAN_POINT ( 'NONE',  ( 0.000000000000000000, 4.196152422706629359, -3.500000000000000000 ) ) ;
#66 = PRODUCT_RELATED_PRODUCT_CATEGORY ( 'part', '', ( #77 ) ) ;
#67 = CARTESIAN_POINT ( 'NONE',  ( -7.000000000000000888, 2.320508075688763494, 3.500000000000000000 ) ) ;
#68 = CARTESIAN_POINT ( 'NONE',  ( 0.000000000000000000, 0.000000000000000000, 0.000000000000000000 ) ) ;
#69 = CIRCLE ( 'NONE', #60, 3.500000000000000000 ) ;
#70 = ADVANCED_FACE ( 'NONE', ( #142 ), #3, .F. ) ;
#71 = CARTESIAN_POINT ( 'NONE',  ( 7.960204194457796463E-16, 1.516660498395393075, 6.500000000000000888 ) ) ;
#72 = SURFACE_SIDE_STYLE ('',( #163 ) ) ;
#73 = DIRECTION ( 'NONE',  ( 0.000000000000000000, 0.000000000000000000, 1.000000000000000000 ) ) ;
#74 = AXIS2_PLACEMENT_3D ( 'NONE', #68, #19, #185 ) ;
#75 = CARTESIAN_POINT ( 'NONE',  ( 0.000000000000000000, 5.000000000000000000, 0.000000000000000000 ) ) ;
#76 = EDGE_CURVE ( 'NONE', #56, #214, #168, .T. ) ;
#77 = PRODUCT ( 'ScrewAngleAdapterFW', 'ScrewAngleAdapterFW', '', ( #134 ) ) ;
#78 =( NAMED_UNIT ( * ) SI_UNIT ( $, .STERADIAN. ) SOLID_ANGLE_UNIT ( ) );
#79 = EDGE_LOOP ( 'NONE', ( #103, #212, #199, #149 ) ) ;
#80 = EDGE_CURVE ( 'NONE', #148, #206, #116, .T. ) ;
#81 = VERTEX_POINT ( 'NONE', #174 ) ;
#82 = EDGE_CURVE ( 'NONE', #15, #32, #47, .T. ) ;
#83 = EDGE_LOOP ( 'NONE', ( #137, #118, #62, #150 ) ) ;
#84 = CARTESIAN_POINT ( 'NONE',  ( 0.000000000000000000, 4.196152422706629359, -3.500000000000000000 ) ) ;
#85 = DIRECTION ( 'NONE',  ( 0.000000000000000000, -0.9659258262890680902, -0.2588190451025215166 ) ) ;
#86 = CARTESIAN_POINT ( 'NONE',  ( 13.00000000000000355, 5.000000000000000000, -6.500000000000004441 ) ) ;
#87 = ADVANCED_FACE ( 'NONE', ( #34, #38 ), #131, .F. ) ;
#88 = AXIS2_PLACEMENT_3D ( 'NONE', #110, #162, #160 ) ;
#89 = SURFACE_SIDE_STYLE ('',( #153 ) ) ;
#90 = ORIENTED_EDGE ( 'NONE', *, *, #76, .F. ) ;
#91 = UNCERTAINTY_MEASURE_WITH_UNIT (LENGTH_MEASURE( 1.000000000000000082E-05 ), #101, 'distance_accuracy_value', 'NONE');
#92 =( BOUNDED_CURVE ( )  B_SPLINE_CURVE ( 3, ( #36, #67, #37, #84 ),
 .UNSPECIFIED., .F., .F. ) 
 B_SPLINE_CURVE_WITH_KNOTS ( ( 4, 4 ),
 ( 0.000000000000000000, 3.141592653589793116 ),
 .UNSPECIFIED. ) 
 CURVE ( )  GEOMETRIC_REPRESENTATION_ITEM ( )  RATIONAL_B_SPLINE_CURVE ( ( 1.000000000000000000, 0.3333333333333333703, 0.3333333333333333703, 1.000000000000000000 ) ) 
 REPRESENTATION_ITEM ( '' )  );
#93 = CARTESIAN_POINT ( 'NONE',  ( 0.000000000000000000, 0.000000000000000000, 0.000000000000000000 ) ) ;
#94 = DIRECTION ( 'NONE',  ( 0.000000000000000000, 0.000000000000000000, -1.000000000000000000 ) ) ;
#95 = FILL_AREA_STYLE_COLOUR ( '', #152 ) ;
#96 = FACE_OUTER_BOUND ( 'NONE', #79, .T. ) ;
#97 =( GEOMETRIC_REPRESENTATION_CONTEXT ( 3 ) GLOBAL_UNCERTAINTY_ASSIGNED_CONTEXT ( ( #57 ) ) GLOBAL_UNIT_ASSIGNED_CONTEXT ( ( #139, #177, #159 ) ) REPRESENTATION_CONTEXT ( 'NONE', 'WORKASPACE' ) );
#98 = EDGE_CURVE ( 'NONE', #214, #56, #120, .T. ) ;
#99 = ORIENTED_EDGE ( 'NONE', *, *, #80, .F. ) ;
#100 = EDGE_LOOP ( 'NONE', ( #180, #17, #44, #31 ) ) ;
#101 =( LENGTH_UNIT ( ) NAMED_UNIT ( * ) SI_UNIT ( .MILLI., .METRE. ) );
#102 = VERTEX_POINT ( 'NONE', #166 ) ;
#103 = ORIENTED_EDGE ( 'NONE', *, *, #140, .F. ) ;
#104 = CARTESIAN_POINT ( 'NONE',  ( 0.000000000000000000, 0.000000000000000000, -3.500000000000000000 ) ) ;
#105 = DIRECTION ( 'NONE',  ( 0.000000000000000000, 0.000000000000000000, 1.000000000000000000 ) ) ;
#106 = LINE ( 'NONE', #175, #184 ) ;
#107 = APPLICATION_PROTOCOL_DEFINITION ( 'draft international standard', 'automotive_design', 1998, #182 ) ;
#108 = CYLINDRICAL_SURFACE ( 'NONE', #135, 6.500000000000000888 ) ;
#109 = ADVANCED_BREP_SHAPE_REPRESENTATION ( 'ScrewAngleAdapterFW', ( #43, #176 ), #52 ) ;
#110 = CARTESIAN_POINT ( 'NONE',  ( 0.000000000000000000, 5.000000000000000000, 0.000000000000000000 ) ) ;
#111 = CYLINDRICAL_SURFACE ( 'NONE', #122, 6.500000000000000888 ) ;
#112 = PRODUCT_DEFINITION ( 'UNKNOWN', '', #48, #114 ) ;
#113 = FACE_OUTER_BOUND ( 'NONE', #169, .T. ) ;
#114 = PRODUCT_DEFINITION_CONTEXT ( 'detailed design', #55, 'design' ) ;
#115 = SHAPE_DEFINITION_REPRESENTATION ( #124, #109 ) ;
#116 =( BOUNDED_CURVE ( )  B_SPLINE_CURVE ( 3, ( #21, #86, #5, #205 ),
 .UNSPECIFIED., .F., .F. ) 
 B_SPLINE_CURVE_WITH_KNOTS ( ( 4, 4 ),
 ( 3.141592653589793116, 6.283185307179586232 ),
 .UNSPECIFIED. ) 
 CURVE ( )  GEOMETRIC_REPRESENTATION_ITEM ( )  RATIONAL_B_SPLINE_CURVE ( ( 1.000000000000000000, 0.3333333333333333703, 0.3333333333333333703, 1.000000000000000000 ) ) 
 REPRESENTATION_ITEM ( '' )  );
#117 = EDGE_CURVE ( 'NONE', #148, #56, #144, .T. ) ;
#118 = ORIENTED_EDGE ( 'NONE', *, *, #140, .T. ) ;
#119 = CARTESIAN_POINT ( 'NONE',  ( 0.000000000000000000, 0.000000000000000000, 0.000000000000000000 ) ) ;
#120 = CIRCLE ( 'NONE', #22, 6.500000000000000888 ) ;
#121 = ORIENTED_EDGE ( 'NONE', *, *, #154, .T. ) ;
#122 = AXIS2_PLACEMENT_3D ( 'NONE', #211, #208, #40 ) ;
#123 = ORIENTED_EDGE ( 'NONE', *, *, #51, .T. ) ;
#124 = PRODUCT_DEFINITION_SHAPE ( 'NONE', 'NONE',  #112 ) ;
#125 = CARTESIAN_POINT ( 'NONE',  ( 0.000000000000000000, 0.000000000000000000, 0.000000000000000000 ) ) ;
#126 = CARTESIAN_POINT ( 'NONE',  ( 0.000000000000000000, 5.000000000000000000, -3.500000000000000000 ) ) ;
#127 = ADVANCED_FACE ( 'NONE', ( #113 ), #12, .F. ) ;
#128 = CIRCLE ( 'NONE', #74, 3.500000000000000000 ) ;
#129 = FACE_BOUND ( 'NONE', #16, .T. ) ;
#130 = LINE ( 'NONE', #196, #64 ) ;
#131 = PLANE ( 'NONE',  #4 ) ;
#132 = CARTESIAN_POINT ( 'NONE',  ( 0.000000000000000000, 5.000000000000000000, -6.500000000000000888 ) ) ;
#133 = PRESENTATION_STYLE_ASSIGNMENT (( #54 ) ) ;
#134 = PRODUCT_CONTEXT ( 'NONE', #182, 'mechanical' ) ;
#135 = AXIS2_PLACEMENT_3D ( 'NONE', #75, #192, #94 ) ;
#136 = ORIENTED_EDGE ( 'NONE', *, *, #98, .F. ) ;
#137 = ORIENTED_EDGE ( 'NONE', *, *, #80, .T. ) ;
#138 =( BOUNDED_CURVE ( )  B_SPLINE_CURVE ( 3, ( #24, #173, #46, #20 ),
 .UNSPECIFIED., .F., .F. ) 
 B_SPLINE_CURVE_WITH_KNOTS ( ( 4, 4 ),
 ( 3.141592653589793116, 6.283185307179586232 ),
 .UNSPECIFIED. ) 
 CURVE ( )  GEOMETRIC_REPRESENTATION_ITEM ( )  RATIONAL_B_SPLINE_CURVE ( ( 1.000000000000000000, 0.3333333333333333703, 0.3333333333333333703, 1.000000000000000000 ) ) 
 REPRESENTATION_ITEM ( '' )  );
#139 =( LENGTH_UNIT ( ) NAMED_UNIT ( * ) SI_UNIT ( .MILLI., .METRE. ) );
#140 = EDGE_CURVE ( 'NONE', #206, #214, #130, .T. ) ;
#141 = CARTESIAN_POINT ( 'NONE',  ( 0.000000000000000000, 5.000000000000000000, 0.000000000000000000 ) ) ;
#142 = FACE_OUTER_BOUND ( 'NONE', #100, .T. ) ;
#143 = FILL_AREA_STYLE_COLOUR ( '', #213 ) ;
#144 = LINE ( 'NONE', #178, #158 ) ;
#145 = CARTESIAN_POINT ( 'NONE',  ( 7.960204194457796463E-16, 0.000000000000000000, 6.500000000000000888 ) ) ;
#146 = DIRECTION ( 'NONE',  ( 0.000000000000000000, 0.000000000000000000, 1.000000000000000000 ) ) ;
#147 = DIRECTION ( 'NONE',  ( 0.000000000000000000, 1.000000000000000000, 0.000000000000000000 ) ) ;
#148 = VERTEX_POINT ( 'NONE', #132 ) ;
#149 = ORIENTED_EDGE ( 'NONE', *, *, #76, .T. ) ;
#150 = ORIENTED_EDGE ( 'NONE', *, *, #117, .F. ) ;
#151 = DIRECTION ( 'NONE',  ( 0.000000000000000000, 0.000000000000000000, 1.000000000000000000 ) ) ;
#152 = COLOUR_RGB ( '',0.7921568627450980005, 0.8196078431372548767, 0.9333333333333333481 ) ;
#153 = SURFACE_STYLE_FILL_AREA ( #203 ) ;
#154 = EDGE_CURVE ( 'NONE', #32, #102, #69, .T. ) ;
#155 = DIRECTION ( 'NONE',  ( 0.000000000000000000, 0.2588190451025215166, -0.9659258262890680902 ) ) ;
#156 = UNCERTAINTY_MEASURE_WITH_UNIT (LENGTH_MEASURE( 1.000000000000000082E-05 ), #27, 'distance_accuracy_value', 'NONE');
#157 = DIRECTION ( 'NONE',  ( 0.000000000000000000, 0.000000000000000000, -1.000000000000000000 ) ) ;
#158 = VECTOR ( 'NONE', #28, 1000.000000000000000 ) ;
#159 =( NAMED_UNIT ( * ) SI_UNIT ( $, .STERADIAN. ) SOLID_ANGLE_UNIT ( ) );
#160 = DIRECTION ( 'NONE',  ( 0.000000000000000000, 0.000000000000000000, -1.000000000000000000 ) ) ;
#161 =( BOUNDED_CURVE ( )  B_SPLINE_CURVE ( 3, ( #53, #179, #197, #8 ),
 .UNSPECIFIED., .F., .F. ) 
 B_SPLINE_CURVE_WITH_KNOTS ( ( 4, 4 ),
 ( 0.000000000000000000, 3.141592653589793116 ),
 .UNSPECIFIED. ) 
 CURVE ( )  GEOMETRIC_REPRESENTATION_ITEM ( )  RATIONAL_B_SPLINE_CURVE ( ( 1.000000000000000000, 0.3333333333333333703, 0.3333333333333333703, 1.000000000000000000 ) ) 
 REPRESENTATION_ITEM ( '' )  );
#162 = DIRECTION ( 'NONE',  ( -0.000000000000000000, -1.000000000000000000, -0.000000000000000000 ) ) ;
#163 = SURFACE_STYLE_FILL_AREA ( #41 ) ;
#164 = DIRECTION ( 'NONE',  ( 0.000000000000000000, 1.000000000000000000, 0.000000000000000000 ) ) ;
#165 = ADVANCED_FACE ( 'NONE', ( #26 ), #111, .T. ) ;
#166 = CARTESIAN_POINT ( 'NONE',  ( 4.286263797015736595E-16, 0.000000000000000000, 3.500000000000000000 ) ) ;
#167 = ORIENTED_EDGE ( 'NONE', *, *, #10, .T. ) ;
#168 = CIRCLE ( 'NONE', #63, 6.500000000000000888 ) ;
#169 = EDGE_LOOP ( 'NONE', ( #202, #167, #171, #183 ) ) ;
#170 = EDGE_LOOP ( 'NONE', ( #90, #136 ) ) ;
#171 = ORIENTED_EDGE ( 'NONE', *, *, #154, .F. ) ;
#172 = DIRECTION ( 'NONE',  ( -0.000000000000000000, -1.000000000000000000, -0.000000000000000000 ) ) ;
#173 = CARTESIAN_POINT ( 'NONE',  ( 7.000000000000000888, 4.196152422706629359, -3.500000000000001332 ) ) ;
#174 = CARTESIAN_POINT ( 'NONE',  ( 4.286263797015736595E-16, 2.320508075688763938, 3.500000000000000000 ) ) ;
#175 = CARTESIAN_POINT ( 'NONE',  ( 4.286263797015736595E-16, 5.000000000000000000, 3.500000000000000000 ) ) ;
#176 = AXIS2_PLACEMENT_3D ( 'NONE', #119, #151, #2 ) ;
#177 =( NAMED_UNIT ( * ) PLANE_ANGLE_UNIT ( ) SI_UNIT ( $, .RADIAN. ) );
#178 = CARTESIAN_POINT ( 'NONE',  ( 0.000000000000000000, 5.000000000000000000, -6.500000000000000888 ) ) ;
#179 = CARTESIAN_POINT ( 'NONE',  ( -13.00000000000000355, 1.516660498395393075, 6.500000000000001776 ) ) ;
#180 = ORIENTED_EDGE ( 'NONE', *, *, #10, .F. ) ;
#181 = STYLED_ITEM ( 'NONE', ( #133 ), #109 ) ;
#182 = APPLICATION_CONTEXT ( 'automotive_design' ) ;
#183 = ORIENTED_EDGE ( 'NONE', *, *, #82, .F. ) ;
#184 = VECTOR ( 'NONE', #172, 1000.000000000000000 ) ;
#185 = DIRECTION ( 'NONE',  ( 0.000000000000000000, 0.000000000000000000, 1.000000000000000000 ) ) ;
#186 = DIRECTION ( 'NONE',  ( 0.000000000000000000, 1.000000000000000000, 0.000000000000000000 ) ) ;
#187 = DIRECTION ( 'NONE',  ( -0.000000000000000000, -1.000000000000000000, -0.000000000000000000 ) ) ;
#188 = ADVANCED_FACE ( 'NONE', ( #96 ), #108, .T. ) ;
#189 = CARTESIAN_POINT ( 'NONE',  ( 0.000000000000000000, 0.000000000000000000, -6.500000000000000888 ) ) ;
#190 = CARTESIAN_POINT ( 'NONE',  ( 10.00000000000000000, 3.040063509461089719, 0.8145825622994262716 ) ) ;
#191 = EDGE_CURVE ( 'NONE', #206, #148, #161, .T. ) ;
#192 = DIRECTION ( 'NONE',  ( -0.000000000000000000, -1.000000000000000000, -0.000000000000000000 ) ) ;
#193 = DIRECTION ( 'NONE',  ( 0.000000000000000000, -0.000000000000000000, 1.000000000000000000 ) ) ;
#194 = VECTOR ( 'NONE', #187, 1000.000000000000000 ) ;
#195 = PRESENTATION_LAYER_ASSIGNMENT (  '', '', ( #181 ) ) ;
#196 = CARTESIAN_POINT ( 'NONE',  ( 7.960204194457796463E-16, 5.000000000000000000, 6.500000000000000888 ) ) ;
#197 = CARTESIAN_POINT ( 'NONE',  ( -13.00000000000000355, 5.000000000000000000, -6.499999999999999112 ) ) ;
#198 = MECHANICAL_DESIGN_GEOMETRIC_PRESENTATION_REPRESENTATION (  '', ( #181 ), #29 ) ;
#199 = ORIENTED_EDGE ( 'NONE', *, *, #117, .T. ) ;
#200 = ORIENTED_EDGE ( 'NONE', *, *, #23, .T. ) ;
#201 = ORIENTED_EDGE ( 'NONE', *, *, #42, .T. ) ;
#202 = ORIENTED_EDGE ( 'NONE', *, *, #23, .F. ) ;
#203 = FILL_AREA_STYLE ('',( #143 ) ) ;
#204 = DIRECTION ( 'NONE',  ( -0.000000000000000000, -1.000000000000000000, -0.000000000000000000 ) ) ;
#205 = CARTESIAN_POINT ( 'NONE',  ( 7.960204194457796463E-16, 1.516660498395393075, 6.500000000000000888 ) ) ;
#206 = VERTEX_POINT ( 'NONE', #71 ) ;
#207 = FACE_OUTER_BOUND ( 'NONE', #45, .T. ) ;
#208 = DIRECTION ( 'NONE',  ( -0.000000000000000000, -1.000000000000000000, -0.000000000000000000 ) ) ;
#209 =( NAMED_UNIT ( * ) PLANE_ANGLE_UNIT ( ) SI_UNIT ( $, .RADIAN. ) );
#210 = CLOSED_SHELL ( 'NONE', ( #127, #165, #87, #188, #70, #59 ) ) ;
#211 = CARTESIAN_POINT ( 'NONE',  ( 0.000000000000000000, 5.000000000000000000, 0.000000000000000000 ) ) ;
#212 = ORIENTED_EDGE ( 'NONE', *, *, #191, .T. ) ;
#213 = COLOUR_RGB ( '',0.7921568627450980005, 0.8196078431372548767, 0.9333333333333333481 ) ;
#214 = VERTEX_POINT ( 'NONE', #145 ) ;
ENDSEC;
END-ISO-10303-21;
