  0
SECTION
  2
HEADER
  9
$ACADVER
  1
AC1015
  9
$ACADMAINTVER
 70
     6
  9
$DWGCODEPAGE
  3
ANSI_1252
  9
$INSBASE
 10
0.0
 20
0.0
 30
0.0
  9
$EXTMIN
 10
0.0
 20
0.0
 30
0.0
  9
$EXTMAX
 10
420.0
 20
297.0
 30
0.0
  9
$LIMMIN
 10
0.0
 20
0.0
  9
$LIMMAX
 10
420.0
 20
297.0
  9
$ORTHOMODE
 70
     0
  9
$REGENMODE
 70
     1
  9
$FILLMODE
 70
     1
  9
$QTEXTMODE
 70
     0
  9
$MIRRTEXT
 70
     1
  9
$LTSCALE
 40
1.0
  9
$ATTMODE
 70
     1
  9
$TEXTSIZE
 40
3.5
  9
$TRACEWID
 40
1.0
  9
$TEXTSTYLE
  7
Standard
  9
$CLAYER
  8
0
  9
$CELTYPE
  6
ByLayer
  9
$CECOLOR
 62
   256
  9
$CELTSCALE
 40
1.0
  9
$DISPSILH
 70
     0
  9
$DIMSCALE
 40
1.0
  9
$DIMASZ
 40
3.302
  9
$DIMEXO
 40
1.0
  9
$DIMDLI
 40
3.75
  9
$DIMRND
 40
0.0
  9
$DIMDLE
 40
0.0
  9
$DIMEXE
 40
1.0
  9
$DIMTP
 40
0.0
  9
$DIMTM
 40
0.0
  9
$DIMTXT
 40
3.5
  9
$DIMCEN
 40
2.5
  9
$DIMTSZ
 40
0.0
  9
$DIMTOL
 70
     0
  9
$DIMLIM
 70
     0
  9
$DIMTIH
 70
     1
  9
$DIMTOH
 70
     1
  9
$DIMSE1
 70
     0
  9
$DIMSE2
 70
     0
  9
$DIMTAD
 70
     1
  9
$DIMZIN
 70
     1
  9
$DIMBLK
  1

  9
$DIMASO
 70
     1
  9
$DIMSHO
 70
     1
  9
$DIMPOST
  1

  9
$DIMAPOST
  1

  9
$DIMALT
 70
     0
  9
$DIMALTD
 70
     3
  9
$DIMALTF
 40
0.0393700787
  9
$DIMLFAC
 40
1.0
  9
$DIMTOFL
 70
     1
  9
$DIMTVP
 40
0.0
  9
$DIMTIX
 70
     0
  9
$DIMSOXD
 70
     0
  9
$DIMSAH
 70
     0
  9
$DIMBLK1
  1

  9
$DIMBLK2
  1

  9
$DIMSTYLE
  2
ISO-25
  9
$DIMCLRD
 70
     0
  9
$DIMCLRE
 70
     0
  9
$DIMCLRT
 70
     0
  9
$DIMTFAC
 40
1.0
  9
$DIMGAP
 40
1.524
  9
$DIMJUST
 70
     0
  9
$DIMSD1
 70
     0
  9
$DIMSD2
 70
     0
  9
$DIMTOLJ
 70
     0
  9
$DIMTZIN
 70
     1
  9
$DIMALTZ
 70
     0
  9
$DIMALTTZ
 70
     0
  9
$DIMUPT
 70
     0
  9
$DIMDEC
 70
     2
  9
$DIMTDEC
 70
     2
  9
$DIMALTU
 70
     2
  9
$DIMALTTD
 70
     3
  9
$DIMTXSTY
  7
Standard
  9
$DIMAUNIT
 70
     0
  9
$DIMADEC
 70
     2
  9
$DIMALTRND
 40
0.0
  9
$DIMAZIN
 70
     0
  9
$DIMDSEP
 70
    44
  9
$DIMATFIT
 70
     3
  9
$DIMFRAC
 70
     0
  9
$DIMLDRBLK
  1

  9
$DIMLUNIT
 70
     2
  9
$DIMLWD
 70
    -2
  9
$DIMLWE
 70
    -2
  9
$DIMTMOVE
 70
     0
  9
$LUNITS
 70
     2
  9
$LUPREC
 70
     2
  9
$SKETCHINC
 40
1.0
  9
$FILLETRAD
 40
0.0
  9
$AUNITS
 70
     0
  9
$AUPREC
 70
     2
  9
$MENU
  1
.
  9
$ELEVATION
 40
0.0
  9
$PELEVATION
 40
0.0
  9
$THICKNESS
 40
0.0
  9
$LIMCHECK
 70
     0
  9
$CHAMFERA
 40
0.0
  9
$CHAMFERB
 40
0.0
  9
$CHAMFERC
 40
0.0
  9
$CHAMFERD
 40
0.0
  9
$SKPOLY
 70
     0
  9
$TDCREATE
 40
2460328.607175312
  9
$TDUCREATE
 40
2460328.607175312
  9
$TDUPDATE
 40
2460328.607175937
  9
$TDUUPDATE
 40
2460328.607175937
  9
$TDINDWG
 40
0.0000000116
  9
$TDUSRTIMER
 40
0.0000000116
  9
$USRTIMER
 70
     1
  9
$ANGBASE
 50
0.0
  9
$ANGDIR
 70
     0
  9
$PDMODE
 70
     0
  9
$PDSIZE
 40
-1.0
  9
$PLINEWID
 40
0.0
  9
$SPLFRAME
 70
     0
  9
$SPLINETYPE
 70
     6
  9
$SPLINESEGS
 70
     8
  9
$HANDSEED
  5
273
  9
$SURFTAB1
 70
     6
  9
$SURFTAB2
 70
     6
  9
$SURFTYPE
 70
     6
  9
$SURFU
 70
     6
  9
$SURFV
 70
     6
  9
$UCSBASE
  2

  9
$UCSNAME
  2

  9
$UCSORG
 10
0.0
 20
0.0
 30
0.0
  9
$UCSXDIR
 10
1.0
 20
0.0
 30
0.0
  9
$UCSYDIR
 10
0.0
 20
1.0
 30
0.0
  9
$UCSORTHOREF
  2

  9
$UCSORTHOVIEW
 70
     0
  9
$UCSORGTOP
 10
0.0
 20
0.0
 30
0.0
  9
$UCSORGBOTTOM
 10
0.0
 20
0.0
 30
0.0
  9
$UCSORGLEFT
 10
0.0
 20
0.0
 30
0.0
  9
$UCSORGRIGHT
 10
0.0
 20
0.0
 30
0.0
  9
$UCSORGFRONT
 10
0.0
 20
0.0
 30
0.0
  9
$UCSORGBACK
 10
0.0
 20
0.0
 30
0.0
  9
$PUCSBASE
  2

  9
$PUCSNAME
  2

  9
$PUCSORG
 10
0.0
 20
0.0
 30
0.0
  9
$PUCSXDIR
 10
1.0
 20
0.0
 30
0.0
  9
$PUCSYDIR
 10
0.0
 20
1.0
 30
0.0
  9
$PUCSORTHOREF
  2

  9
$PUCSORTHOVIEW
 70
     0
  9
$PUCSORGTOP
 10
0.0
 20
0.0
 30
0.0
  9
$PUCSORGBOTTOM
 10
0.0
 20
0.0
 30
0.0
  9
$PUCSORGLEFT
 10
0.0
 20
0.0
 30
0.0
  9
$PUCSORGRIGHT
 10
0.0
 20
0.0
 30
0.0
  9
$PUCSORGFRONT
 10
0.0
 20
0.0
 30
0.0
  9
$PUCSORGBACK
 10
0.0
 20
0.0
 30
0.0
  9
$USERI1
 70
     0
  9
$USERI2
 70
     0
  9
$USERI3
 70
     0
  9
$USERI4
 70
     0
  9
$USERI5
 70
     0
  9
$USERR1
 40
0.0
  9
$USERR2
 40
0.0
  9
$USERR3
 40
0.0
  9
$USERR4
 40
0.0
  9
$USERR5
 40
0.0
  9
$WORLDVIEW
 70
     1
  9
$SHADEDGE
 70
     3
  9
$SHADEDIF
 70
    70
  9
$TILEMODE
 70
     1
  9
$MAXACTVP
 70
    64
  9
$PINSBASE
 10
0.0
 20
0.0
 30
0.0
  9
$PLIMCHECK
 70
     0
  9
$PEXTMIN
 10
1.0000000000E+20
 20
1.0000000000E+20
 30
1.0000000000E+20
  9
$PEXTMAX
 10
-1.0000000000E+20
 20
-1.0000000000E+20
 30
-1.0000000000E+20
  9
$PLIMMIN
 10
0.0
 20
0.0
  9
$PLIMMAX
 10
420.0
 20
297.0
  9
$UNITMODE
 70
     0
  9
$VISRETAIN
 70
     1
  9
$PLINEGEN
 70
     0
  9
$PSLTSCALE
 70
     1
  9
$TREEDEPTH
 70
  3020
  9
$CMLSTYLE
  2
Standard
  9
$CMLJUST
 70
     0
  9
$CMLSCALE
 40
20.0
  9
$PROXYGRAPHICS
 70
     1
  9
$MEASUREMENT
 70
     1
  9
$CELWEIGHT
370
    -1
  9
$ENDCAPS
280
     0
  9
$JOINSTYLE
280
     0
  9
$LWDISPLAY
290
     1
  9
$INSUNITS
 70
     4
  9
$HYPERLINKBASE
  1

  9
$STYLESHEET
  1

  9
$XEDIT
290
     1
  9
$CEPSNTYPE
380
     0
  9
$PSTYLEMODE
290
     1
  9
$FINGERPRINTGUID
  2
{cf9e0754-7231-4e30-9cd7-b01108882d08}
  9
$VERSIONGUID
  2
{FAEB1C32-E019-11D5-929B-00C0DF256EC4}
  9
$EXTNAMES
290
     1
  9
$PSVPSCALE
 40
0.0
  9
$OLESTARTUP
290
     0
  0
ENDSEC
  0
SECTION
  2
CLASSES
  0
CLASS
  1
ACDBDICTIONARYWDFLT
  2
AcDbDictionaryWithDefault
  3
ObjectDBX Classes
 90
        0
280
     0
281
     0
  0
CLASS
  1
VISUALSTYLE
  2
AcDbVisualStyle
  3
ObjectDBX Classes
 90
     4095
280
     0
281
     0
  0
CLASS
  1
MATERIAL
  2
AcDbMaterial
  3
ObjectDBX Classes
 90
     1153
280
     0
281
     0
  0
CLASS
  1
SCALE
  2
AcDbScale
  3
ObjectDBX Classes
 90
     1153
280
     0
281
     0
  0
CLASS
  1
TABLESTYLE
  2
AcDbTableStyle
  3
ObjectDBX Classes
 90
     4095
280
     0
281
     0
  0
CLASS
  1
MLEADERSTYLE
  2
AcDbMLeaderStyle
  3
ACDB_MLEADERSTYLE_CLASS
 90
     4095
280
     0
281
     0
  0
CLASS
  1
SUN
  2
AcDbSun
  3
SCENEOE
 90
     1153
280
     0
281
     0
  0
CLASS
  1
ACDBPLACEHOLDER
  2
AcDbPlaceHolder
  3
ObjectDBX Classes
 90
        0
280
     0
281
     0
  0
CLASS
  1
LAYOUT
  2
AcDbLayout
  3
ObjectDBX Classes
 90
        0
280
     0
281
     0
  0
ENDSEC
  0
SECTION
  2
TABLES
  0
TABLE
  2
VPORT
  5
8
330
0
100
AcDbSymbolTable
 70
     1
  0
VPORT
  5
29
330
8
100
AcDbSymbolTableRecord
100
AcDbViewportTableRecord
  2
*Active
 70
     0
 10
0.0
 20
0.0
 11
1.0
 21
1.0
 12
210.0
 22
148.5
 13
0.0
 23
0.0
 14
10.0
 24
10.0
 15
10.0
 25
10.0
 16
0.0
 26
0.0
 36
1.0
 17
0.0
 27
0.0
 37
0.0
 40
297.0
 41
1.4141414141
 42
50.0
 43
0.0
 44
0.0
 50
0.0
 51
0.0
 71
     0
 72
  2000
 73
     1
 74
     3
 75
     0
 76
     0
 77
     0
 78
     0
281
     0
 65
     1
110
0.0
120
0.0
130
0.0
111
1.0
121
0.0
131
0.0
112
0.0
122
1.0
132
0.0
 79
     0
146
0.0
  0
ENDTAB
  0
TABLE
  2
LTYPE
  5
5
330
0
100
AcDbSymbolTable
 70
     6
  0
LTYPE
  5
14
330
5
100
AcDbSymbolTableRecord
100
AcDbLinetypeTableRecord
  2
ByBlock
 70
     0
  3

 72
    65
 73
     0
 40
0.0
  0
LTYPE
  5
15
330
5
100
AcDbSymbolTableRecord
100
AcDbLinetypeTableRecord
  2
ByLayer
 70
     0
  3

 72
    65
 73
     0
 40
0.0
  0
LTYPE
  5
16
330
5
100
AcDbSymbolTableRecord
100
AcDbLinetypeTableRecord
  2
Continuous
 70
     0
  3
Solid line
 72
    65
 73
     0
 40
0.0
  0
LTYPE
  5
5E
330
5
100
AcDbSymbolTableRecord
100
AcDbLinetypeTableRecord
  2
HIDDEN
 70
     0
  3
Hidden __ __ __ __ __ __ __ __ __ __ __ __ __ __
 72
    65
 73
     2
 40
1.905
 49
1.27
 74
     0
 49
-0.635
 74
     0
  0
LTYPE
  5
5F
330
5
100
AcDbSymbolTableRecord
100
AcDbLinetypeTableRecord
  2
PHANTOM
 70
     0
  3
Phantom ______  __  __  ______  __  __  ______
 72
    65
 73
     6
 40
12.7
 49
6.35
 74
     0
 49
-1.27
 74
     0
 49
1.27
 74
     0
 49
-1.27
 74
     0
 49
1.27
 74
     0
 49
-1.27
 74
     0
  0
LTYPE
  5
60
330
5
100
AcDbSymbolTableRecord
100
AcDbLinetypeTableRecord
  2
CENTER
 70
     0
  3
Center ____ _ ____ _ ____ _ ____ _ ____ _ ____
 72
    65
 73
     4
 40
10.16
 49
6.35
 74
     0
 49
-1.27
 74
     0
 49
1.27
 74
     0
 49
-1.27
 74
     0
  0
LTYPE
  5
61
330
5
100
AcDbSymbolTableRecord
100
AcDbLinetypeTableRecord
  2
CENTERX2
 70
     0
  3
Center (2x) ________  __  ________  __  _____
 72
    65
 73
     4
 40
20.32
 49
12.7
 74
     0
 49
-2.54
 74
     0
 49
2.54
 74
     0
 49
-2.54
 74
     0
  0
LTYPE
  5
62
330
5
100
AcDbSymbolTableRecord
100
AcDbLinetypeTableRecord
  2
DOT2
 70
     0
  3
Dot (.5x) ........................................
 72
    65
 73
     2
 40
0.635
 49
0.0
 74
     0
 49
-0.635
 74
     0
  0
ENDTAB
  0
TABLE
  2
LAYER
  5
2
330
0
100
AcDbSymbolTable
 70
     1
  0
LAYER
  5
10
330
2
100
AcDbSymbolTableRecord
100
AcDbLayerTableRecord
  2
0
 70
     0
 62
     7
  6
Continuous
370
    -3
390
F
  0
ENDTAB
  0
TABLE
  2
STYLE
  5
3
330
0
100
AcDbSymbolTable
 70
     1
  0
STYLE
  5
11
330
3
100
AcDbSymbolTableRecord
100
AcDbTextStyleTableRecord
  2
Standard
 70
     0
 40
0.0
 41
1.0
 50
0.0
 71
     0
 42
3.5
  3
txt
  4

  0
ENDTAB
  0
TABLE
  2
VIEW
  5
6
330
0
100
AcDbSymbolTable
 70
     0
  0
ENDTAB
  0
TABLE
  2
UCS
  5
7
330
0
100
AcDbSymbolTable
 70
     0
  0
ENDTAB
  0
TABLE
  2
APPID
  5
9
330
0
100
AcDbSymbolTable
 70
     1
  0
APPID
  5
12
330
9
100
AcDbSymbolTableRecord
100
AcDbRegAppTableRecord
  2
ACAD
 70
     0
  0
ENDTAB
  0
TABLE
  2
DIMSTYLE
  5
A
330
0
100
AcDbSymbolTable
 70
     1
100
AcDbDimStyleTable
  0
DIMSTYLE
105
27
330
A
100
AcDbSymbolTableRecord
100
AcDbDimStyleTableRecord
  2
ISO-25
 70
     0
 41
2.5
 42
0.625
 43
3.75
 44
1.25
 73
     0
 74
     0
 77
     1
 78
     8
140
2.5
141
2.5
143
0.0393700787
147
0.625
171
     3
172
     1
178
     0
271
     2
272
     2
274
     3
278
    44
283
     0
284
     8
340
11
  0
ENDTAB
  0
TABLE
  2
BLOCK_RECORD
  5
1
330
0
100
AcDbSymbolTable
 70
     1
  0
BLOCK_RECORD
  5
1F
330
1
100
AcDbSymbolTableRecord
100
AcDbBlockTableRecord
  2
*Model_Space
340
22
  0
BLOCK_RECORD
  5
1B
330
1
100
AcDbSymbolTableRecord
100
AcDbBlockTableRecord
  2
*Paper_Space
340
1E
  0
BLOCK_RECORD
  5
23
330
1
100
AcDbSymbolTableRecord
100
AcDbBlockTableRecord
  2
*Paper_Space0
340
26
  0
ENDTAB
  0
ENDSEC
  0
SECTION
  2
BLOCKS
  0
BLOCK
  5
20
330
1F
100
AcDbEntity
  8
0
100
AcDbBlockBegin
  2
*Model_Space
 70
     0
 10
0.0
 20
0.0
 30
0.0
  3
*Model_Space
  1

  0
ENDBLK
  5
21
330
1F
100
AcDbEntity
  8
0
100
AcDbBlockEnd
  0
BLOCK
  5
1C
330
1B
100
AcDbEntity
 67
     1
  8
0
100
AcDbBlockBegin
  2
*Paper_Space
 70
     0
 10
0.0
 20
0.0
 30
0.0
  3
*Paper_Space
  1

  0
ENDBLK
  5
1D
330
1B
100
AcDbEntity
 67
     1
  8
0
100
AcDbBlockEnd
  0
BLOCK
  5
24
330
23
100
AcDbEntity
  8
0
100
AcDbBlockBegin
  2
*Paper_Space0
 70
     0
 10
0.0
 20
0.0
 30
0.0
  3
*Paper_Space0
  1

  0
ENDBLK
  5
25
330
23
100
AcDbEntity
  8
0
100
AcDbBlockEnd
  0
ENDSEC
  0
SECTION
  2
ENTITIES
  0
LINE
  5
63
330
1F
100
AcDbEntity
  8
0
  6
Continuous
 62
     7
370
    25
100
AcDbLine
 10
89.6356255175
 20
117.9880704505
 30
0.0
 11
95.6356255175
 21
117.9880704505
 31
0.0
  0
LINE
  5
64
330
1F
100
AcDbEntity
  8
0
  6
Continuous
 62
     7
370
    25
100
AcDbLine
 10
89.6356255175
 20
114.5880704505
 30
0.0
 11
89.6356255175
 21
117.9880704505
 31
0.0
  0
LINE
  5
65
330
1F
100
AcDbEntity
  8
0
  6
Continuous
 62
     7
370
    25
100
AcDbLine
 10
89.6356255175
 20
114.5880704505
 30
0.0
 11
95.6356255175
 21
114.5880704505
 31
0.0
  0
LINE
  5
66
330
1F
100
AcDbEntity
  8
0
  6
Continuous
 62
     7
370
    25
100
AcDbLine
 10
95.6356255175
 20
114.5880704505
 30
0.0
 11
95.6356255175
 21
111.7880704505
 31
0.0
  0
LINE
  5
67
330
1F
100
AcDbEntity
  8
0
  6
Continuous
 62
     7
370
    25
100
AcDbLine
 10
145.6356255175
 20
111.7880704505
 30
0.0
 11
95.6356255175
 21
111.7880704505
 31
0.0
  0
LINE
  5
68
330
1F
100
AcDbEntity
  8
0
  6
Continuous
 62
     7
370
    25
100
AcDbLine
 10
145.6356255175
 20
114.5880704505
 30
0.0
 11
145.6356255175
 21
111.7880704505
 31
0.0
  0
LINE
  5
69
330
1F
100
AcDbEntity
  8
0
  6
Continuous
 62
     7
370
    25
100
AcDbLine
 10
150.6356255175
 20
114.5880704505
 30
0.0
 11
145.6356255175
 21
114.5880704505
 31
0.0
  0
LINE
  5
6A
330
1F
100
AcDbEntity
  8
0
  6
Continuous
 62
     7
370
    25
100
AcDbLine
 10
150.6356255175
 20
114.5880704505
 30
0.0
 11
150.6356255175
 21
117.9880704505
 31
0.0
  0
LINE
  5
6B
330
1F
100
AcDbEntity
  8
0
  6
Continuous
 62
     7
370
    25
100
AcDbLine
 10
150.6356255175
 20
117.9880704505
 30
0.0
 11
145.6356255175
 21
117.9880704505
 31
0.0
  0
LINE
  5
6C
330
1F
100
AcDbEntity
  8
0
  6
Continuous
 62
     7
370
    25
100
AcDbLine
 10
145.6356255175
 20
119.7880704505
 30
0.0
 11
145.6356255175
 21
117.9880704505
 31
0.0
  0
LINE
  5
6D
330
1F
100
AcDbEntity
  8
0
  6
Continuous
 62
     7
370
    25
100
AcDbLine
 10
145.6356255175
 20
119.7880704505
 30
0.0
 11
95.6356255175
 21
119.7880704505
 31
0.0
  0
LINE
  5
6E
330
1F
100
AcDbEntity
  8
0
  6
Continuous
 62
     7
370
    25
100
AcDbLine
 10
95.6356255175
 20
119.7880704505
 30
0.0
 11
95.6356255175
 21
117.9880704505
 31
0.0
  0
LINE
  5
6F
330
1F
100
AcDbEntity
  8
0
  6
Continuous
 62
     7
370
    25
100
AcDbLine
 10
140.4356255175
 20
89.7880704505
 30
0.0
 11
149.6356255175
 21
89.7880704505
 31
0.0
  0
LINE
  5
70
330
1F
100
AcDbEntity
  8
0
  6
Continuous
 62
     7
370
    25
100
AcDbLine
 10
140.4356255175
 20
86.7880704505
 30
0.0
 11
140.4356255175
 21
89.7880704505
 31
0.0
  0
LINE
  5
71
330
1F
100
AcDbEntity
  8
0
  6
Continuous
 62
     7
370
    25
100
AcDbLine
 10
132.5956255175
 20
86.7880704505
 30
0.0
 11
140.4356255175
 21
86.7880704505
 31
0.0
  0
LINE
  5
72
330
1F
100
AcDbEntity
  8
0
  6
Continuous
 62
     7
370
    25
100
AcDbLine
 10
132.5956255175
 20
89.7880704505
 30
0.0
 11
132.5956255175
 21
86.7880704505
 31
0.0
  0
LINE
  5
73
330
1F
100
AcDbEntity
  8
0
  6
Continuous
 62
     7
370
    25
100
AcDbLine
 10
106.9356255175
 20
89.7880704505
 30
0.0
 11
132.5956255175
 21
89.7880704505
 31
0.0
  0
LINE
  5
74
330
1F
100
AcDbEntity
  8
0
  6
Continuous
 62
     7
370
    25
100
AcDbLine
 10
106.9356255175
 20
89.7880704505
 30
0.0
 11
106.9356255175
 21
86.7880704505
 31
0.0
  0
LINE
  5
75
330
1F
100
AcDbEntity
  8
0
  6
Continuous
 62
     7
370
    25
100
AcDbLine
 10
99.0956255175
 20
86.7880704505
 30
0.0
 11
106.9356255175
 21
86.7880704505
 31
0.0
  0
LINE
  5
76
330
1F
100
AcDbEntity
  8
0
  6
Continuous
 62
     7
370
    25
100
AcDbLine
 10
99.0956255175
 20
86.7880704505
 30
0.0
 11
99.0956255175
 21
89.7880704505
 31
0.0
  0
LINE
  5
77
330
1F
100
AcDbEntity
  8
0
  6
Continuous
 62
     7
370
    25
100
AcDbLine
 10
85.6356255175
 20
89.7880704505
 30
0.0
 11
99.0956255175
 21
89.7880704505
 31
0.0
  0
LINE
  5
78
330
1F
100
AcDbEntity
  8
0
  6
Continuous
 62
     7
370
    25
100
AcDbLine
 10
85.6356255175
 20
89.7880704505
 30
0.0
 11
85.6356255175
 21
117.7880704505
 31
0.0
  0
LINE
  5
79
330
1F
100
AcDbEntity
  8
0
  6
Continuous
 62
     7
370
    25
100
AcDbLine
 10
99.6356255175
 20
134.6531002296
 30
0.0
 11
85.6356255175
 21
117.7880704505
 31
0.0
  0
LINE
  5
7A
330
1F
100
AcDbEntity
  8
0
  6
Continuous
 62
     7
370
    25
100
AcDbLine
 10
175.4758444848
 20
153.6376338322
 30
0.0
 11
99.6356255175
 21
134.6531002296
 31
0.0
  0
LINE
  5
7B
330
1F
100
AcDbEntity
  8
0
  6
Continuous
 62
     7
370
    25
100
AcDbLine
 10
175.4758444848
 20
153.6376338322
 30
0.0
 11
153.9039963731
 21
109.7402588389
 31
0.0
  0
LINE
  5
7C
330
1F
100
AcDbEntity
  8
0
  6
Continuous
 62
     7
370
    25
100
AcDbLine
 10
149.6356255175
 20
94.6905451271
 30
0.0
 11
153.9039963731
 21
109.7402588389
 31
0.0
  0
LINE
  5
7D
330
1F
100
AcDbEntity
  8
0
  6
Continuous
 62
     7
370
    25
100
AcDbLine
 10
149.6356255175
 20
89.7880704505
 30
0.0
 11
149.6356255175
 21
94.6905451271
 31
0.0
  0
LINE
  5
7E
330
1F
100
AcDbEntity
  8
0
  6
Continuous
 62
     7
370
    25
100
AcDbLine
 10
155.2024035163
 20
140.1550312482
 30
0.0
 11
159.0414059202
 21
136.745976761
 31
0.0
  0
LINE
  5
7F
330
1F
100
AcDbEntity
  8
0
  6
Continuous
 62
     7
370
    25
100
AcDbLine
 10
159.0414059202
 20
136.745976761
 30
0.0
 11
157.6918986827
 21
136.4067630543
 31
0.0
  0
LINE
  5
80
330
1F
100
AcDbEntity
  8
0
  6
Continuous
 62
     7
370
    25
100
AcDbLine
 10
157.6918986827
 20
136.4067630543
 30
0.0
 11
158.2347612146
 21
134.2442950365
 31
0.0
  0
LINE
  5
81
330
1F
100
AcDbEntity
  8
0
  6
Continuous
 62
     7
370
    25
100
AcDbLine
 10
158.2347612146
 20
134.2442950365
 30
0.0
 11
162.1375397343
 21
135.2246225944
 31
0.0
  0
LINE
  5
82
330
1F
100
AcDbEntity
  8
0
  6
Continuous
 62
     7
370
    25
100
AcDbLine
 10
162.1375397343
 20
135.2246225944
 30
0.0
 11
161.595652715
 21
137.3870825303
 31
0.0
  0
LINE
  5
83
330
1F
100
AcDbEntity
  8
0
  6
Continuous
 62
     7
370
    25
100
AcDbLine
 10
161.595652715
 20
137.3870825303
 30
0.0
 11
154.2992584843
 21
143.9584166649
 31
0.0
  0
LINE
  5
84
330
1F
100
AcDbEntity
  8
0
  6
Continuous
 62
     7
370
    25
100
AcDbLine
 10
154.2992584843
 20
143.9584166649
 30
0.0
 11
151.9638017535
 21
143.3732804469
 31
0.0
  0
LINE
  5
85
330
1F
100
AcDbEntity
  8
0
  6
Continuous
 62
     7
370
    25
100
AcDbLine
 10
151.9638017535
 20
143.3732804469
 30
0.0
 11
153.950720824
 21
135.4688533636
 31
0.0
  0
LINE
  5
86
330
1F
100
AcDbEntity
  8
0
  6
Continuous
 62
     7
370
    25
100
AcDbLine
 10
153.950720824
 20
135.4688533636
 30
0.0
 11
152.8567705035
 21
135.1915496777
 31
0.0
  0
LINE
  5
87
330
1F
100
AcDbEntity
  8
0
  6
Continuous
 62
     7
370
    25
100
AcDbLine
 10
152.8567705035
 20
135.1915496777
 30
0.0
 11
153.3986575227
 21
133.0290897418
 31
0.0
  0
LINE
  5
88
330
1F
100
AcDbEntity
  8
0
  6
Continuous
 62
     7
370
    25
100
AcDbLine
 10
153.3986575227
 20
133.0290897418
 30
0.0
 11
154.4926078432
 21
133.3063934277
 31
0.0
  0
LINE
  5
89
330
1F
100
AcDbEntity
  8
0
  6
Continuous
 62
     7
370
    25
100
AcDbLine
 10
154.4926078432
 20
133.3063934277
 30
0.0
 11
155.1260814009
 21
130.7852195495
 31
0.0
  0
LINE
  5
8A
330
1F
100
AcDbEntity
  8
0
  6
Continuous
 62
     7
370
    25
100
AcDbLine
 10
155.1260814009
 20
130.7852195495
 30
0.0
 11
157.413200792
 21
131.3576354149
 31
0.0
  0
LINE
  5
8B
330
1F
100
AcDbEntity
  8
0
  6
Continuous
 62
     7
370
    25
100
AcDbLine
 10
157.413200792
 20
131.3576354149
 30
0.0
 11
156.7797272343
 21
133.8788092931
 31
0.0
  0
LINE
  5
8C
330
1F
100
AcDbEntity
  8
0
  6
Continuous
 62
     7
370
    25
100
AcDbLine
 10
156.7797272343
 20
133.8788092931
 30
0.0
 11
156.7799547057
 21
133.878866431
 31
0.0
  0
LINE
  5
8D
330
1F
100
AcDbEntity
  8
0
  6
Continuous
 62
     7
370
    25
100
AcDbLine
 10
156.7799547057
 20
133.878866431
 30
0.0
 11
155.9597644042
 21
137.1460569097
 31
0.0
  0
LINE
  5
8E
330
1F
100
AcDbEntity
  8
0
  6
Continuous
 62
     7
370
    25
100
AcDbLine
 10
155.9597644042
 20
137.1460569097
 30
0.0
 11
155.2024035163
 21
140.1550312482
 31
0.0
  0
SPLINE
  5
8F
330
1F
100
AcDbEntity
  8
0
  6
Continuous
 62
     7
370
    25
100
AcDbSpline
210
0.0
220
0.0
230
1.0
 70
     8
 71
     3
 72
    22
 73
    18
 74
     0
 42
0.00000001
 43
0.00000001
 40
0.1022693200491304
 40
0.1022693200491304
 40
0.1022693200491304
 40
0.1022693200491304
 40
0.1086969209501107
 40
0.1590474994132885
 40
0.2066367252644483
 40
0.2519274200850728
 40
0.2945677015618738
 40
0.3352190773630952
 40
0.3739852715870128
 40
0.4485532434913508
 40
0.5228681118887492
 40
0.5978238049660644
 40
0.6757561334779344
 40
0.7549146121797182
 40
0.8347140680702028
 40
0.9155520039674132
 40
1.0
 40
1.0
 40
1.0
 40
1.0
 10
149.4041455199578
 20
129.0514959486826
 30
0.0
 10
149.4177079014674
 20
129.0560941927823
 30
0.0
 10
149.537397260201
 20
129.0970495130251
 30
0.0
 10
149.7555688972347
 20
129.1776065124808
 30
0.0
 10
150.0489910996042
 20
129.3030618989371
 30
0.0
 10
150.3217662752244
 20
129.4329641802456
 30
0.0
 10
150.5692302975604
 20
129.5775879380793
 30
0.0
 10
150.7971999524582
 20
129.7261962170673
 30
0.0
 10
151.066438946756
 20
129.9392724598453
 30
0.0
 10
151.3651675462105
 20
130.2342321396788
 30
0.0
 10
151.6604984722411
 20
130.6380900488221
 30
0.0
 10
151.9040799572466
 20
131.0835961571323
 30
0.0
 10
152.0818608789431
 20
131.5707540552967
 30
0.0
 10
152.1981187309206
 20
132.0872791764944
 30
0.0
 10
152.2364408415891
 20
132.6215633924865
 30
0.0
 10
152.2087647361985
 20
133.1689971136246
 30
0.0
 10
152.1305757697775
 20
133.529322728564
 30
0.0
 10
152.0906274121102
 20
133.7134205265167
 30
0.0
  0
SPLINE
  5
90
330
1F
100
AcDbEntity
  8
0
  6
Continuous
 62
     7
370
    25
100
AcDbSpline
210
0.0
220
0.0
230
1.0
 70
     8
 71
     3
 72
    15
 73
    11
 74
     0
 42
0.00000001
 43
0.00000001
 40
0.0
 40
0.0
 40
0.0
 40
0.0
 40
0.1260879732374794
 40
0.2485863703693965
 40
0.3683987619687485
 40
0.4882941974103014
 40
0.6092389714999453
 40
0.7344988085010601
 40
0.86344925404259
 40
1.0
 40
1.0
 40
1.0
 40
1.0
 10
152.0906274121102
 20
133.7134205265167
 30
0.0
 10
152.0461592020732
 20
133.8699582410754
 30
0.0
 10
151.9584887395692
 20
134.1785772258122
 30
0.0
 10
151.761700802076
 20
134.612623576195
 30
0.0
 10
151.5214303285861
 20
135.0141608119845
 30
0.0
 10
151.2318312919885
 20
135.3795498182793
 30
0.0
 10
150.89473521383
 20
135.7116179231335
 30
0.0
 10
150.5092793886237
 20
136.0053975692777
 30
0.0
 10
150.0770465678899
 20
136.2667274552629
 30
0.0
 10
149.7636898972685
 20
136.4051094355262
 30
0.0
 10
149.6025264505717
 20
136.4762811034397
 30
0.0
  0
SPLINE
  5
91
330
1F
100
AcDbEntity
  8
0
  6
Continuous
 62
     7
370
    25
100
AcDbSpline
210
0.0
220
0.0
230
1.0
 70
     8
 71
     3
 72
    15
 73
    11
 74
     0
 42
0.00000001
 43
0.00000001
 40
0.0
 40
0.0
 40
0.0
 40
0.0
 40
0.1365129369365166
 40
0.2665534232300877
 40
0.3933686518333759
 40
0.5158238202276558
 40
0.6370407284714378
 40
0.7564796060703658
 40
0.8772410875236455
 40
1.0
 40
1.0
 40
1.0
 40
1.0
 10
149.6025264505717
 20
136.4762811034397
 30
0.0
 10
149.6675065867239
 20
136.5921931904721
 30
0.0
 10
149.7943859735573
 20
136.8185216563713
 30
0.0
 10
149.9440490906987
 20
137.1713511609665
 30
0.0
 10
150.063080653117
 20
137.5211151490377
 30
0.0
 10
150.1418228575887
 20
137.8733472659616
 30
0.0
 10
150.1876963408516
 20
138.2244397148227
 30
0.0
 10
150.186648644285
 20
138.5765151868869
 30
0.0
 10
150.1606745228406
 20
138.929558103513
 30
0.0
 10
150.107577817572
 20
139.1607557412435
 30
0.0
 10
150.080811706982
 20
139.2773027380551
 30
0.0
  0
SPLINE
  5
92
330
1F
100
AcDbEntity
  8
0
  6
Continuous
 62
     7
370
    25
100
AcDbSpline
210
0.0
220
0.0
230
1.0
 70
     8
 71
     3
 72
    18
 73
    14
 74
     0
 42
0.00000001
 43
0.00000001
 40
0.0
 40
0.0
 40
0.0
 40
0.0
 40
0.0834918619353375
 40
0.1643684328109533
 40
0.2442795277402174
 40
0.3246700421314364
 40
0.4049794599707615
 40
0.4840248790856694
 40
0.5639227823191868
 40
0.6459008541412374
 40
0.7303240590919566
 40
0.8162001202584653
 40
0.8866204209504085
 40
0.8866204209504085
 40
0.8866204209504085
 40
0.8866204209504085
 10
150.080811706982
 20
139.2773027380551
 30
0.0
 10
150.0371506093565
 20
139.4333604666615
 30
0.0
 10
149.9511960501317
 20
139.7405875865805
 30
0.0
 10
149.7426484341615
 20
140.1675023021614
 30
0.0
 10
149.4952130125868
 20
140.5652457701618
 30
0.0
 10
149.1867169242651
 20
140.916844746137
 30
0.0
 10
148.8411639592006
 20
141.2292203473354
 30
0.0
 10
148.4509864221215
 20
141.4824629528947
 30
0.0
 10
148.0283132614544
 20
141.6839991956984
 30
0.0
 10
147.569874373179
 20
141.8214198703725
 30
0.0
 10
147.087394563095
 20
141.906840047477
 30
0.0
 10
146.6201837866793
 20
141.9239454227581
 30
0.0
 10
146.3173631554538
 20
141.9034511963372
 30
0.0
 10
146.1819004010898
 20
141.8871617133445
 30
0.0
  0
LINE
  5
93
330
1F
100
AcDbEntity
  8
0
  6
Continuous
 62
     7
370
    25
100
AcDbLine
 10
146.1819004011
 20
141.8871617133
 30
0.0
 11
146.7660103842
 21
139.5603863637
 31
0.0
  0
SPLINE
  5
94
330
1F
100
AcDbEntity
  8
0
  6
Continuous
 62
     7
370
    25
100
AcDbSpline
210
0.0
220
0.0
230
1.0
 70
     8
 71
     3
 72
    13
 73
     9
 74
     0
 42
0.00000001
 43
0.00000001
 40
0.2728047430420173
 40
0.2728047430420173
 40
0.2728047430420173
 40
0.2728047430420173
 40
0.3729941583949807
 40
0.4956812404932155
 40
0.6189332699328298
 40
0.7397068332271213
 40
0.8656537223873406
 40
1.0
 40
1.0
 40
1.0
 40
1.0
 10
146.7660103842099
 20
139.5603863636775
 30
0.0
 10
146.8377872061605
 20
139.5475579812299
 30
0.0
 10
146.9947878383003
 20
139.5047209220097
 30
0.0
 10
147.2240537254115
 20
139.3973093417333
 30
0.0
 10
147.4373118048098
 20
139.2341208851422
 30
0.0
 10
147.6149118492199
 20
139.0302770396471
 30
0.0
 10
147.7527353814456
 20
138.7871673287389
 30
0.0
 10
147.8065973995786
 20
138.6053695930204
 30
0.0
 10
147.8343974441614
 20
138.5115375136962
 30
0.0
  0
SPLINE
  5
95
330
1F
100
AcDbEntity
  8
0
  6
Continuous
 62
     7
370
    25
100
AcDbSpline
210
0.0
220
0.0
230
1.0
 70
     8
 71
     3
 72
    15
 73
    11
 74
     0
 42
0.00000001
 43
0.00000001
 40
0.0
 40
0.0
 40
0.0
 40
0.0
 40
0.1312247203683299
 40
0.2562048081402217
 40
0.3784998658719578
 40
0.504987212918064
 40
0.6294556463680935
 40
0.7508194830498407
 40
0.8725227699858193
 40
1.0
 40
1.0
 40
1.0
 40
1.0
 10
147.8343974441614
 20
138.5115375136962
 30
0.0
 10
147.8548651286883
 20
138.4152917505249
 30
0.0
 10
147.8948264955145
 20
138.227380301993
 30
0.0
 10
147.8802835871872
 20
137.9425261960155
 30
0.0
 10
147.8208245318705
 20
137.6681024149036
 30
0.0
 10
147.699417692128
 20
137.4149022080328
 30
0.0
 10
147.5384171866072
 20
137.1860125841915
 30
0.0
 10
147.3330292403118
 20
137.001243632634
 30
0.0
 10
147.0948258699123
 20
136.8551830554411
 30
0.0
 10
146.9159247397741
 20
136.8014344038128
 30
0.0
 10
146.8244014505717
 20
136.7739373534397
 30
0.0
  0
SPLINE
  5
96
330
1F
100
AcDbEntity
  8
0
  6
Continuous
 62
     7
370
    25
100
AcDbSpline
210
0.0
220
0.0
230
1.0
 70
     8
 71
     3
 72
    15
 73
    11
 74
     0
 42
0.00000001
 43
0.00000001
 40
0.0
 40
0.0
 40
0.0
 40
0.0
 40
0.1299273478553522
 40
0.2515935306317774
 40
0.3698204924924389
 40
0.4911633302189479
 40
0.6147825792085738
 40
0.7361567460386775
 40
0.863652017762234
 40
1.0
 40
1.0
 40
1.0
 40
1.0
 10
146.8244014505717
 20
136.7739373534397
 30
0.0
 10
146.7281466792303
 20
136.754616850376
 30
0.0
 10
146.5417572996142
 20
136.7172042989799
 30
0.0
 10
146.260837925408
 20
136.729279382837
 30
0.0
 10
145.9945904864373
 20
136.7933446846534
 30
0.0
 10
145.7470446500657
 20
136.9145899042481
 30
0.0
 10
145.5263127784911
 20
137.083592211831
 30
0.0
 10
145.3439955549549
 20
137.2991348295997
 30
0.0
 10
145.2005925997615
 20
137.5543674053464
 30
0.0
 10
145.1456982461106
 20
137.7459735134623
 30
0.0
 10
145.1173301364691
 20
137.8449910393372
 30
0.0
  0
SPLINE
  5
97
330
1F
100
AcDbEntity
  8
0
  6
Continuous
 62
     7
370
    25
100
AcDbSpline
210
0.0
220
0.0
230
1.0
 70
     8
 71
     3
 72
    12
 73
     8
 74
     0
 42
0.00000001
 43
0.00000001
 40
0.0
 40
0.0
 40
0.0
 40
0.0
 40
0.1303515697106781
 40
0.253258152802905
 40
0.3716216841357772
 40
0.4921949743372185
 40
0.5629152256975327
 40
0.5629152256975327
 40
0.5629152256975327
 40
0.5629152256975327
 10
145.1173301364691
 20
137.8449910393372
 30
0.0
 10
145.0972603701889
 20
137.9403518924982
 30
0.0
 10
145.0582671156651
 20
138.1256270953583
 30
0.0
 10
145.0668087205715
 20
138.405233358979
 30
0.0
 10
145.1312531955381
 20
138.6692706820006
 30
0.0
 10
145.2358724762262
 20
138.8768678339104
 30
0.0
 10
145.3183292768233
 20
138.9939839589175
 30
0.0
 10
145.3513042012691
 20
139.0352199475013
 30
0.0
  0
LINE
  5
98
330
1F
100
AcDbEntity
  8
0
  6
Continuous
 62
     7
370
    25
100
AcDbLine
 10
145.3513042013
 20
139.0352199475
 30
0.0
 11
144.7346142703
 21
141.4917760264
 31
0.0
  0
SPLINE
  5
99
330
1F
100
AcDbEntity
  8
0
  6
Continuous
 62
     7
370
    25
100
AcDbSpline
210
0.0
220
0.0
230
1.0
 70
     8
 71
     3
 72
    18
 73
    14
 74
     0
 42
0.00000001
 43
0.00000001
 40
0.1460449890074726
 40
0.1460449890074726
 40
0.1460449890074726
 40
0.1460449890074726
 40
0.1814668724226266
 40
0.266556194602635
 40
0.3496649314611414
 40
0.4310295409373627
 40
0.5115725652981508
 40
0.5918986811284804
 40
0.6743904180888561
 40
0.7567324506450956
 40
0.8373890885938835
 40
0.9182748583996565
 40
0.9999999999999999
 40
0.9999999999999999
 40
0.9999999999999999
 40
0.9999999999999999
 10
144.734614271024
 20
141.4917760247784
 30
0.0
 10
144.6723192877959
 20
141.4633219761098
 30
0.0
 10
144.4628787915431
 20
141.3609054664268
 30
0.0
 10
144.1247423320614
 20
141.1582544264822
 30
0.0
 10
143.7464510720436
 20
140.8571863534478
 30
0.0
 10
143.417974815053
 20
140.5144139721936
 30
0.0
 10
143.1444727329295
 20
140.1330234409398
 30
0.0
 10
142.9244938622025
 20
139.7157031388265
 30
0.0
 10
142.7685283488245
 20
139.2672491940026
 30
0.0
 10
142.6620184684254
 20
138.8039609362712
 30
0.0
 10
142.6218197871052
 20
138.3333681135454
 30
0.0
 10
142.6416209482095
 20
137.861805079684
 30
0.0
 10
142.7078718421891
 20
137.5543165619818
 30
0.0
 10
142.7411682774948
 20
137.3997786995936
 30
0.0
  0
SPLINE
  5
9A
330
1F
100
AcDbEntity
  8
0
  6
Continuous
 62
     7
370
    25
100
AcDbSpline
210
0.0
220
0.0
230
1.0
 70
     8
 71
     3
 72
    15
 73
    11
 74
     0
 42
0.00000001
 43
0.00000001
 40
0.0
 40
0.0
 40
0.0
 40
0.0
 40
0.1154186029017424
 40
0.2270051606936514
 40
0.3376642369030174
 40
0.4466565389545569
 40
0.5622416190853333
 40
0.6925233010717818
 40
0.8379818567152714
 40
1.0
 40
1.0
 40
1.0
 40
1.0
 10
142.7411682774948
 20
137.3997786995936
 30
0.0
 10
142.7707333837263
 20
137.2920059491605
 30
0.0
 10
142.8288819968813
 20
137.0800386413317
 30
0.0
 10
142.9612897067892
 20
136.7806547118029
 30
0.0
 10
143.1112380934305
 20
136.4972391598672
 30
0.0
 10
143.2972607382808
 20
136.2306353128685
 30
0.0
 10
143.5258184089058
 20
135.9739468515002
 30
0.0
 10
143.8016377259457
 20
135.7142273999689
 30
0.0
 10
144.1348826700994
 20
135.4523092689961
 30
0.0
 10
144.3817565470098
 20
135.2865178695624
 30
0.0
 10
144.5118413544178
 20
135.1991577060039
 30
0.0
  0
SPLINE
  5
9B
330
1F
100
AcDbEntity
  8
0
  6
Continuous
 62
     7
370
    25
100
AcDbSpline
210
0.0
220
0.0
230
1.0
 70
     8
 71
     3
 72
    15
 73
    11
 74
     0
 42
0.00000001
 43
0.00000001
 40
0.0
 40
0.0
 40
0.0
 40
0.0
 40
0.1284836621029037
 40
0.2532159341674824
 40
0.37721778076087
 40
0.5017257629219816
 40
0.6262932552346675
 40
0.7489300157168217
 40
0.8735145057088288
 40
1.0
 40
1.0
 40
1.0
 40
1.0
 10
144.5118413544178
 20
135.1991577060039
 30
0.0
 10
144.4016996161138
 20
135.0728165294539
 30
0.0
 10
144.1846319928923
 20
134.8238230113654
 30
0.0
 10
143.9183871165118
 20
134.4084858431367
 30
0.0
 10
143.7076596848332
 20
133.9687764751094
 30
0.0
 10
143.5582007420476
 20
133.5046049064794
 30
0.0
 10
143.4676180471142
 20
133.0277009676555
 30
0.0
 10
143.4318466926291
 20
132.5433162123495
 30
0.0
 10
143.4652914275468
 20
132.0554395879547
 30
0.0
 10
143.5335855730514
 20
131.7351929405064
 30
0.0
 10
143.5679911941614
 20
131.5738572252346
 30
0.0
  0
SPLINE
  5
9C
330
1F
100
AcDbEntity
  8
0
  6
Continuous
 62
     7
370
    25
100
AcDbSpline
210
0.0
220
0.0
230
1.0
 70
     8
 71
     3
 72
    25
 73
    21
 74
     0
 42
0.00000001
 43
0.00000001
 40
0.0
 40
0.0
 40
0.0
 40
0.0
 40
0.081525670915012
 40
0.1612848065539835
 40
0.2410299360111123
 40
0.3220277610538808
 40
0.3624300228138192
 40
0.4021575806089787
 40
0.4411434214530111
 40
0.4795984516138062
 40
0.517919630278554
 40
0.5561279333559491
 40
0.5948146456820416
 40
0.6335705925854783
 40
0.6732324896022672
 40
0.7144016046776239
 40
0.7568969413778146
 40
0.8012931584438053
 40
0.8477339568768952
 40
0.8758216678078369
 40
0.8758216678078369
 40
0.8758216678078369
 40
0.8758216678078369
 10
143.5679911941614
 20
131.5738572252346
 30
0.0
 10
143.6186655269956
 20
131.4018136432759
 30
0.0
 10
143.7189161581978
 20
131.061454397855
 30
0.0
 10
143.9467682440149
 20
130.5807234426333
 30
0.0
 10
144.23715178872
 20
130.1376023836364
 30
0.0
 10
144.5261542182055
 20
129.8011787062675
 30
0.0
 10
144.7838090924771
 20
129.5580593999518
 30
0.0
 10
144.9842999364408
 20
129.3895103849612
 30
0.0
 10
145.1934000442557
 20
129.2388156508009
 30
0.0
 10
145.4108960876717
 20
129.106513270413
 30
0.0
 10
145.6346606473999
 20
128.9887859110286
 30
0.0
 10
145.8675235858276
 20
128.8885660114645
 30
0.0
 10
146.1090275413008
 20
128.8088301828937
 30
0.0
 10
146.357412649035
 20
128.740930435095
 30
0.0
 10
146.6160665159044
 20
128.692788286175
 30
0.0
 10
146.8855777923698
 20
128.6629023946149
 30
0.0
 10
147.1669241533897
 20
128.6493216728382
 30
0.0
 10
147.4599476555583
 20
128.659182390612
 30
0.0
 10
147.7206315349396
 20
128.6782009296726
 30
0.0
 10
147.8833747145559
 20
128.6969628325764
 30
0.0
 10
147.9445711181793
 20
128.7050600261551
 30
0.0
  0
LINE
  5
9D
330
1F
100
AcDbEntity
  8
0
  6
Continuous
 62
     7
370
    25
100
AcDbLine
 10
147.9445711182
 20
128.7050600262
 30
0.0
 11
147.3675046753
 21
131.0037777562
 31
0.0
  0
SPLINE
  5
9E
330
1F
100
AcDbEntity
  8
0
  6
Continuous
 62
     7
370
    25
100
AcDbSpline
210
0.0
220
0.0
230
1.0
 70
     8
 71
     3
 72
    19
 73
    15
 74
     0
 42
0.00000001
 43
0.00000001
 40
0.2868568820118693
 40
0.2868568820118693
 40
0.2868568820118693
 40
0.2868568820118693
 40
0.3417142412806181
 40
0.4030453478877765
 40
0.4646075881823736
 40
0.5249347299197864
 40
0.585055523634015
 40
0.6435418222729973
 40
0.7013687553485517
 40
0.7587704619606505
 40
0.8164990707430596
 40
0.875685395401191
 40
0.9365574347345952
 40
1.0
 40
1.0
 40
1.0
 40
1.0
 10
147.3675046752511
 20
131.0037777562195
 30
0.0
 10
147.3125664857837
 20
131.009045753422
 30
0.0
 10
147.1967211357317
 20
131.0261946876776
 30
0.0
 10
147.0215006114399
 20
131.0637047618057
 30
0.0
 10
146.847535652734
 20
131.1259015288819
 30
0.0
 10
146.6801939186319
 20
131.2012920055276
 30
0.0
 10
146.5271055257582
 20
131.2966655021679
 30
0.0
 10
146.3821661916124
 20
131.3997432934783
 30
0.0
 10
146.2551298892168
 20
131.5205833739662
 30
0.0
 10
146.142086068475
 20
131.6533921726932
 30
0.0
 10
146.045420711744
 20
131.8001959810869
 30
0.0
 10
145.9607452551834
 20
131.9581003261711
 30
0.0
 10
145.8919483658634
 20
132.1299393146232
 30
0.0
 10
145.8574513351349
 20
132.2502423619722
 30
0.0
 10
145.8398461621101
 20
132.3116376739526
 30
0.0
  0
SPLINE
  5
9F
330
1F
100
AcDbEntity
  8
0
  6
Continuous
 62
     7
370
    25
100
AcDbSpline
210
0.0
220
0.0
230
1.0
 70
     8
 71
     3
 72
    19
 73
    15
 74
     0
 42
0.00000001
 43
0.00000001
 40
0.0
 40
0.0
 40
0.0
 40
0.0
 40
0.0634965075690416
 40
0.1251680367800551
 40
0.1848760564376008
 40
0.2440367211980583
 40
0.3034181243440703
 40
0.3629897767661265
 40
0.4239577835138231
 40
0.4872758357640343
 40
0.6129646015660983
 40
0.737113477488763
 40
0.8643735187113571
 40
1.0
 40
1.0
 40
1.0
 40
1.0
 10
145.8398461621101
 20
132.3116376739526
 30
0.0
 10
145.8256843628752
 20
132.3741480250286
 30
0.0
 10
145.7977677943051
 20
132.4973720923383
 30
0.0
 10
145.7813539540044
 20
132.6835676453508
 30
0.0
 10
145.7808642477597
 20
132.8658047436789
 30
0.0
 10
145.7982931287425
 20
133.0450633620483
 30
0.0
 10
145.8363012764674
 20
133.2210998169683
 30
0.0
 10
145.8964573787682
 20
133.3926044985303
 30
0.0
 10
145.9727257965558
 20
133.5619296050059
 30
0.0
 10
146.1009187413798
 20
133.7793318369831
 30
0.0
 10
146.2972837307285
 20
134.029663761095
 30
0.0
 10
146.5916266572558
 20
134.2736095327866
 30
0.0
 10
146.9331006638515
 20
134.4693301876702
 30
0.0
 10
147.1886526825489
 20
134.5429613326121
 30
0.0
 10
147.3204952005717
 20
134.5809485713885
 30
0.0
  0
SPLINE
  5
A0
330
1F
100
AcDbEntity
  8
0
  6
Continuous
 62
     7
370
    25
100
AcDbSpline
210
0.0
220
0.0
230
1.0
 70
     8
 71
     3
 72
    19
 73
    15
 74
     0
 42
0.00000001
 43
0.00000001
 40
0.0
 40
0.0
 40
0.0
 40
0.0
 40
0.1380882292726658
 40
0.2684147408664266
 40
0.3962078464927068
 40
0.5251766112284185
 40
0.589209932924001
 40
0.6507894698933062
 40
0.7103498365899483
 40
0.7680962442667315
 40
0.8252767382567782
 40
0.8825313642926379
 40
0.9401613538186624
 40
1.0
 40
1.0
 40
1.0
 40
1.0
 10
147.3204952005717
 20
134.5809485713885
 30
0.0
 10
147.4572548227808
 20
134.6088214392194
 30
0.0
 10
147.72308702839
 20
134.6630004857279
 30
0.0
 10
148.1258594793572
 20
134.6597140238159
 30
0.0
 10
148.51071809677
 20
134.582391285409
 30
0.0
 10
148.8119261785928
 20
134.458524501942
 30
0.0
 10
149.0344009422592
 20
134.3299890648036
 30
0.0
 10
149.1885821353494
 20
134.2239678144352
 30
0.0
 10
149.3236968170287
 20
134.1037096403224
 30
0.0
 10
149.4417089159373
 20
133.9727285431221
 30
0.0
 10
149.5440043078822
 20
133.8320130060719
 30
0.0
 10
149.6312261419835
 20
133.6816015696624
 30
0.0
 10
149.7010045368769
 20
133.5191787833249
 30
0.0
 10
149.7335194231564
 20
133.4051571249731
 30
0.0
 10
149.7500825403153
 20
133.3470743726705
 30
0.0
  0
SPLINE
  5
A1
330
1F
100
AcDbEntity
  8
0
  6
Continuous
 62
     7
370
    25
100
AcDbSpline
210
0.0
220
0.0
230
1.0
 70
     8
 71
     3
 72
    16
 73
    12
 74
     0
 42
0.00000001
 43
0.00000001
 40
0.0
 40
0.0
 40
0.0
 40
0.0
 40
0.1212939832432017
 40
0.2371800916305667
 40
0.3537343433150942
 40
0.4751311713503545
 40
0.5377578900932909
 40
0.5997168088521904
 40
0.6621716966494402
 40
0.7252891371591936
 40
0.7859029178440659
 40
0.7859029178440659
 40
0.7859029178440659
 40
0.7859029178440659
 10
149.7500825403153
 20
133.3470743726705
 30
0.0
 10
149.7739683459679
 20
133.2254948101151
 30
0.0
 10
149.8206750120521
 20
132.9877562923727
 30
0.0
 10
149.8008716591086
 20
132.6240222812875
 30
0.0
 10
149.7034961838131
 20
132.2748384712039
 30
0.0
 10
149.5643598907866
 20
131.9994602346584
 30
0.0
 10
149.4168583024928
 20
131.7965427481816
 30
0.0
 10
149.2916736675729
 20
131.6526071684822
 30
0.0
 10
149.1515752595289
 20
131.5221427227397
 30
0.0
 10
148.9981663769271
 20
131.4100936184714
 30
0.0
 10
148.8900308726347
 20
131.3450450966359
 30
0.0
 10
148.8357703581203
 20
131.3155923590445
 30
0.0
  0
LINE
  5
A2
330
1F
100
AcDbEntity
  8
0
  6
Continuous
 62
     7
370
    25
100
AcDbLine
 10
148.8357703581
 20
131.315592359
 30
0.0
 11
149.4041455201
 21
129.0514959483
 31
0.0
  0
LINE
  5
A3
330
1F
100
AcDbEntity
  8
0
  6
Continuous
 62
     7
370
    25
100
AcDbLine
 10
95.2148217545
 20
189.8871406236
 30
0.0
 11
95.2148217545
 21
186.4871406236
 31
0.0
  0
LINE
  5
A4
330
1F
100
AcDbEntity
  8
0
  6
Continuous
 62
     7
370
    25
100
AcDbLine
 10
101.2148217545
 20
186.4871406236
 30
0.0
 11
95.2148217545
 21
186.4871406236
 31
0.0
  0
LINE
  5
A5
330
1F
100
AcDbEntity
  8
0
  6
Continuous
 62
     7
370
    25
100
AcDbLine
 10
101.2148217545
 20
183.6871406236
 30
0.0
 11
101.2148217545
 21
186.4871406236
 31
0.0
  0
LINE
  5
A6
330
1F
100
AcDbEntity
  8
0
  6
Continuous
 62
     7
370
    25
100
AcDbLine
 10
101.2148217545
 20
183.6871406236
 30
0.0
 11
151.2148217545
 21
183.6871406236
 31
0.0
  0
LINE
  5
A7
330
1F
100
AcDbEntity
  8
0
  6
Continuous
 62
     7
370
    25
100
AcDbLine
 10
151.2148217545
 20
183.6871406236
 30
0.0
 11
151.2148217545
 21
186.4871406236
 31
0.0
  0
LINE
  5
A8
330
1F
100
AcDbEntity
  8
0
  6
Continuous
 62
     7
370
    25
100
AcDbLine
 10
151.2148217545
 20
186.4871406236
 30
0.0
 11
156.2148217545
 21
186.4871406236
 31
0.0
  0
LINE
  5
A9
330
1F
100
AcDbEntity
  8
0
  6
Continuous
 62
     7
370
    25
100
AcDbLine
 10
156.2148217545
 20
189.8871406236
 30
0.0
 11
156.2148217545
 21
186.4871406236
 31
0.0
  0
LINE
  5
AA
330
1F
100
AcDbEntity
  8
0
  6
Continuous
 62
     7
370
    25
100
AcDbLine
 10
151.2148217545
 20
189.8871406236
 30
0.0
 11
156.2148217545
 21
189.8871406236
 31
0.0
  0
LINE
  5
AB
330
1F
100
AcDbEntity
  8
0
  6
Continuous
 62
     7
370
    25
100
AcDbLine
 10
151.2148217545
 20
189.8871406236
 30
0.0
 11
151.2148217545
 21
191.6871406236
 31
0.0
  0
LINE
  5
AC
330
1F
100
AcDbEntity
  8
0
  6
Continuous
 62
     7
370
    25
100
AcDbLine
 10
101.2148217545
 20
191.6871406236
 30
0.0
 11
151.2148217545
 21
191.6871406236
 31
0.0
  0
LINE
  5
AD
330
1F
100
AcDbEntity
  8
0
  6
Continuous
 62
     7
370
    25
100
AcDbLine
 10
101.2148217545
 20
189.8871406236
 30
0.0
 11
101.2148217545
 21
191.6871406236
 31
0.0
  0
LINE
  5
AE
330
1F
100
AcDbEntity
  8
0
  6
Continuous
 62
     7
370
    25
100
AcDbLine
 10
101.2148217545
 20
189.8871406236
 30
0.0
 11
95.2148217545
 21
189.8871406236
 31
0.0
  0
LINE
  5
AF
330
1F
100
AcDbEntity
  8
0
  6
Continuous
 62
     7
370
    25
100
AcDbLine
 10
105.2148217545
 20
206.5521704028
 30
0.0
 11
181.0550407218
 21
225.5367040054
 31
0.0
  0
LINE
  5
B0
330
1F
100
AcDbEntity
  8
0
  6
Continuous
 62
     7
370
    25
100
AcDbLine
 10
181.0550407218
 20
225.5367040054
 30
0.0
 11
159.4831926101
 21
181.6393290121
 31
0.0
  0
LINE
  5
B1
330
1F
100
AcDbEntity
  8
0
  6
Continuous
 62
     7
370
    25
100
AcDbLine
 10
155.2148217545
 20
166.5896153002
 30
0.0
 11
159.4831926101
 21
181.6393290121
 31
0.0
  0
LINE
  5
B2
330
1F
100
AcDbEntity
  8
0
  6
Continuous
 62
     7
370
    25
100
AcDbLine
 10
155.2148217545
 20
161.6871406236
 30
0.0
 11
155.2148217545
 21
166.5896153002
 31
0.0
  0
LINE
  5
B3
330
1F
100
AcDbEntity
  8
0
  6
Continuous
 62
     7
370
    25
100
AcDbLine
 10
146.0148217545
 20
161.6871406236
 30
0.0
 11
155.2148217545
 21
161.6871406236
 31
0.0
  0
LINE
  5
B4
330
1F
100
AcDbEntity
  8
0
  6
Continuous
 62
     7
370
    25
100
AcDbLine
 10
146.0148217545
 20
158.6871406236
 30
0.0
 11
146.0148217545
 21
161.6871406236
 31
0.0
  0
LINE
  5
B5
330
1F
100
AcDbEntity
  8
0
  6
Continuous
 62
     7
370
    25
100
AcDbLine
 10
138.1748217545
 20
158.6871406236
 30
0.0
 11
146.0148217545
 21
158.6871406236
 31
0.0
  0
LINE
  5
B6
330
1F
100
AcDbEntity
  8
0
  6
Continuous
 62
     7
370
    25
100
AcDbLine
 10
138.1748217545
 20
161.6871406236
 30
0.0
 11
138.1748217545
 21
158.6871406236
 31
0.0
  0
LINE
  5
B7
330
1F
100
AcDbEntity
  8
0
  6
Continuous
 62
     7
370
    25
100
AcDbLine
 10
112.5148217545
 20
161.6871406236
 30
0.0
 11
138.1748217545
 21
161.6871406236
 31
0.0
  0
LINE
  5
B8
330
1F
100
AcDbEntity
  8
0
  6
Continuous
 62
     7
370
    25
100
AcDbLine
 10
112.5148217545
 20
161.6871406236
 30
0.0
 11
112.5148217545
 21
158.6871406236
 31
0.0
  0
LINE
  5
B9
330
1F
100
AcDbEntity
  8
0
  6
Continuous
 62
     7
370
    25
100
AcDbLine
 10
104.6748217545
 20
158.6871406236
 30
0.0
 11
112.5148217545
 21
158.6871406236
 31
0.0
  0
LINE
  5
BA
330
1F
100
AcDbEntity
  8
0
  6
Continuous
 62
     7
370
    25
100
AcDbLine
 10
104.6748217545
 20
158.6871406236
 30
0.0
 11
104.6748217545
 21
161.6871406236
 31
0.0
  0
LINE
  5
BB
330
1F
100
AcDbEntity
  8
0
  6
Continuous
 62
     7
370
    25
100
AcDbLine
 10
91.2148217545
 20
161.6871406236
 30
0.0
 11
104.6748217545
 21
161.6871406236
 31
0.0
  0
LINE
  5
BC
330
1F
100
AcDbEntity
  8
0
  6
Continuous
 62
     7
370
    25
100
AcDbLine
 10
91.2148217545
 20
161.6871406236
 30
0.0
 11
91.2148217545
 21
189.6871406236
 31
0.0
  0
LINE
  5
BD
330
1F
100
AcDbEntity
  8
0
  6
Continuous
 62
     7
370
    25
100
AcDbLine
 10
91.2148217545
 20
189.6871406236
 30
0.0
 11
105.2148217545
 21
206.5521704028
 31
0.0
  0
SPLINE
  5
BE
330
1F
100
AcDbEntity
  8
0
  6
Continuous
 62
     7
370
    25
100
AcDbSpline
210
0.0
220
0.0
230
1.0
 70
     8
 71
     3
 72
    18
 73
    14
 74
     0
 42
0.00000001
 43
0.00000001
 40
0.0
 40
0.0
 40
0.0
 40
0.0
 40
0.0833464869890989
 40
0.1644900455595071
 40
0.2444590159758806
 40
0.3248122677575071
 40
0.4050603544660075
 40
0.484253956586024
 40
0.564075188742121
 40
0.6458595751018406
 40
0.7301608486807039
 40
0.8161895074716762
 40
0.8362883282725265
 40
0.8362883282725265
 40
0.8362883282725265
 40
0.8362883282725265
 10
158.5581672340207
 20
211.4060545545187
 30
0.0
 10
158.5236743749227
 20
211.5639637906651
 30
0.0
 10
158.4556003364183
 20
211.8756085688235
 30
0.0
 10
158.437995610098
 20
212.3504186500708
 30
0.0
 10
158.4697480336798
 20
212.8179304671939
 30
0.0
 10
158.5746455602753
 20
213.2733542677023
 30
0.0
 10
158.7323886058624
 20
213.711234898245
 30
0.0
 10
158.9537723210912
 20
214.120170857174
 30
0.0
 10
159.2344739384375
 20
214.494168856086
 30
0.0
 10
159.5697340466478
 20
214.8340616686455
 30
0.0
 10
159.956957755466
 20
215.1334445202716
 30
0.0
 10
160.2752045963301
 20
215.3210020783033
 30
0.0
 10
160.4594306396262
 20
215.4124579685012
 30
0.0
 10
160.4945537917819
 20
215.4292885520653
 30
0.0
  0
SPLINE
  5
BF
330
1F
100
AcDbEntity
  8
0
  6
Continuous
 62
     7
370
    25
100
AcDbSpline
210
0.0
220
0.0
230
1.0
 70
     8
 71
     3
 72
    15
 73
    11
 74
     0
 42
0.00000001
 43
0.00000001
 40
0.0
 40
0.0
 40
0.0
 40
0.0
 40
0.1359631128944686
 40
0.2663325688280408
 40
0.3922125420427515
 40
0.5153023393905063
 40
0.6367837419826328
 40
0.7562441027126597
 40
0.877766209411338
 40
1.0
 40
1.0
 40
1.0
 40
1.0
 10
160.3033996058155
 20
209.1647284327238
 30
0.0
 10
160.1916891019395
 20
209.2355788648538
 30
0.0
 10
159.9728639748224
 20
209.3743648722497
 30
0.0
 10
159.6754892949419
 20
209.6140004943982
 30
0.0
 10
159.4046257263914
 20
209.8650649393924
 30
0.0
 10
159.1706860377356
 20
210.1397479070136
 30
0.0
 10
158.9652570504846
 20
210.428798490999
 30
0.0
 10
158.7973443327559
 20
210.7391886274998
 30
0.0
 10
158.6542212748266
 20
211.0630112257216
 30
0.0
 10
158.5902475081322
 20
211.2914844237089
 30
0.0
 10
158.5581672340207
 20
211.4060545545187
 30
0.0
  0
SPLINE
  5
C0
330
1F
100
AcDbEntity
  8
0
  6
Continuous
 62
     7
370
    25
100
AcDbSpline
210
0.0
220
0.0
230
1.0
 70
     8
 71
     3
 72
    15
 73
    11
 74
     0
 42
0.00000001
 43
0.00000001
 40
0.0
 40
0.0
 40
0.0
 40
0.0
 40
0.1260023730710783
 40
0.2486163289401959
 40
0.3684477003529945
 40
0.4880261864673874
 40
0.6092853679792689
 40
0.73408072788193
 40
0.8632154199619356
 40
1.0
 40
1.0
 40
1.0
 40
1.0
 10
159.418063067354
 20
205.5521483045187
 30
0.0
 10
159.3823434898322
 20
205.7108961992419
 30
0.0
 10
159.3118648947205
 20
206.0241229889533
 30
0.0
 10
159.2825835662863
 20
206.5001020694149
 30
0.0
 10
159.3034197119899
 20
206.9673967053761
 30
0.0
 10
159.3862461888828
 20
207.4264987160063
 30
0.0
 10
159.5275234444724
 20
207.8776370659191
 30
0.0
 10
159.7285798706461
 20
208.3187337672267
 30
0.0
 10
159.9842909784127
 20
208.7544392966192
 30
0.0
 10
160.1950094343481
 20
209.0253673938965
 30
0.0
 10
160.3033996058155
 20
209.1647284327238
 30
0.0
  0
SPLINE
  5
C1
330
1F
100
AcDbEntity
  8
0
  6
Continuous
 62
     7
370
    25
100
AcDbSpline
210
0.0
220
0.0
230
1.0
 70
     8
 71
     3
 72
    21
 73
    17
 74
     0
 42
0.00000001
 43
0.00000001
 40
0.1472737833943986
 40
0.1472737833943986
 40
0.1472737833943986
 40
0.1472737833943986
 40
0.159038151849778
 40
0.2068286771162814
 40
0.2517950717087957
 40
0.2948465553020732
 40
0.3353961575863667
 40
0.3740934588268121
 40
0.4488026805168751
 40
0.5229124838741459
 40
0.598226945907362
 40
0.6759376330718369
 40
0.7550862362100021
 40
0.834742675791277
 40
0.915686128495985
 40
0.9999999999999999
 40
0.9999999999999999
 40
0.9999999999999999
 40
0.9999999999999999
 10
163.6886630611386
 20
202.6693255509395
 30
0.0
 10
163.6626959709788
 20
202.6658763008624
 30
0.0
 10
163.5311261588811
 20
202.6493241578791
 30
0.0
 10
163.2991110074796
 20
202.6294133492378
 30
0.0
 10
162.9967649258844
 20
202.6183241308949
 30
0.0
 10
162.7104289451269
 20
202.6257985977874
 30
0.0
 10
162.4388561718625
 20
202.6498287319604
 30
0.0
 10
162.1013457462761
 20
202.7116834173337
 30
0.0
 10
161.6992200143623
 20
202.8300543489459
 30
0.0
 10
161.2466797804476
 20
203.0449292578106
 30
0.0
 10
160.8237345990238
 20
203.3250742638181
 30
0.0
 10
160.434711293249
 20
203.6681562876623
 30
0.0
 10
160.0921486065856
 20
204.0704433121878
 30
0.0
 10
159.8028470683776
 20
204.5208200857721
 30
0.0
 10
159.5726368308282
 20
205.0177305498158
 30
0.0
 10
159.4702834864381
 20
205.3716033110518
 30
0.0
 10
159.418063067354
 20
205.5521483045187
 30
0.0
  0
LINE
  5
C2
330
1F
100
AcDbEntity
  8
0
  6
Continuous
 62
     7
370
    25
100
AcDbLine
 10
163.6886630609
 20
202.6693255509
 30
0.0
 11
163.1041916088
 21
205.004196864
 31
0.0
  0
SPLINE
  5
C3
330
1F
100
AcDbEntity
  8
0
  6
Continuous
 62
     7
370
    25
100
AcDbSpline
210
0.0
220
0.0
230
1.0
 70
     8
 71
     3
 72
    19
 73
    15
 74
     0
 42
0.00000001
 43
0.00000001
 40
0.0
 40
0.0
 40
0.0
 40
0.0
 40
0.0616116593005988
 40
0.1212705191311152
 40
0.1797157323456118
 40
0.2371872385379489
 40
0.2950430131557312
 40
0.3538955561527654
 40
0.4138149994794463
 40
0.475471597997762
 40
0.5376203832689452
 40
0.5997580257726228
 40
0.6625276491405124
 40
0.6827507264506929
 40
0.6827507264506929
 40
0.6827507264506929
 40
0.6827507264506929
 10
161.6517569776104
 20
206.3357220224675
 30
0.0
 10
161.6680091255055
 20
206.2749766268357
 30
0.0
 10
161.6999983047389
 20
206.1554111785632
 30
0.0
 10
161.7742110438631
 20
205.9874496778785
 30
0.0
 10
161.8566431058423
 20
205.8284201652797
 30
0.0
 10
161.9575146924454
 20
205.6823092749011
 30
0.0
 10
162.0725977204541
 20
205.5468491497837
 30
0.0
 10
162.2024373168196
 20
205.4216782256107
 30
0.0
 10
162.3484799180885
 20
205.3093463745014
 30
0.0
 10
162.508130508365
 20
205.2109994352379
 30
0.0
 10
162.678222421619
 20
205.1267497077566
 30
0.0
 10
162.8573309349046
 20
205.0605822377943
 30
0.0
 10
163.000617260484
 20
205.022771390776
 30
0.0
 10
163.0838496844035
 20
205.0075522570566
 30
0.0
 10
163.1041915993813
 20
205.0041968616324
 30
0.0
  0
SPLINE
  5
C4
330
1F
100
AcDbEntity
  8
0
  6
Continuous
 62
     7
370
    25
100
AcDbSpline
210
0.0
220
0.0
230
1.0
 70
     8
 71
     3
 72
    15
 73
    11
 74
     0
 42
0.00000001
 43
0.00000001
 40
0.0
 40
0.0
 40
0.0
 40
0.0
 40
0.1382426921050522
 40
0.2688106143850741
 40
0.3960448505699286
 40
0.5256456702320116
 40
0.6509882998898096
 40
0.7679930919955553
 40
0.8827719218615226
 40
1.0
 40
1.0
 40
1.0
 40
1.0
 10
163.2112722019694
 20
208.5719600032367
 30
0.0
 10
163.0769432014663
 20
208.5330058961001
 30
0.0
 10
162.815742695276
 20
208.4572602829849
 30
0.0
 10
162.4649578558918
 20
208.2597109416346
 30
0.0
 10
162.1593118687998
 20
208.0126629285881
 30
0.0
 10
161.9158045619798
 20
207.7111039215835
 30
0.0
 10
161.7258826222834
 20
207.3845553034672
 30
0.0
 10
161.6211274881275
 20
207.0375451262925
 30
0.0
 10
161.5833373511162
 20
206.6831455716152
 30
0.0
 10
161.6287904890307
 20
206.4523420536289
 30
0.0
 10
161.6517569776104
 20
206.3357220224675
 30
0.0
  0
SPLINE
  5
C5
330
1F
100
AcDbEntity
  8
0
  6
Continuous
 62
     7
370
    25
100
AcDbSpline
210
0.0
220
0.0
230
1.0
 70
     8
 71
     3
 72
    19
 73
    15
 74
     0
 42
0.00000001
 43
0.00000001
 40
0.0
 40
0.0
 40
0.0
 40
0.0
 40
0.0633330113129887
 40
0.1248809962672095
 40
0.1851039638308997
 40
0.2443734420144795
 40
0.3034096337652522
 40
0.3629055368380284
 40
0.424148070849962
 40
0.4871955068097713
 40
0.6126771580141033
 40
0.736589641626064
 40
0.8644678069194571
 40
1.0
 40
1.0
 40
1.0
 40
1.0
 10
165.5874340609437
 20
207.2693959006725
 30
0.0
 10
165.5697048385707
 20
207.3307416777469
 30
0.0
 10
165.5347460878801
 20
207.4517042152766
 30
0.0
 10
165.4668966138733
 20
207.6260193376849
 30
0.0
 10
165.3793747334031
 20
207.7866066090635
 30
0.0
 10
165.2775529882491
 20
207.9354949037824
 30
0.0
 10
165.1587416193866
 20
208.0700575040879
 30
0.0
 10
165.0290576198559
 20
208.1970917997311
 30
0.0
 10
164.8803125841562
 20
208.3083793786522
 30
0.0
 10
164.6649948220247
 20
208.4393126136436
 30
0.0
 10
164.3740931589132
 20
208.5655694657215
 30
0.0
 10
164.0000758783029
 20
208.6460061407009
 30
0.0
 10
163.6063818293998
 20
208.6514586611642
 30
0.0
 10
163.3455022411508
 20
208.5989679707162
 30
0.0
 10
163.2112722019694
 20
208.5719600032367
 30
0.0
  0
SPLINE
  5
C6
330
1F
100
AcDbEntity
  8
0
  6
Continuous
 62
     7
370
    25
100
AcDbSpline
210
0.0
220
0.0
230
1.0
 70
     8
 71
     3
 72
    21
 73
    17
 74
     0
 42
0.00000001
 43
0.00000001
 40
0.1844655984682609
 40
0.1844655984682609
 40
0.1844655984682609
 40
0.1844655984682609
 40
0.2134338401127689
 40
0.2783222590911286
 40
0.341683417368771
 40
0.4031802684587728
 40
0.4639866107746938
 40
0.5248104571956588
 40
0.584912455180992
 40
0.643337971174736
 40
0.7011468256573504
 40
0.7588081769751076
 40
0.8163956350314291
 40
0.8753652182684173
 40
0.9363929082851448
 40
1.0
 40
1.0
 40
1.0
 40
1.0
 10
164.5904478068922
 20
205.2439909010611
 30
0.0
 10
164.6168285341483
 20
205.2564201219262
 30
0.0
 10
164.7017106052711
 20
205.2979501863746
 30
0.0
 10
164.8403693265009
 20
205.3749150123326
 30
0.0
 10
164.9947764872306
 20
205.4879679467312
 30
0.0
 10
165.1364616036497
 20
205.610205984787
 30
0.0
 10
165.2620028006148
 20
205.7458478829226
 30
0.0
 10
165.3701963336858
 20
205.8936495580045
 30
0.0
 10
165.4653526518805
 20
206.0474947776599
 30
0.0
 10
165.5388460646309
 20
206.2094769936036
 30
0.0
 10
165.5962203837058
 20
206.3752517092521
 30
0.0
 10
165.63091354867
 20
206.5464153532816
 30
0.0
 10
165.6489957543331
 20
206.7210908889165
 30
0.0
 10
165.6492981942108
 20
206.9002122168622
 30
0.0
 10
165.6284050791537
 20
207.0842984341319
 30
0.0
 10
165.6012782034038
 20
207.2068513067685
 30
0.0
 10
165.5874340609437
 20
207.2693959006725
 30
0.0
  0
LINE
  5
C7
330
1F
100
AcDbEntity
  8
0
  6
Continuous
 62
     7
370
    25
100
AcDbLine
 10
165.1524961247
 20
202.9986964742
 30
0.0
 11
164.5904478069
 21
205.2439909011
 31
0.0
  0
SPLINE
  5
C8
330
1F
100
AcDbEntity
  8
0
  6
Continuous
 62
     7
370
    25
100
AcDbSpline
210
0.0
220
0.0
230
1.0
 70
     8
 71
     3
 72
    22
 73
    18
 74
     0
 42
0.00000001
 43
0.00000001
 40
0.0
 40
0.0
 40
0.0
 40
0.0
 40
0.0816084410005527
 40
0.161229502448448
 40
0.2410402371175001
 40
0.3217529844069514
 40
0.4014862224828291
 40
0.4790190736977539
 40
0.5557504354348037
 40
0.6332583054962013
 40
0.6730421665701376
 40
0.7141500928686889
 40
0.7569098785483784
 40
0.8014427220303489
 40
0.8479200804486345
 40
0.8961650985082644
 40
0.9213726529744026
 40
0.9213726529744026
 40
0.9213726529744026
 40
0.9213726529744026
 10
167.9406992853027
 20
207.6917116058008
 30
0.0
 10
167.9776122570151
 20
207.5160269500724
 30
0.0
 10
168.0505392727763
 20
207.1689360207072
 30
0.0
 10
168.0774969570872
 20
206.6377022384463
 30
0.0
 10
168.0311753821012
 20
206.1105330241365
 30
0.0
 10
167.9134843729958
 20
205.5944685826639
 30
0.0
 10
167.7355644669928
 20
205.1010731244921
 30
0.0
 10
167.4911000573307
 20
204.6468237876504
 30
0.0
 10
167.1892437074678
 20
204.23424325962
 30
0.0
 10
166.8845397542482
 20
203.9339472698784
 30
0.0
 10
166.6155800979418
 20
203.7125305755499
 30
0.0
 10
166.3892555924424
 20
203.5617544707152
 30
0.0
 10
166.148384310956
 20
203.4144949899943
 30
0.0
 10
165.8844321572319
 20
203.2846357508752
 30
0.0
 10
165.6056008578069
 20
203.1584120719407
 30
0.0
 10
165.3583460468304
 20
203.0668060931353
 30
0.0
 10
165.2052422711338
 20
203.0156093861774
 30
0.0
 10
165.1524961245905
 20
202.9986964745792
 30
0.0
  0
SPLINE
  5
C9
330
1F
100
AcDbEntity
  8
0
  6
Continuous
 62
     7
370
    25
100
AcDbSpline
210
0.0
220
0.0
230
1.0
 70
     8
 71
     3
 72
    15
 73
    11
 74
     0
 42
0.00000001
 43
0.00000001
 40
0.0
 40
0.0
 40
0.0
 40
0.0
 40
0.1281283994012858
 40
0.2530055727628869
 40
0.3767002752265458
 40
0.5013401553031249
 40
0.6261648240357698
 40
0.7494193944260037
 40
0.8731004198990785
 40
1.0
 40
1.0
 40
1.0
 40
1.0
 10
165.3940847019694
 20
210.4418518301597
 30
0.0
 10
165.5510727982576
 20
210.3840319103081
 30
0.0
 10
165.8610654572151
 20
210.2698592365876
 30
0.0
 10
166.2912680560045
 20
210.0287078739384
 30
0.0
 10
166.6843805733271
 20
209.7397306077511
 30
0.0
 10
167.0345039972245
 20
209.3998803602648
 30
0.0
 10
167.3426017012201
 20
209.0224019356112
 30
0.0
 10
167.598475660506
 20
208.60929402379
 30
0.0
 10
167.8037345064748
 20
208.1651079759862
 30
0.0
 10
167.8946550859474
 20
207.8508558546318
 30
0.0
 10
167.9406992853027
 20
207.6917116058008
 30
0.0
  0
SPLINE
  5
CA
330
1F
100
AcDbEntity
  8
0
  6
Continuous
 62
     7
370
    25
100
AcDbSpline
210
0.0
220
0.0
230
1.0
 70
     8
 71
     3
 72
    15
 73
    11
 74
     0
 42
0.00000001
 43
0.00000001
 40
0.0
 40
0.0
 40
0.0
 40
0.0
 40
0.1153870108545282
 40
0.2273276419911895
 40
0.3369362101352051
 40
0.4463552228874145
 40
0.5624861167249618
 40
0.6919767845589659
 40
0.8384327713711646
 40
1.0
 40
1.0
 40
1.0
 40
1.0
 10
165.9130750865848
 20
213.217432759647
 30
0.0
 10
165.9373017537012
 20
213.1084303290382
 30
0.0
 10
165.9850314857403
 20
212.8936811528692
 30
0.0
 10
166.0181842911661
 20
212.5686124776873
 30
0.0
 10
166.0149380432668
 20
212.2480619400419
 30
0.0
 10
165.9799603107791
 20
211.9250633519226
 30
0.0
 10
165.8992445121586
 20
211.5905653365808
 30
0.0
 10
165.7781817487661
 20
211.230741433431
 30
0.0
 10
165.6057869203098
 20
210.8436987966632
 30
0.0
 10
165.4669229403615
 20
210.5801112464889
 30
0.0
 10
165.3940847019694
 20
210.4418518301597
 30
0.0
  0
SPLINE
  5
CB
330
1F
100
AcDbEntity
  8
0
  6
Continuous
 62
     7
370
    25
100
AcDbSpline
210
0.0
220
0.0
230
1.0
 70
     8
 71
     3
 72
    18
 73
    14
 74
     0
 42
0.00000001
 43
0.00000001
 40
0.0958578274638781
 40
0.0958578274638781
 40
0.0958578274638781
 40
0.0958578274638781
 40
0.1815721059878171
 40
0.2668384864895924
 40
0.3498540323325187
 40
0.431630846046791
 40
0.5117442690883343
 40
0.5919947224964391
 40
0.6743633977216807
 40
0.7565575417514674
 40
0.8374146066959391
 40
0.9179408150704156
 40
0.9999999999999999
 40
0.9999999999999999
 40
0.9999999999999999
 40
0.9999999999999999
 10
161.934822981344
 20
215.8527934389725
 30
0.0
 10
162.0987384433587
 20
215.8755206915307
 30
0.0
 10
162.4293501887816
 20
215.8975349637067
 30
0.0
 10
162.9206379807529
 20
215.8777127371494
 30
0.0
 10
163.3973678334791
 20
215.7903231392327
 30
0.0
 10
163.8482271457203
 20
215.6427845735837
 30
0.0
 10
164.2705517468025
 20
215.438136959844
 30
0.0
 10
164.6587603609239
 20
215.1722021816075
 30
0.0
 10
165.0088753345827
 20
214.8524807711771
 30
0.0
 10
165.3192178899862
 20
214.4925900312426
 30
0.0
 10
165.5788242301349
 20
214.0986628113973
 30
0.0
 10
165.7808908112607
 20
213.6716944721436
 30
0.0
 10
165.8687375665305
 20
213.3698021525897
 30
0.0
 10
165.9130750865848
 20
213.217432759647
 30
0.0
  0
LINE
  5
CC
330
1F
100
AcDbEntity
  8
0
  6
Continuous
 62
     7
370
    25
100
AcDbLine
 10
162.519716587
 20
213.5162356884
 30
0.0
 11
161.9348229813
 21
215.852793439
 31
0.0
  0
SPLINE
  5
CD
330
1F
100
AcDbEntity
  8
0
  6
Continuous
 62
     7
370
    25
100
AcDbSpline
210
0.0
220
0.0
230
1.0
 70
     8
 71
     3
 72
    13
 73
     9
 74
     0
 42
0.00000001
 43
0.00000001
 40
0.0
 40
0.0
 40
0.0
 40
0.0
 40
0.1313504835404807
 40
0.2531519384659244
 40
0.3715629916555901
 40
0.4922001844419097
 40
0.612933934203538
 40
0.7132801082200753
 40
0.7132801082200753
 40
0.7132801082200753
 40
0.7132801082200753
 10
163.613235342995
 20
212.4872845224675
 30
0.0
 10
163.5844352085435
 20
212.5810493015834
 30
0.0
 10
163.5289286761886
 20
212.7617622685495
 30
0.0
 10
163.3914444859989
 20
213.005246422345
 30
0.0
 10
163.2084652020852
 20
213.2050096981387
 30
0.0
 10
162.9895055217411
 20
213.3631020097712
 30
0.0
 10
162.7548214530016
 20
213.4665166971942
 30
0.0
 10
162.5937856038834
 20
213.5049919325824
 30
0.0
 10
162.5197165899349
 20
213.5162356891704
 30
0.0
  0
SPLINE
  5
CE
330
1F
100
AcDbEntity
  8
0
  6
Continuous
 62
     7
370
    25
100
AcDbSpline
210
0.0
220
0.0
230
1.0
 70
     8
 71
     3
 72
    15
 73
    11
 74
     0
 42
0.00000001
 43
0.00000001
 40
0.0
 40
0.0
 40
0.0
 40
0.0
 40
0.1297138970080854
 40
0.2508995999962612
 40
0.36975764366939
 40
0.4908018020856251
 40
0.6133473407851667
 40
0.7366779061354871
 40
0.8629088480787657
 40
1.0
 40
1.0
 40
1.0
 40
1.0
 10
162.6134156314565
 20
210.7395080801598
 30
0.0
 10
162.70738377689
 20
210.7670327899882
 30
0.0
 10
162.8891420205745
 20
210.8202725649489
 30
0.0
 10
163.1316369302145
 20
210.9624525912833
 30
0.0
 10
163.3339452991665
 20
211.1465725202564
 30
0.0
 10
163.4941459121797
 20
211.3694828875144
 30
0.0
 10
163.6108740029325
 20
211.6221196631018
 30
0.0
 10
163.6676623167245
 20
211.8982223118973
 30
0.0
 10
163.674707051183
 20
212.1913977721271
 30
0.0
 10
163.6342816679474
 20
212.3859805424685
 30
0.0
 10
163.613235342995
 20
212.4872845224675
 30
0.0
  0
SPLINE
  5
CF
330
1F
100
AcDbEntity
  8
0
  6
Continuous
 62
     7
370
    25
100
AcDbSpline
210
0.0
220
0.0
230
1.0
 70
     8
 71
     3
 72
    15
 73
    11
 74
     0
 42
0.00000001
 43
0.00000001
 40
0.0
 40
0.0
 40
0.0
 40
0.0
 40
0.131154157669599
 40
0.2558758448482167
 40
0.3782570947103146
 40
0.504828133502997
 40
0.6298341311860643
 40
0.7505318981905776
 40
0.8722361852115129
 40
1.0
 40
1.0
 40
1.0
 40
1.0
 10
160.9012561763283
 20
211.7902092019546
 30
0.0
 10
160.9297888358004
 20
211.6962556933143
 30
0.0
 10
160.9854547672348
 20
211.5129566364871
 30
0.0
 10
161.130069863938
 20
211.2676285080703
 30
0.0
 10
161.3138315626814
 20
211.0555950047086
 30
0.0
 10
161.5394583979906
 20
210.8880103443776
 30
0.0
 10
161.7903965499073
 20
210.7643675096837
 30
0.0
 10
162.0580910293677
 20
210.6980561273999
 30
0.0
 10
162.3367294986859
 20
210.6817374246013
 30
0.0
 10
162.5197054381605
 20
210.7199418689983
 30
0.0
 10
162.6134156314565
 20
210.7395080801598
 30
0.0
  0
SPLINE
  5
D0
330
1F
100
AcDbEntity
  8
0
  6
Continuous
 62
     7
370
    25
100
AcDbSpline
210
0.0
220
0.0
230
1.0
 70
     8
 71
     3
 72
    12
 73
     8
 74
     0
 42
0.00000001
 43
0.00000001
 40
0.4305760886839792
 40
0.4305760886839792
 40
0.4305760886839792
 40
0.4305760886839792
 40
0.4954309017615806
 40
0.6185516649396937
 40
0.7404575277263454
 40
0.8652560168084534
 40
1.0
 40
1.0
 40
1.0
 40
1.0
 10
161.1090553576238
 20
212.9744516648345
 30
0.0
 10
161.0810098921216
 20
212.9364326163828
 30
0.0
 10
161.0055072819586
 20
212.8219419756449
 30
0.0
 10
160.9100292357581
 20
212.6158163549485
 30
0.0
 10
160.8523322473073
 20
212.3514999097602
 30
0.0
 10
160.8420083661947
 20
212.0717935422986
 30
0.0
 10
160.8810087500673
 20
211.8864382128588
 30
0.0
 10
160.9012561763283
 20
211.7902092019546
 30
0.0
  0
LINE
  5
D1
330
1F
100
AcDbEntity
  8
0
  6
Continuous
 62
     7
370
    25
100
AcDbLine
 10
161.1090553585
 20
212.9744516651
 30
0.0
 11
160.494553792
 21
215.4292885516
 31
0.0
  0
LINE
  5
D2
330
1F
100
AcDbEntity
  8
0
  6
Continuous
 62
     7
370
    25
100
AcDbLine
 10
154.6602733414
 20
205.6615191533
 30
0.0
 11
153.6248366426
 21
209.7752811726
 31
0.0
  0
LINE
  5
D3
330
1F
100
AcDbEntity
  8
0
  6
Continuous
 62
     7
370
    25
100
AcDbLine
 10
154.6592313834
 20
205.6612572456
 30
0.0
 11
154.6602733414
 21
205.6615191533
 31
0.0
  0
LINE
  5
D4
330
1F
100
AcDbEntity
  8
0
  6
Continuous
 62
     7
370
    25
100
AcDbLine
 10
155.8356339183
 20
200.9778853392
 30
0.0
 11
154.6592313834
 21
205.6612572456
 31
0.0
  0
LINE
  5
D5
330
1F
100
AcDbEntity
  8
0
  6
Continuous
 62
     7
370
    25
100
AcDbLine
 10
158.1227533093
 20
201.5503012046
 30
0.0
 11
155.8356339183
 21
200.9778853392
 31
0.0
  0
LINE
  5
D6
330
1F
100
AcDbEntity
  8
0
  6
Continuous
 62
     7
370
    25
100
AcDbLine
 10
157.4892797516
 20
204.0714750828
 30
0.0
 11
158.1227533093
 21
201.5503012046
 31
0.0
  0
LINE
  5
D7
330
1F
100
AcDbEntity
  8
0
  6
Continuous
 62
     7
370
    25
100
AcDbLine
 10
158.5832300721
 20
204.3487787687
 30
0.0
 11
157.4892797516
 21
204.0714750828
 31
0.0
  0
LINE
  5
D8
330
1F
100
AcDbEntity
  8
0
  6
Continuous
 62
     7
370
    25
100
AcDbLine
 10
158.0413430529
 20
206.5112387046
 30
0.0
 11
158.5832300721
 21
204.3487787687
 31
0.0
  0
LINE
  5
D9
330
1F
100
AcDbEntity
  8
0
  6
Continuous
 62
     7
370
    25
100
AcDbLine
 10
156.9473927324
 20
206.2339350187
 30
0.0
 11
158.0413430529
 21
206.5112387046
 31
0.0
  0
LINE
  5
DA
330
1F
100
AcDbEntity
  8
0
  6
Continuous
 62
     7
370
    25
100
AcDbLine
 10
154.9604736619
 20
214.138362102
 30
0.0
 11
156.9473927324
 21
206.2339350187
 31
0.0
  0
LINE
  5
DB
330
1F
100
AcDbEntity
  8
0
  6
Continuous
 62
     7
370
    25
100
AcDbLine
 10
152.6250169311
 20
213.5532258841
 30
0.0
 11
154.9604736619
 21
214.138362102
 31
0.0
  0
LINE
  5
DC
330
1F
100
AcDbEntity
  8
0
  6
Continuous
 62
     7
370
    25
100
AcDbLine
 10
149.3024608414
 20
204.315705852
 30
0.0
 11
152.6250169311
 21
213.5532258841
 31
0.0
  0
LINE
  5
DD
330
1F
100
AcDbEntity
  8
0
  6
Continuous
 62
     7
370
    25
100
AcDbLine
 10
149.8443478606
 20
202.1532459161
 30
0.0
 11
149.3024608414
 21
204.315705852
 31
0.0
  0
LINE
  5
DE
330
1F
100
AcDbEntity
  8
0
  6
Continuous
 62
     7
370
    25
100
AcDbLine
 10
153.7475299948
 20
203.1336748568
 30
0.0
 11
149.8443478606
 21
202.1532459161
 31
0.0
  0
LINE
  5
DF
330
1F
100
AcDbEntity
  8
0
  6
Continuous
 62
     7
370
    25
100
AcDbLine
 10
153.7475299948
 20
203.1336748568
 30
0.0
 11
153.2044847236
 21
205.2955904354
 31
0.0
  0
LINE
  5
E0
330
1F
100
AcDbEntity
  8
0
  6
Continuous
 62
     7
370
    25
100
AcDbLine
 10
151.8567076362
 20
204.9568116213
 30
0.0
 11
153.2044847236
 21
205.2955904354
 31
0.0
  0
LINE
  5
E1
330
1F
100
AcDbEntity
  8
0
  6
Continuous
 62
     7
370
    25
100
AcDbLine
 10
153.6248366426
 20
209.7752811726
 30
0.0
 11
151.8567076362
 21
204.9568116213
 31
0.0
  0
LINE
  5
E2
330
1F
100
AcDbEntity
  8
0
  6
Continuous
 62
     7
370
    25
100
AcDbLine
 10
227.1849804388
 20
134.5871920108
 30
0.0
 11
222.8548534199
 21
132.0871920108
 31
0.0
  0
LINE
  5
E3
330
1F
100
AcDbEntity
  8
0
  6
Continuous
 62
     7
370
    25
100
AcDbLine
 10
222.8548534199
 20
132.0871920108
 30
0.0
 11
222.8548534199
 21
127.0871920108
 31
0.0
  0
LINE
  5
E4
330
1F
100
AcDbEntity
  8
0
  6
Continuous
 62
     7
370
    25
100
AcDbLine
 10
222.8548534199
 20
127.0871920108
 30
0.0
 11
227.1849804388
 21
124.5871920108
 31
0.0
  0
LINE
  5
E5
330
1F
100
AcDbEntity
  8
0
  6
Continuous
 62
     7
370
    25
100
AcDbLine
 10
227.1849804388
 20
124.5871920108
 30
0.0
 11
231.5151074577
 21
127.0871920108
 31
0.0
  0
LINE
  5
E6
330
1F
100
AcDbEntity
  8
0
  6
Continuous
 62
     7
370
    25
100
AcDbLine
 10
231.5151074577
 20
127.0871920108
 30
0.0
 11
231.5151074577
 21
132.0871920108
 31
0.0
  0
LINE
  5
E7
330
1F
100
AcDbEntity
  8
0
  6
Continuous
 62
     7
370
    25
100
AcDbLine
 10
231.5151074577
 20
132.0871920108
 30
0.0
 11
227.1849804388
 21
134.5871920108
 31
0.0
  0
LINE
  5
E8
330
1F
100
AcDbEntity
  8
0
  6
Continuous
 62
     7
370
    25
100
AcDbLine
 10
220.3548534199
 20
122.7570649918
 30
0.0
 11
216.0247264009
 21
120.2570649918
 31
0.0
  0
LINE
  5
E9
330
1F
100
AcDbEntity
  8
0
  6
Continuous
 62
     7
370
    25
100
AcDbLine
 10
216.0247264009
 20
120.2570649918
 30
0.0
 11
216.0247264009
 21
115.2570649918
 31
0.0
  0
LINE
  5
EA
330
1F
100
AcDbEntity
  8
0
  6
Continuous
 62
     7
370
    25
100
AcDbLine
 10
216.0247264009
 20
115.2570649918
 30
0.0
 11
220.3548534199
 21
112.7570649918
 31
0.0
  0
LINE
  5
EB
330
1F
100
AcDbEntity
  8
0
  6
Continuous
 62
     7
370
    25
100
AcDbLine
 10
220.3548534199
 20
112.7570649918
 30
0.0
 11
224.6849804388
 21
115.2570649918
 31
0.0
  0
LINE
  5
EC
330
1F
100
AcDbEntity
  8
0
  6
Continuous
 62
     7
370
    25
100
AcDbLine
 10
224.6849804388
 20
115.2570649918
 30
0.0
 11
224.6849804388
 21
120.2570649918
 31
0.0
  0
LINE
  5
ED
330
1F
100
AcDbEntity
  8
0
  6
Continuous
 62
     7
370
    25
100
AcDbLine
 10
224.6849804388
 20
120.2570649918
 30
0.0
 11
220.3548534199
 21
122.7570649918
 31
0.0
  0
LINE
  5
EE
330
1F
100
AcDbEntity
  8
0
  6
Continuous
 62
     7
370
    25
100
AcDbLine
 10
227.1849804388
 20
110.9269379729
 30
0.0
 11
222.8548534199
 21
108.4269379729
 31
0.0
  0
LINE
  5
EF
330
1F
100
AcDbEntity
  8
0
  6
Continuous
 62
     7
370
    25
100
AcDbLine
 10
222.8548534199
 20
108.4269379729
 30
0.0
 11
222.8548534199
 21
103.4269379729
 31
0.0
  0
LINE
  5
F0
330
1F
100
AcDbEntity
  8
0
  6
Continuous
 62
     7
370
    25
100
AcDbLine
 10
222.8548534199
 20
103.4269379729
 30
0.0
 11
227.1849804388
 21
100.9269379729
 31
0.0
  0
LINE
  5
F1
330
1F
100
AcDbEntity
  8
0
  6
Continuous
 62
     7
370
    25
100
AcDbLine
 10
227.1849804388
 20
100.9269379729
 30
0.0
 11
231.5151074577
 21
103.4269379729
 31
0.0
  0
LINE
  5
F2
330
1F
100
AcDbEntity
  8
0
  6
Continuous
 62
     7
370
    25
100
AcDbLine
 10
231.5151074577
 20
103.4269379729
 30
0.0
 11
231.5151074577
 21
108.4269379729
 31
0.0
  0
LINE
  5
F3
330
1F
100
AcDbEntity
  8
0
  6
Continuous
 62
     7
370
    25
100
AcDbLine
 10
231.5151074577
 20
108.4269379729
 30
0.0
 11
227.1849804388
 21
110.9269379729
 31
0.0
  0
LINE
  5
F4
330
1F
100
AcDbEntity
  8
0
  6
Continuous
 62
     7
370
    25
100
AcDbLine
 10
234.0151074577
 20
122.7570649918
 30
0.0
 11
229.6849804388
 21
120.2570649918
 31
0.0
  0
LINE
  5
F5
330
1F
100
AcDbEntity
  8
0
  6
Continuous
 62
     7
370
    25
100
AcDbLine
 10
229.6849804388
 20
120.2570649918
 30
0.0
 11
229.6849804388
 21
115.2570649918
 31
0.0
  0
LINE
  5
F6
330
1F
100
AcDbEntity
  8
0
  6
Continuous
 62
     7
370
    25
100
AcDbLine
 10
229.6849804388
 20
115.2570649918
 30
0.0
 11
234.0151074577
 21
112.7570649918
 31
0.0
  0
LINE
  5
F7
330
1F
100
AcDbEntity
  8
0
  6
Continuous
 62
     7
370
    25
100
AcDbLine
 10
234.0151074577
 20
112.7570649918
 30
0.0
 11
238.3452344766
 21
115.2570649918
 31
0.0
  0
LINE
  5
F8
330
1F
100
AcDbEntity
  8
0
  6
Continuous
 62
     7
370
    25
100
AcDbLine
 10
238.3452344766
 20
115.2570649918
 30
0.0
 11
238.3452344766
 21
120.2570649918
 31
0.0
  0
LINE
  5
F9
330
1F
100
AcDbEntity
  8
0
  6
Continuous
 62
     7
370
    25
100
AcDbLine
 10
238.3452344766
 20
120.2570649918
 30
0.0
 11
234.0151074577
 21
122.7570649918
 31
0.0
  0
ARC
  5
FA
330
1F
100
AcDbEntity
  8
0
  6
Continuous
 62
     7
370
    25
100
AcDbCircle
 10
198.194599382
 20
136.882575459
 30
0.0
 40
1.0
100
AcDbArc
 50
0.0
 51
90.0
  0
LINE
  5
FB
330
1F
100
AcDbEntity
  8
0
  6
Continuous
 62
     7
370
    25
100
AcDbLine
 10
187.494599382
 20
137.882575459
 30
0.0
 11
198.194599382
 21
137.882575459
 31
0.0
  0
LINE
  5
FC
330
1F
100
AcDbEntity
  8
0
  6
Continuous
 62
     7
370
    25
100
AcDbLine
 10
187.494599382
 20
137.882575459
 30
0.0
 11
187.494599382
 21
143.682575459
 31
0.0
  0
LINE
  5
FD
330
1F
100
AcDbEntity
  8
0
  6
Continuous
 62
     7
370
    25
100
AcDbLine
 10
187.494599382
 20
143.682575459
 30
0.0
 11
190.694599382
 21
143.682575459
 31
0.0
  0
LINE
  5
FE
330
1F
100
AcDbEntity
  8
0
  6
Continuous
 62
     7
370
    25
100
AcDbLine
 10
190.694599382
 20
143.682575459
 30
0.0
 11
190.694599382
 21
145.882575459
 31
0.0
  0
LINE
  5
FF
330
1F
100
AcDbEntity
  8
0
  6
Continuous
 62
     7
370
    25
100
AcDbLine
 10
262.294599382
 20
145.882575459
 30
0.0
 11
190.694599382
 21
145.882575459
 31
0.0
  0
LINE
  5
100
330
1F
100
AcDbEntity
  8
0
  6
Continuous
 62
     7
370
    25
100
AcDbLine
 10
262.294599382
 20
143.682575459
 30
0.0
 11
262.294599382
 21
145.882575459
 31
0.0
  0
LINE
  5
101
330
1F
100
AcDbEntity
  8
0
  6
Continuous
 62
     7
370
    25
100
AcDbLine
 10
265.494599382
 20
143.682575459
 30
0.0
 11
262.294599382
 21
143.682575459
 31
0.0
  0
LINE
  5
102
330
1F
100
AcDbEntity
  8
0
  6
Continuous
 62
     7
370
    25
100
AcDbLine
 10
265.494599382
 20
143.682575459
 30
0.0
 11
265.494599382
 21
137.882575459
 31
0.0
  0
LINE
  5
103
330
1F
100
AcDbEntity
  8
0
  6
Continuous
 62
     7
370
    25
100
AcDbLine
 10
265.494599382
 20
137.882575459
 30
0.0
 11
253.794599382
 21
137.882575459
 31
0.0
  0
LINE
  5
104
330
1F
100
AcDbEntity
  8
0
  6
Continuous
 62
     7
370
    25
100
AcDbLine
 10
253.794599382
 20
137.882575459
 30
0.0
 11
253.794599382
 21
87.882575459
 31
0.0
  0
LINE
  5
105
330
1F
100
AcDbEntity
  8
0
  6
Continuous
 62
     7
370
    25
100
AcDbLine
 10
265.494599382
 20
87.882575459
 30
0.0
 11
253.794599382
 21
87.882575459
 31
0.0
  0
LINE
  5
106
330
1F
100
AcDbEntity
  8
0
  6
Continuous
 62
     7
370
    25
100
AcDbLine
 10
265.494599382
 20
83.082575459
 30
0.0
 11
262.294599382
 21
83.082575459
 31
0.0
  0
LINE
  5
107
330
1F
100
AcDbEntity
  8
0
  6
Continuous
 62
     7
370
    25
100
AcDbLine
 10
262.294599382
 20
80.882575459
 30
0.0
 11
262.294599382
 21
83.082575459
 31
0.0
  0
LINE
  5
108
330
1F
100
AcDbEntity
  8
0
  6
Continuous
 62
     7
370
    25
100
AcDbLine
 10
190.694599382
 20
80.882575459
 30
0.0
 11
190.694599382
 21
83.082575459
 31
0.0
  0
LINE
  5
109
330
1F
100
AcDbEntity
  8
0
  6
Continuous
 62
     7
370
    25
100
AcDbLine
 10
187.494599382
 20
83.082575459
 30
0.0
 11
190.694599382
 21
83.082575459
 31
0.0
  0
LINE
  5
10A
330
1F
100
AcDbEntity
  8
0
  6
Continuous
 62
     7
370
    25
100
AcDbLine
 10
187.494599382
 20
87.882575459
 30
0.0
 11
200.194599382
 21
87.882575459
 31
0.0
  0
ARC
  5
10B
330
1F
100
AcDbEntity
  8
0
  6
Continuous
 62
     7
370
    25
100
AcDbCircle
 10
200.194599382
 20
92.882575459
 30
0.0
 40
5.0
100
AcDbArc
 50
270.0
 51
0.0
  0
LINE
  5
10C
330
1F
100
AcDbEntity
  8
0
  6
Continuous
 62
     7
370
    25
100
AcDbLine
 10
205.194599382
 20
92.882575459
 30
0.0
 11
205.194599382
 21
106.882575459
 31
0.0
  0
ARC
  5
10D
330
1F
100
AcDbEntity
  8
0
  6
Continuous
 62
     7
370
    25
100
AcDbCircle
 10
200.194599382
 20
106.882575459
 30
0.0
 40
5.0
100
AcDbArc
 50
0.0
 51
90.0
  0
ARC
  5
10E
330
1F
100
AcDbEntity
  8
0
  6
Continuous
 62
     7
370
    25
100
AcDbCircle
 10
200.194599382
 20
112.882575459
 30
0.0
 40
1.0
100
AcDbArc
 50
180.0
 51
270.0
  0
LINE
  5
10F
330
1F
100
AcDbEntity
  8
0
  6
Continuous
 62
     7
370
    25
100
AcDbLine
 10
199.194599382
 20
136.882575459
 30
0.0
 11
199.194599382
 21
112.882575459
 31
0.0
  0
CIRCLE
  5
110
330
1F
100
AcDbEntity
  8
0
  6
Continuous
 62
     7
370
    25
100
AcDbCircle
 10
202.4306415553
 20
139.452575539
 30
0.0
 40
2.0
  0
CIRCLE
  5
111
330
1F
100
AcDbEntity
  8
0
  6
Continuous
 62
     7
370
    25
100
AcDbCircle
 10
250.6906415553
 20
138.182575539
 30
0.0
 40
2.0
  0
CIRCLE
  5
112
330
1F
100
AcDbEntity
  8
0
  6
Continuous
 62
     7
370
    25
100
AcDbCircle
 10
235.4506415553
 20
87.382575539
 30
0.0
 40
2.0
  0
LINE
  5
113
330
1F
100
AcDbEntity
  8
0
  6
Continuous
 62
     7
370
    25
100
AcDbLine
 10
240.8452344766
 20
110.9269379729
 30
0.0
 11
236.5151074577
 21
108.4269379729
 31
0.0
  0
LINE
  5
114
330
1F
100
AcDbEntity
  8
0
  6
Continuous
 62
     7
370
    25
100
AcDbLine
 10
236.5151074577
 20
108.4269379729
 30
0.0
 11
236.5151074577
 21
103.4269379729
 31
0.0
  0
LINE
  5
115
330
1F
100
AcDbEntity
  8
0
  6
Continuous
 62
     7
370
    25
100
AcDbLine
 10
240.8452344766
 20
100.9269379729
 30
0.0
 11
243.794599382
 21
102.629754595
 31
0.0
  0
LINE
  5
116
330
1F
100
AcDbEntity
  8
0
  6
Continuous
 62
     7
370
    25
100
AcDbLine
 10
243.794599382
 20
102.629754595
 30
0.0
 11
243.794599382
 21
109.2241213509
 31
0.0
  0
LINE
  5
117
330
1F
100
AcDbEntity
  8
0
  6
Continuous
 62
     7
370
    25
100
AcDbLine
 10
243.794599382
 20
109.2241213509
 30
0.0
 11
240.8452344766
 21
110.9269379729
 31
0.0
  0
LINE
  5
118
330
1F
100
AcDbEntity
  8
0
  6
Continuous
 62
     7
370
    25
100
AcDbLine
 10
240.8452344766
 20
134.5871920108
 30
0.0
 11
236.5151074577
 21
132.0871920108
 31
0.0
  0
LINE
  5
119
330
1F
100
AcDbEntity
  8
0
  6
Continuous
 62
     7
370
    25
100
AcDbLine
 10
236.5151074577
 20
132.0871920108
 30
0.0
 11
236.5151074577
 21
127.0871920108
 31
0.0
  0
LINE
  5
11A
330
1F
100
AcDbEntity
  8
0
  6
Continuous
 62
     7
370
    25
100
AcDbLine
 10
236.5151074577
 20
127.0871920108
 30
0.0
 11
240.8452344766
 21
124.5871920108
 31
0.0
  0
LINE
  5
11B
330
1F
100
AcDbEntity
  8
0
  6
Continuous
 62
     7
370
    25
100
AcDbLine
 10
240.8452344766
 20
124.5871920108
 30
0.0
 11
243.794599382
 21
126.2900086328
 31
0.0
  0
LINE
  5
11C
330
1F
100
AcDbEntity
  8
0
  6
Continuous
 62
     7
370
    25
100
AcDbLine
 10
243.794599382
 20
126.2900086328
 30
0.0
 11
243.794599382
 21
130.9407109762
 31
0.0
  0
ARC
  5
11D
330
1F
100
AcDbEntity
  8
0
  6
Continuous
 62
     7
370
    25
100
AcDbCircle
 10
250.6906415553
 20
138.182575539
 30
0.0
 40
10.00000000000002
100
AcDbArc
 50
203.4790874593
 51
226.4012125988
  0
LINE
  5
11E
330
1F
100
AcDbEntity
  8
0
  6
Continuous
 62
     7
370
    25
100
AcDbLine
 10
241.5185860173
 20
134.1984323175
 30
0.0
 11
240.8452344766
 21
134.5871920108
 31
0.0
  0
LINE
  5
11F
330
1F
100
AcDbEntity
  8
0
  6
Continuous
 62
     7
370
    25
100
AcDbLine
 10
213.5247264009
 20
124.5871920108
 30
0.0
 11
217.8548534199
 21
127.0871920108
 31
0.0
  0
LINE
  5
120
330
1F
100
AcDbEntity
  8
0
  6
Continuous
 62
     7
370
    25
100
AcDbLine
 10
217.8548534199
 20
127.0871920108
 30
0.0
 11
217.8548534199
 21
132.0871920108
 31
0.0
  0
LINE
  5
121
330
1F
100
AcDbEntity
  8
0
  6
Continuous
 62
     7
370
    25
100
AcDbLine
 10
217.8548534199
 20
132.0871920108
 30
0.0
 11
213.5247264009
 21
134.5871920108
 31
0.0
  0
LINE
  5
122
330
1F
100
AcDbEntity
  8
0
  6
Continuous
 62
     7
370
    25
100
AcDbLine
 10
213.5247264009
 20
134.5871920108
 30
0.0
 11
209.194599382
 21
132.0871920108
 31
0.0
  0
LINE
  5
123
330
1F
100
AcDbEntity
  8
0
  6
Continuous
 62
     7
370
    25
100
AcDbLine
 10
209.194599382
 20
132.0871920108
 30
0.0
 11
209.194599382
 21
127.0871920108
 31
0.0
  0
LINE
  5
124
330
1F
100
AcDbEntity
  8
0
  6
Continuous
 62
     7
370
    25
100
AcDbLine
 10
209.194599382
 20
127.0871920108
 30
0.0
 11
213.5247264009
 21
124.5871920108
 31
0.0
  0
LINE
  5
125
330
1F
100
AcDbEntity
  8
0
  6
Continuous
 62
     7
370
    25
100
AcDbLine
 10
224.6849804388
 20
91.596810954
 30
0.0
 11
224.6849804388
 21
96.596810954
 31
0.0
  0
LINE
  5
126
330
1F
100
AcDbEntity
  8
0
  6
Continuous
 62
     7
370
    25
100
AcDbLine
 10
224.6849804388
 20
96.596810954
 30
0.0
 11
220.3548534199
 21
99.096810954
 31
0.0
  0
LINE
  5
127
330
1F
100
AcDbEntity
  8
0
  6
Continuous
 62
     7
370
    25
100
AcDbLine
 10
220.3548534199
 20
99.096810954
 30
0.0
 11
216.0247264009
 21
96.596810954
 31
0.0
  0
LINE
  5
128
330
1F
100
AcDbEntity
  8
0
  6
Continuous
 62
     7
370
    25
100
AcDbLine
 10
216.0247264009
 20
96.596810954
 30
0.0
 11
216.0247264009
 21
93.1235612652
 31
0.0
  0
LINE
  5
129
330
1F
100
AcDbEntity
  8
0
  6
Continuous
 62
     7
370
    25
100
AcDbLine
 10
223.4478882728
 20
90.882575459
 30
0.0
 11
224.6849804388
 21
91.596810954
 31
0.0
  0
ARC
  5
12A
330
1F
100
AcDbEntity
  8
0
  6
Continuous
 62
     7
370
    25
100
AcDbCircle
 10
220.194599382
 20
95.882575459
 30
0.0
 40
5.0
100
AcDbArc
 50
213.4907833641
 51
270.0
  0
LINE
  5
12B
330
1F
100
AcDbEntity
  8
0
  6
Continuous
 62
     7
370
    25
100
AcDbLine
 10
236.5151074577
 20
103.4269379729
 30
0.0
 11
240.8452344766
 21
100.9269379729
 31
0.0
  0
LINE
  5
12C
330
1F
100
AcDbEntity
  8
0
  6
Continuous
 62
     7
370
    25
100
AcDbLine
 10
262.294599382
 20
80.882575459
 30
0.0
 11
190.694599382
 21
80.882575459
 31
0.0
  0
LINE
  5
12D
330
1F
100
AcDbEntity
  8
0
  6
Continuous
 62
     7
370
    25
100
AcDbLine
 10
187.494599382
 20
83.082575459
 30
0.0
 11
187.494599382
 21
87.882575459
 31
0.0
  0
LINE
  5
12E
330
1F
100
AcDbEntity
  8
0
  6
Continuous
 62
     7
370
    25
100
AcDbLine
 10
265.494599382
 20
87.882575459
 30
0.0
 11
265.494599382
 21
83.082575459
 31
0.0
  0
LINE
  5
12F
330
1F
100
AcDbEntity
  8
0
  6
Continuous
 62
     7
370
    25
100
AcDbLine
 10
220.194599382
 20
90.882575459
 30
0.0
 11
223.4478882728
 21
90.882575459
 31
0.0
  0
LINE
  5
130
330
1F
100
AcDbEntity
  8
0
  6
Continuous
 62
     7
370
    25
100
AcDbLine
 10
332.1433857147
 20
199.7129012493
 30
0.0
 11
327.8132586958
 21
197.2129012493
 31
0.0
  0
LINE
  5
131
330
1F
100
AcDbEntity
  8
0
  6
Continuous
 62
     7
370
    25
100
AcDbLine
 10
327.8132586958
 20
197.2129012493
 30
0.0
 11
327.8132586958
 21
192.2129012493
 31
0.0
  0
LINE
  5
132
330
1F
100
AcDbEntity
  8
0
  6
Continuous
 62
     7
370
    25
100
AcDbLine
 10
327.8132586958
 20
192.2129012493
 30
0.0
 11
332.1433857147
 21
189.7129012493
 31
0.0
  0
LINE
  5
133
330
1F
100
AcDbEntity
  8
0
  6
Continuous
 62
     7
370
    25
100
AcDbLine
 10
332.1433857147
 20
189.7129012493
 30
0.0
 11
336.4735127336
 21
192.2129012493
 31
0.0
  0
LINE
  5
134
330
1F
100
AcDbEntity
  8
0
  6
Continuous
 62
     7
370
    25
100
AcDbLine
 10
336.4735127336
 20
192.2129012493
 30
0.0
 11
336.4735127336
 21
197.2129012493
 31
0.0
  0
LINE
  5
135
330
1F
100
AcDbEntity
  8
0
  6
Continuous
 62
     7
370
    25
100
AcDbLine
 10
336.4735127336
 20
197.2129012493
 30
0.0
 11
332.1433857147
 21
199.7129012493
 31
0.0
  0
LINE
  5
136
330
1F
100
AcDbEntity
  8
0
  6
Continuous
 62
     7
370
    25
100
AcDbLine
 10
338.9735127336
 20
187.8827742304
 30
0.0
 11
334.6433857147
 21
185.3827742304
 31
0.0
  0
LINE
  5
137
330
1F
100
AcDbEntity
  8
0
  6
Continuous
 62
     7
370
    25
100
AcDbLine
 10
334.6433857147
 20
185.3827742304
 30
0.0
 11
334.6433857147
 21
180.3827742304
 31
0.0
  0
LINE
  5
138
330
1F
100
AcDbEntity
  8
0
  6
Continuous
 62
     7
370
    25
100
AcDbLine
 10
334.6433857147
 20
180.3827742304
 30
0.0
 11
338.9735127336
 21
177.8827742304
 31
0.0
  0
LINE
  5
139
330
1F
100
AcDbEntity
  8
0
  6
Continuous
 62
     7
370
    25
100
AcDbLine
 10
338.9735127336
 20
177.8827742304
 30
0.0
 11
343.3036397525
 21
180.3827742304
 31
0.0
  0
LINE
  5
13A
330
1F
100
AcDbEntity
  8
0
  6
Continuous
 62
     7
370
    25
100
AcDbLine
 10
343.3036397525
 20
180.3827742304
 30
0.0
 11
343.3036397525
 21
185.3827742304
 31
0.0
  0
LINE
  5
13B
330
1F
100
AcDbEntity
  8
0
  6
Continuous
 62
     7
370
    25
100
AcDbLine
 10
343.3036397525
 20
185.3827742304
 30
0.0
 11
338.9735127336
 21
187.8827742304
 31
0.0
  0
LINE
  5
13C
330
1F
100
AcDbEntity
  8
0
  6
Continuous
 62
     7
370
    25
100
AcDbLine
 10
352.6337667714
 20
187.8827742304
 30
0.0
 11
348.3036397525
 21
185.3827742304
 31
0.0
  0
LINE
  5
13D
330
1F
100
AcDbEntity
  8
0
  6
Continuous
 62
     7
370
    25
100
AcDbLine
 10
348.3036397525
 20
185.3827742304
 30
0.0
 11
348.3036397525
 21
180.3827742304
 31
0.0
  0
LINE
  5
13E
330
1F
100
AcDbEntity
  8
0
  6
Continuous
 62
     7
370
    25
100
AcDbLine
 10
348.3036397525
 20
180.3827742304
 30
0.0
 11
352.6337667714
 21
177.8827742304
 31
0.0
  0
LINE
  5
13F
330
1F
100
AcDbEntity
  8
0
  6
Continuous
 62
     7
370
    25
100
AcDbLine
 10
352.6337667714
 20
177.8827742304
 30
0.0
 11
356.9638937904
 21
180.3827742304
 31
0.0
  0
LINE
  5
140
330
1F
100
AcDbEntity
  8
0
  6
Continuous
 62
     7
370
    25
100
AcDbLine
 10
356.9638937904
 20
180.3827742304
 30
0.0
 11
356.9638937904
 21
185.3827742304
 31
0.0
  0
LINE
  5
141
330
1F
100
AcDbEntity
  8
0
  6
Continuous
 62
     7
370
    25
100
AcDbLine
 10
356.9638937904
 20
185.3827742304
 30
0.0
 11
352.6337667714
 21
187.8827742304
 31
0.0
  0
LINE
  5
142
330
1F
100
AcDbEntity
  8
0
  6
Continuous
 62
     7
370
    25
100
AcDbLine
 10
325.3132586958
 20
187.8827742304
 30
0.0
 11
320.9831316768
 21
185.3827742304
 31
0.0
  0
LINE
  5
143
330
1F
100
AcDbEntity
  8
0
  6
Continuous
 62
     7
370
    25
100
AcDbLine
 10
320.9831316768
 20
185.3827742304
 30
0.0
 11
320.9831316768
 21
180.3827742304
 31
0.0
  0
LINE
  5
144
330
1F
100
AcDbEntity
  8
0
  6
Continuous
 62
     7
370
    25
100
AcDbLine
 10
320.9831316768
 20
180.3827742304
 30
0.0
 11
325.3132586958
 21
177.8827742304
 31
0.0
  0
LINE
  5
145
330
1F
100
AcDbEntity
  8
0
  6
Continuous
 62
     7
370
    25
100
AcDbLine
 10
325.3132586958
 20
177.8827742304
 30
0.0
 11
329.6433857147
 21
180.3827742304
 31
0.0
  0
LINE
  5
146
330
1F
100
AcDbEntity
  8
0
  6
Continuous
 62
     7
370
    25
100
AcDbLine
 10
329.6433857147
 20
180.3827742304
 30
0.0
 11
329.6433857147
 21
185.3827742304
 31
0.0
  0
LINE
  5
147
330
1F
100
AcDbEntity
  8
0
  6
Continuous
 62
     7
370
    25
100
AcDbLine
 10
329.6433857147
 20
185.3827742304
 30
0.0
 11
325.3132586958
 21
187.8827742304
 31
0.0
  0
LINE
  5
148
330
1F
100
AcDbEntity
  8
0
  6
Continuous
 62
     7
370
    25
100
AcDbLine
 10
311.6530046579
 20
187.8827742304
 30
0.0
 11
307.322877639
 21
185.3827742304
 31
0.0
  0
LINE
  5
149
330
1F
100
AcDbEntity
  8
0
  6
Continuous
 62
     7
370
    25
100
AcDbLine
 10
307.322877639
 20
185.3827742304
 30
0.0
 11
307.322877639
 21
180.3827742304
 31
0.0
  0
LINE
  5
14A
330
1F
100
AcDbEntity
  8
0
  6
Continuous
 62
     7
370
    25
100
AcDbLine
 10
307.322877639
 20
180.3827742304
 30
0.0
 11
311.6530046579
 21
177.8827742304
 31
0.0
  0
LINE
  5
14B
330
1F
100
AcDbEntity
  8
0
  6
Continuous
 62
     7
370
    25
100
AcDbLine
 10
311.6530046579
 20
177.8827742304
 30
0.0
 11
315.9831316768
 21
180.3827742304
 31
0.0
  0
LINE
  5
14C
330
1F
100
AcDbEntity
  8
0
  6
Continuous
 62
     7
370
    25
100
AcDbLine
 10
315.9831316768
 20
180.3827742304
 30
0.0
 11
315.9831316768
 21
185.3827742304
 31
0.0
  0
LINE
  5
14D
330
1F
100
AcDbEntity
  8
0
  6
Continuous
 62
     7
370
    25
100
AcDbLine
 10
315.9831316768
 20
185.3827742304
 30
0.0
 11
311.6530046579
 21
187.8827742304
 31
0.0
  0
LINE
  5
14E
330
1F
100
AcDbEntity
  8
0
  6
Continuous
 62
     7
370
    25
100
AcDbLine
 10
318.4831316768
 20
223.3731552871
 30
0.0
 11
314.1530046579
 21
220.8731552871
 31
0.0
  0
LINE
  5
14F
330
1F
100
AcDbEntity
  8
0
  6
Continuous
 62
     7
370
    25
100
AcDbLine
 10
314.1530046579
 20
220.8731552871
 30
0.0
 11
314.1530046579
 21
215.8731552871
 31
0.0
  0
LINE
  5
150
330
1F
100
AcDbEntity
  8
0
  6
Continuous
 62
     7
370
    25
100
AcDbLine
 10
314.1530046579
 20
215.8731552871
 30
0.0
 11
318.4831316768
 21
213.3731552871
 31
0.0
  0
LINE
  5
151
330
1F
100
AcDbEntity
  8
0
  6
Continuous
 62
     7
370
    25
100
AcDbLine
 10
318.4831316768
 20
213.3731552871
 30
0.0
 11
322.8132586958
 21
215.8731552871
 31
0.0
  0
LINE
  5
152
330
1F
100
AcDbEntity
  8
0
  6
Continuous
 62
     7
370
    25
100
AcDbLine
 10
322.8132586958
 20
215.8731552871
 30
0.0
 11
322.8132586958
 21
220.8731552871
 31
0.0
  0
LINE
  5
153
330
1F
100
AcDbEntity
  8
0
  6
Continuous
 62
     7
370
    25
100
AcDbLine
 10
322.8132586958
 20
220.8731552871
 30
0.0
 11
318.4831316768
 21
223.3731552871
 31
0.0
  0
LINE
  5
154
330
1F
100
AcDbEntity
  8
0
  6
Continuous
 62
     7
370
    25
100
AcDbLine
 10
332.1433857147
 20
223.3731552871
 30
0.0
 11
327.8132586958
 21
220.8731552871
 31
0.0
  0
LINE
  5
155
330
1F
100
AcDbEntity
  8
0
  6
Continuous
 62
     7
370
    25
100
AcDbLine
 10
327.8132586958
 20
220.8731552871
 30
0.0
 11
327.8132586958
 21
215.8731552871
 31
0.0
  0
LINE
  5
156
330
1F
100
AcDbEntity
  8
0
  6
Continuous
 62
     7
370
    25
100
AcDbLine
 10
327.8132586958
 20
215.8731552871
 30
0.0
 11
332.1433857147
 21
213.3731552871
 31
0.0
  0
LINE
  5
157
330
1F
100
AcDbEntity
  8
0
  6
Continuous
 62
     7
370
    25
100
AcDbLine
 10
332.1433857147
 20
213.3731552871
 30
0.0
 11
336.4735127336
 21
215.8731552871
 31
0.0
  0
LINE
  5
158
330
1F
100
AcDbEntity
  8
0
  6
Continuous
 62
     7
370
    25
100
AcDbLine
 10
336.4735127336
 20
215.8731552871
 30
0.0
 11
336.4735127336
 21
220.8731552871
 31
0.0
  0
LINE
  5
159
330
1F
100
AcDbEntity
  8
0
  6
Continuous
 62
     7
370
    25
100
AcDbLine
 10
336.4735127336
 20
220.8731552871
 30
0.0
 11
332.1433857147
 21
223.3731552871
 31
0.0
  0
LINE
  5
15A
330
1F
100
AcDbEntity
  8
0
  6
Continuous
 62
     7
370
    25
100
AcDbLine
 10
345.8036397525
 20
223.3731552871
 30
0.0
 11
341.4735127336
 21
220.8731552871
 31
0.0
  0
LINE
  5
15B
330
1F
100
AcDbEntity
  8
0
  6
Continuous
 62
     7
370
    25
100
AcDbLine
 10
341.4735127336
 20
220.8731552871
 30
0.0
 11
341.4735127336
 21
215.8731552871
 31
0.0
  0
LINE
  5
15C
330
1F
100
AcDbEntity
  8
0
  6
Continuous
 62
     7
370
    25
100
AcDbLine
 10
341.4735127336
 20
215.8731552871
 30
0.0
 11
345.8036397525
 21
213.3731552871
 31
0.0
  0
LINE
  5
15D
330
1F
100
AcDbEntity
  8
0
  6
Continuous
 62
     7
370
    25
100
AcDbLine
 10
345.8036397525
 20
213.3731552871
 30
0.0
 11
350.1337667714
 21
215.8731552871
 31
0.0
  0
LINE
  5
15E
330
1F
100
AcDbEntity
  8
0
  6
Continuous
 62
     7
370
    25
100
AcDbLine
 10
350.1337667714
 20
215.8731552871
 30
0.0
 11
350.1337667714
 21
220.8731552871
 31
0.0
  0
LINE
  5
15F
330
1F
100
AcDbEntity
  8
0
  6
Continuous
 62
     7
370
    25
100
AcDbLine
 10
350.1337667714
 20
220.8731552871
 30
0.0
 11
345.8036397525
 21
223.3731552871
 31
0.0
  0
LINE
  5
160
330
1F
100
AcDbEntity
  8
0
  6
Continuous
 62
     7
370
    25
100
AcDbLine
 10
325.3132586958
 20
211.5430282682
 30
0.0
 11
320.9831316768
 21
209.0430282682
 31
0.0
  0
LINE
  5
161
330
1F
100
AcDbEntity
  8
0
  6
Continuous
 62
     7
370
    25
100
AcDbLine
 10
320.9831316768
 20
209.0430282682
 30
0.0
 11
320.9831316768
 21
204.0430282682
 31
0.0
  0
LINE
  5
162
330
1F
100
AcDbEntity
  8
0
  6
Continuous
 62
     7
370
    25
100
AcDbLine
 10
320.9831316768
 20
204.0430282682
 30
0.0
 11
325.3132586958
 21
201.5430282682
 31
0.0
  0
LINE
  5
163
330
1F
100
AcDbEntity
  8
0
  6
Continuous
 62
     7
370
    25
100
AcDbLine
 10
325.3132586958
 20
201.5430282682
 30
0.0
 11
329.6433857147
 21
204.0430282682
 31
0.0
  0
LINE
  5
164
330
1F
100
AcDbEntity
  8
0
  6
Continuous
 62
     7
370
    25
100
AcDbLine
 10
329.6433857147
 20
204.0430282682
 30
0.0
 11
329.6433857147
 21
209.0430282682
 31
0.0
  0
LINE
  5
165
330
1F
100
AcDbEntity
  8
0
  6
Continuous
 62
     7
370
    25
100
AcDbLine
 10
329.6433857147
 20
209.0430282682
 30
0.0
 11
325.3132586958
 21
211.5430282682
 31
0.0
  0
LINE
  5
166
330
1F
100
AcDbEntity
  8
0
  6
Continuous
 62
     7
370
    25
100
AcDbLine
 10
338.9735127336
 20
211.5430282682
 30
0.0
 11
334.6433857147
 21
209.0430282682
 31
0.0
  0
LINE
  5
167
330
1F
100
AcDbEntity
  8
0
  6
Continuous
 62
     7
370
    25
100
AcDbLine
 10
334.6433857147
 20
209.0430282682
 30
0.0
 11
334.6433857147
 21
204.0430282682
 31
0.0
  0
LINE
  5
168
330
1F
100
AcDbEntity
  8
0
  6
Continuous
 62
     7
370
    25
100
AcDbLine
 10
334.6433857147
 20
204.0430282682
 30
0.0
 11
338.9735127336
 21
201.5430282682
 31
0.0
  0
LINE
  5
169
330
1F
100
AcDbEntity
  8
0
  6
Continuous
 62
     7
370
    25
100
AcDbLine
 10
338.9735127336
 20
201.5430282682
 30
0.0
 11
343.3036397525
 21
204.0430282682
 31
0.0
  0
LINE
  5
16A
330
1F
100
AcDbEntity
  8
0
  6
Continuous
 62
     7
370
    25
100
AcDbLine
 10
343.3036397525
 20
204.0430282682
 30
0.0
 11
343.3036397525
 21
209.0430282682
 31
0.0
  0
LINE
  5
16B
330
1F
100
AcDbEntity
  8
0
  6
Continuous
 62
     7
370
    25
100
AcDbLine
 10
343.3036397525
 20
209.0430282682
 30
0.0
 11
338.9735127336
 21
211.5430282682
 31
0.0
  0
LINE
  5
16C
330
1F
100
AcDbEntity
  8
0
  6
Continuous
 62
     7
370
    25
100
AcDbLine
 10
318.4831316768
 20
176.0526472114
 30
0.0
 11
314.1530046579
 21
173.5526472114
 31
0.0
  0
LINE
  5
16D
330
1F
100
AcDbEntity
  8
0
  6
Continuous
 62
     7
370
    25
100
AcDbLine
 10
314.1530046579
 20
173.5526472114
 30
0.0
 11
314.1530046579
 21
168.5526472114
 31
0.0
  0
LINE
  5
16E
330
1F
100
AcDbEntity
  8
0
  6
Continuous
 62
     7
370
    25
100
AcDbLine
 10
314.1530046579
 20
168.5526472114
 30
0.0
 11
318.4831316768
 21
166.0526472114
 31
0.0
  0
LINE
  5
16F
330
1F
100
AcDbEntity
  8
0
  6
Continuous
 62
     7
370
    25
100
AcDbLine
 10
318.4831316768
 20
166.0526472114
 30
0.0
 11
322.8132586958
 21
168.5526472114
 31
0.0
  0
LINE
  5
170
330
1F
100
AcDbEntity
  8
0
  6
Continuous
 62
     7
370
    25
100
AcDbLine
 10
322.8132586958
 20
168.5526472114
 30
0.0
 11
322.8132586958
 21
173.5526472114
 31
0.0
  0
LINE
  5
171
330
1F
100
AcDbEntity
  8
0
  6
Continuous
 62
     7
370
    25
100
AcDbLine
 10
322.8132586958
 20
173.5526472114
 30
0.0
 11
318.4831316768
 21
176.0526472114
 31
0.0
  0
LINE
  5
172
330
1F
100
AcDbEntity
  8
0
  6
Continuous
 62
     7
370
    25
100
AcDbLine
 10
332.1433857147
 20
176.0526472114
 30
0.0
 11
327.8132586958
 21
173.5526472114
 31
0.0
  0
LINE
  5
173
330
1F
100
AcDbEntity
  8
0
  6
Continuous
 62
     7
370
    25
100
AcDbLine
 10
327.8132586958
 20
173.5526472114
 30
0.0
 11
327.8132586958
 21
168.5526472114
 31
0.0
  0
LINE
  5
174
330
1F
100
AcDbEntity
  8
0
  6
Continuous
 62
     7
370
    25
100
AcDbLine
 10
327.8132586958
 20
168.5526472114
 30
0.0
 11
332.1433857147
 21
166.0526472114
 31
0.0
  0
LINE
  5
175
330
1F
100
AcDbEntity
  8
0
  6
Continuous
 62
     7
370
    25
100
AcDbLine
 10
332.1433857147
 20
166.0526472114
 30
0.0
 11
336.4735127336
 21
168.5526472114
 31
0.0
  0
LINE
  5
176
330
1F
100
AcDbEntity
  8
0
  6
Continuous
 62
     7
370
    25
100
AcDbLine
 10
336.4735127336
 20
168.5526472114
 30
0.0
 11
336.4735127336
 21
173.5526472114
 31
0.0
  0
LINE
  5
177
330
1F
100
AcDbEntity
  8
0
  6
Continuous
 62
     7
370
    25
100
AcDbLine
 10
336.4735127336
 20
173.5526472114
 30
0.0
 11
332.1433857147
 21
176.0526472114
 31
0.0
  0
LINE
  5
178
330
1F
100
AcDbEntity
  8
0
  6
Continuous
 62
     7
370
    25
100
AcDbLine
 10
345.8036397525
 20
176.0526472114
 30
0.0
 11
341.4735127336
 21
173.5526472114
 31
0.0
  0
LINE
  5
179
330
1F
100
AcDbEntity
  8
0
  6
Continuous
 62
     7
370
    25
100
AcDbLine
 10
341.4735127336
 20
173.5526472114
 30
0.0
 11
341.4735127336
 21
168.5526472114
 31
0.0
  0
LINE
  5
17A
330
1F
100
AcDbEntity
  8
0
  6
Continuous
 62
     7
370
    25
100
AcDbLine
 10
341.4735127336
 20
168.5526472114
 30
0.0
 11
345.8036397525
 21
166.0526472114
 31
0.0
  0
LINE
  5
17B
330
1F
100
AcDbEntity
  8
0
  6
Continuous
 62
     7
370
    25
100
AcDbLine
 10
345.8036397525
 20
166.0526472114
 30
0.0
 11
350.1337667714
 21
168.5526472114
 31
0.0
  0
LINE
  5
17C
330
1F
100
AcDbEntity
  8
0
  6
Continuous
 62
     7
370
    25
100
AcDbLine
 10
350.1337667714
 20
168.5526472114
 30
0.0
 11
350.1337667714
 21
173.5526472114
 31
0.0
  0
LINE
  5
17D
330
1F
100
AcDbEntity
  8
0
  6
Continuous
 62
     7
370
    25
100
AcDbLine
 10
350.1337667714
 20
173.5526472114
 30
0.0
 11
345.8036397525
 21
176.0526472114
 31
0.0
  0
LINE
  5
17E
330
1F
100
AcDbEntity
  8
0
  6
Continuous
 62
     7
370
    25
100
AcDbLine
 10
304.822877639
 20
213.3731552871
 30
0.0
 11
309.1530046579
 21
215.8731552871
 31
0.0
  0
LINE
  5
17F
330
1F
100
AcDbEntity
  8
0
  6
Continuous
 62
     7
370
    25
100
AcDbLine
 10
309.1530046579
 20
215.8731552871
 30
0.0
 11
309.1530046579
 21
220.8731552871
 31
0.0
  0
LINE
  5
180
330
1F
100
AcDbEntity
  8
0
  6
Continuous
 62
     7
370
    25
100
AcDbLine
 10
309.1530046579
 20
220.8731552871
 30
0.0
 11
307.3426720401
 21
221.9183513113
 31
0.0
  0
LINE
  5
181
330
1F
100
AcDbEntity
  8
0
  6
Continuous
 62
     7
370
    25
100
AcDbLine
 10
302.6433857147
 20
214.6314855363
 30
0.0
 11
304.822877639
 21
213.3731552871
 31
0.0
  0
CIRCLE
  5
182
330
1F
100
AcDbEntity
  8
0
  6
Continuous
 62
     7
370
    25
100
AcDbCircle
 10
301.6433857147
 20
159.1352932839
 30
0.0
 40
2.0
  0
CIRCLE
  5
183
330
1F
100
AcDbEntity
  8
0
  6
Continuous
 62
     7
370
    25
100
AcDbCircle
 10
362.6433857147
 20
159.1352932839
 30
0.0
 40
2.0
  0
LINE
  5
184
330
1F
100
AcDbEntity
  8
0
  6
Continuous
 62
     7
370
    25
100
AcDbLine
 10
367.9433857147
 20
133.6952932839
 30
0.0
 11
371.3433857147
 21
133.6952932839
 31
0.0
  0
LINE
  5
185
330
1F
100
AcDbEntity
  8
0
  6
Continuous
 62
     7
370
    25
100
AcDbLine
 10
371.3433857147
 20
133.6952932839
 30
0.0
 11
371.3433857147
 21
141.9352932839
 31
0.0
  0
LINE
  5
186
330
1F
100
AcDbEntity
  8
0
  6
Continuous
 62
     7
370
    25
100
AcDbLine
 10
367.9433857147
 20
141.9352932839
 30
0.0
 11
371.3433857147
 21
141.9352932839
 31
0.0
  0
LINE
  5
187
330
1F
100
AcDbEntity
  8
0
  6
Continuous
 62
     7
370
    25
100
AcDbLine
 10
367.9433857147
 20
133.6952932839
 30
0.0
 11
367.9433857147
 21
141.9352932839
 31
0.0
  0
LINE
  5
188
330
1F
100
AcDbEntity
  8
0
  6
Continuous
 62
     7
370
    25
100
AcDbLine
 10
367.9433857147
 20
108.4352932839
 30
0.0
 11
367.9433857147
 21
100.1952932839
 31
0.0
  0
LINE
  5
189
330
1F
100
AcDbEntity
  8
0
  6
Continuous
 62
     7
370
    25
100
AcDbLine
 10
367.9433857147
 20
100.1952932839
 30
0.0
 11
371.3433857147
 21
100.1952932839
 31
0.0
  0
LINE
  5
18A
330
1F
100
AcDbEntity
  8
0
  6
Continuous
 62
     7
370
    25
100
AcDbLine
 10
371.3433857147
 20
108.4352932839
 30
0.0
 11
371.3433857147
 21
100.1952932839
 31
0.0
  0
LINE
  5
18B
330
1F
100
AcDbEntity
  8
0
  6
Continuous
 62
     7
370
    25
100
AcDbLine
 10
367.9433857147
 20
108.4352932839
 30
0.0
 11
371.3433857147
 21
108.4352932839
 31
0.0
  0
LINE
  5
18C
330
1F
100
AcDbEntity
  8
0
  6
Continuous
 62
     7
370
    25
100
AcDbLine
 10
296.3433857147
 20
133.6952932839
 30
0.0
 11
292.9433857147
 21
133.6952932839
 31
0.0
  0
LINE
  5
18D
330
1F
100
AcDbEntity
  8
0
  6
Continuous
 62
     7
370
    25
100
AcDbLine
 10
296.3433857147
 20
133.6952932839
 30
0.0
 11
296.3433857147
 21
141.9352932839
 31
0.0
  0
LINE
  5
18E
330
1F
100
AcDbEntity
  8
0
  6
Continuous
 62
     7
370
    25
100
AcDbLine
 10
296.3433857147
 20
141.9352932839
 30
0.0
 11
292.9433857147
 21
141.9352932839
 31
0.0
  0
LINE
  5
18F
330
1F
100
AcDbEntity
  8
0
  6
Continuous
 62
     7
370
    25
100
AcDbLine
 10
292.9433857147
 20
133.6952932839
 30
0.0
 11
292.9433857147
 21
141.9352932839
 31
0.0
  0
LINE
  5
190
330
1F
100
AcDbEntity
  8
0
  6
Continuous
 62
     7
370
    25
100
AcDbLine
 10
382.9433857147
 20
147.7352932839
 30
0.0
 11
386.3433857147
 21
147.7352932839
 31
0.0
  0
LINE
  5
191
330
1F
100
AcDbEntity
  8
0
  6
Continuous
 62
     7
370
    25
100
AcDbLine
 10
386.3433857147
 20
147.7352932839
 30
0.0
 11
386.3433857147
 21
151.1352932839
 31
0.0
  0
LINE
  5
192
330
1F
100
AcDbEntity
  8
0
  6
Continuous
 62
     7
370
    25
100
AcDbLine
 10
386.3433857147
 20
151.1352932839
 30
0.0
 11
382.9433857147
 21
151.1352932839
 31
0.0
  0
LINE
  5
193
330
1F
100
AcDbEntity
  8
0
  6
Continuous
 62
     7
370
    25
100
AcDbLine
 10
382.9433857147
 20
151.1352932839
 30
0.0
 11
382.9433857147
 21
147.7352932839
 31
0.0
  0
LINE
  5
194
330
1F
100
AcDbEntity
  8
0
  6
Continuous
 62
     7
370
    25
100
AcDbLine
 10
361.9433857147
 20
147.7352932839
 30
0.0
 11
365.3433857147
 21
147.7352932839
 31
0.0
  0
LINE
  5
195
330
1F
100
AcDbEntity
  8
0
  6
Continuous
 62
     7
370
    25
100
AcDbLine
 10
365.3433857147
 20
147.7352932839
 30
0.0
 11
365.3433857147
 21
151.1352932839
 31
0.0
  0
LINE
  5
196
330
1F
100
AcDbEntity
  8
0
  6
Continuous
 62
     7
370
    25
100
AcDbLine
 10
365.3433857147
 20
151.1352932839
 30
0.0
 11
361.9433857147
 21
151.1352932839
 31
0.0
  0
LINE
  5
197
330
1F
100
AcDbEntity
  8
0
  6
Continuous
 62
     7
370
    25
100
AcDbLine
 10
361.9433857147
 20
151.1352932839
 30
0.0
 11
361.9433857147
 21
147.7352932839
 31
0.0
  0
LINE
  5
198
330
1F
100
AcDbEntity
  8
0
  6
Continuous
 62
     7
370
    25
100
AcDbLine
 10
281.3433857147
 20
90.9952932839
 30
0.0
 11
281.3433857147
 21
94.3952932839
 31
0.0
  0
LINE
  5
199
330
1F
100
AcDbEntity
  8
0
  6
Continuous
 62
     7
370
    25
100
AcDbLine
 10
281.3433857147
 20
94.3952932839
 30
0.0
 11
277.9433857147
 21
94.3952932839
 31
0.0
  0
LINE
  5
19A
330
1F
100
AcDbEntity
  8
0
  6
Continuous
 62
     7
370
    25
100
AcDbLine
 10
277.9433857147
 20
94.3952932839
 30
0.0
 11
277.9433857147
 21
90.9952932839
 31
0.0
  0
LINE
  5
19B
330
1F
100
AcDbEntity
  8
0
  6
Continuous
 62
     7
370
    25
100
AcDbLine
 10
277.9433857147
 20
90.9952932839
 30
0.0
 11
281.3433857147
 21
90.9952932839
 31
0.0
  0
LINE
  5
19C
330
1F
100
AcDbEntity
  8
0
  6
Continuous
 62
     7
370
    25
100
AcDbLine
 10
318.9433857147
 20
94.3952932839
 30
0.0
 11
318.9433857147
 21
90.9952932839
 31
0.0
  0
LINE
  5
19D
330
1F
100
AcDbEntity
  8
0
  6
Continuous
 62
     7
370
    25
100
AcDbLine
 10
318.9433857147
 20
90.9952932839
 30
0.0
 11
322.3433857147
 21
90.9952932839
 31
0.0
  0
LINE
  5
19E
330
1F
100
AcDbEntity
  8
0
  6
Continuous
 62
     7
370
    25
100
AcDbLine
 10
322.3433857147
 20
90.9952932839
 30
0.0
 11
322.3433857147
 21
94.3952932839
 31
0.0
  0
LINE
  5
19F
330
1F
100
AcDbEntity
  8
0
  6
Continuous
 62
     7
370
    25
100
AcDbLine
 10
322.3433857147
 20
94.3952932839
 30
0.0
 11
318.9433857147
 21
94.3952932839
 31
0.0
  0
LINE
  5
1A0
330
1F
100
AcDbEntity
  8
0
  6
Continuous
 62
     7
370
    25
100
AcDbLine
 10
318.9433857147
 20
120.6352932839
 30
0.0
 11
318.9433857147
 21
117.2352932839
 31
0.0
  0
LINE
  5
1A1
330
1F
100
AcDbEntity
  8
0
  6
Continuous
 62
     7
370
    25
100
AcDbLine
 10
318.9433857147
 20
117.2352932839
 30
0.0
 11
322.3433857147
 21
117.2352932839
 31
0.0
  0
LINE
  5
1A2
330
1F
100
AcDbEntity
  8
0
  6
Continuous
 62
     7
370
    25
100
AcDbLine
 10
322.3433857147
 20
117.2352932839
 30
0.0
 11
322.3433857147
 21
120.6352932839
 31
0.0
  0
LINE
  5
1A3
330
1F
100
AcDbEntity
  8
0
  6
Continuous
 62
     7
370
    25
100
AcDbLine
 10
322.3433857147
 20
120.6352932839
 30
0.0
 11
318.9433857147
 21
120.6352932839
 31
0.0
  0
LINE
  5
1A4
330
1F
100
AcDbEntity
  8
0
  6
Continuous
 62
     7
370
    25
100
AcDbLine
 10
302.3433857147
 20
124.4952932839
 30
0.0
 11
302.3433857147
 21
127.8952932839
 31
0.0
  0
LINE
  5
1A5
330
1F
100
AcDbEntity
  8
0
  6
Continuous
 62
     7
370
    25
100
AcDbLine
 10
302.3433857147
 20
127.8952932839
 30
0.0
 11
298.9433857147
 21
127.8952932839
 31
0.0
  0
LINE
  5
1A6
330
1F
100
AcDbEntity
  8
0
  6
Continuous
 62
     7
370
    25
100
AcDbLine
 10
298.9433857147
 20
127.8952932839
 30
0.0
 11
298.9433857147
 21
124.4952932839
 31
0.0
  0
LINE
  5
1A7
330
1F
100
AcDbEntity
  8
0
  6
Continuous
 62
     7
370
    25
100
AcDbLine
 10
298.9433857147
 20
124.4952932839
 30
0.0
 11
302.3433857147
 21
124.4952932839
 31
0.0
  0
LINE
  5
1A8
330
1F
100
AcDbEntity
  8
0
  6
Continuous
 62
     7
370
    25
100
AcDbLine
 10
302.3433857147
 20
147.7352932839
 30
0.0
 11
302.3433857147
 21
151.1352932839
 31
0.0
  0
LINE
  5
1A9
330
1F
100
AcDbEntity
  8
0
  6
Continuous
 62
     7
370
    25
100
AcDbLine
 10
302.3433857147
 20
151.1352932839
 30
0.0
 11
298.9433857147
 21
151.1352932839
 31
0.0
  0
LINE
  5
1AA
330
1F
100
AcDbEntity
  8
0
  6
Continuous
 62
     7
370
    25
100
AcDbLine
 10
298.9433857147
 20
151.1352932839
 30
0.0
 11
298.9433857147
 21
147.7352932839
 31
0.0
  0
LINE
  5
1AB
330
1F
100
AcDbEntity
  8
0
  6
Continuous
 62
     7
370
    25
100
AcDbLine
 10
298.9433857147
 20
147.7352932839
 30
0.0
 11
302.3433857147
 21
147.7352932839
 31
0.0
  0
LINE
  5
1AC
330
1F
100
AcDbEntity
  8
0
  6
Continuous
 62
     7
370
    25
100
AcDbLine
 10
281.3433857147
 20
147.7352932839
 30
0.0
 11
281.3433857147
 21
151.1352932839
 31
0.0
  0
LINE
  5
1AD
330
1F
100
AcDbEntity
  8
0
  6
Continuous
 62
     7
370
    25
100
AcDbLine
 10
281.3433857147
 20
151.1352932839
 30
0.0
 11
277.9433857147
 21
151.1352932839
 31
0.0
  0
LINE
  5
1AE
330
1F
100
AcDbEntity
  8
0
  6
Continuous
 62
     7
370
    25
100
AcDbLine
 10
277.9433857147
 20
151.1352932839
 30
0.0
 11
277.9433857147
 21
147.7352932839
 31
0.0
  0
LINE
  5
1AF
330
1F
100
AcDbEntity
  8
0
  6
Continuous
 62
     7
370
    25
100
AcDbLine
 10
277.9433857147
 20
147.7352932839
 30
0.0
 11
281.3433857147
 21
147.7352932839
 31
0.0
  0
LINE
  5
1B0
330
1F
100
AcDbEntity
  8
0
  6
Continuous
 62
     7
370
    25
100
AcDbLine
 10
386.3433857147
 20
94.3952932839
 30
0.0
 11
382.9433857147
 21
94.3952932839
 31
0.0
  0
LINE
  5
1B1
330
1F
100
AcDbEntity
  8
0
  6
Continuous
 62
     7
370
    25
100
AcDbLine
 10
382.9433857147
 20
94.3952932839
 30
0.0
 11
382.9433857147
 21
90.9952932839
 31
0.0
  0
LINE
  5
1B2
330
1F
100
AcDbEntity
  8
0
  6
Continuous
 62
     7
370
    25
100
AcDbLine
 10
382.9433857147
 20
90.9952932839
 30
0.0
 11
386.3433857147
 21
90.9952932839
 31
0.0
  0
LINE
  5
1B3
330
1F
100
AcDbEntity
  8
0
  6
Continuous
 62
     7
370
    25
100
AcDbLine
 10
386.3433857147
 20
90.9952932839
 30
0.0
 11
386.3433857147
 21
94.3952932839
 31
0.0
  0
LINE
  5
1B4
330
1F
100
AcDbEntity
  8
0
  6
Continuous
 62
     7
370
    25
100
AcDbLine
 10
345.3433857147
 20
120.6352932839
 30
0.0
 11
341.9433857147
 21
120.6352932839
 31
0.0
  0
LINE
  5
1B5
330
1F
100
AcDbEntity
  8
0
  6
Continuous
 62
     7
370
    25
100
AcDbLine
 10
341.9433857147
 20
120.6352932839
 30
0.0
 11
341.9433857147
 21
117.2352932839
 31
0.0
  0
LINE
  5
1B6
330
1F
100
AcDbEntity
  8
0
  6
Continuous
 62
     7
370
    25
100
AcDbLine
 10
341.9433857147
 20
117.2352932839
 30
0.0
 11
345.3433857147
 21
117.2352932839
 31
0.0
  0
LINE
  5
1B7
330
1F
100
AcDbEntity
  8
0
  6
Continuous
 62
     7
370
    25
100
AcDbLine
 10
345.3433857147
 20
117.2352932839
 30
0.0
 11
345.3433857147
 21
120.6352932839
 31
0.0
  0
LINE
  5
1B8
330
1F
100
AcDbEntity
  8
0
  6
Continuous
 62
     7
370
    25
100
AcDbLine
 10
345.3433857147
 20
94.3952932839
 30
0.0
 11
341.9433857147
 21
94.3952932839
 31
0.0
  0
LINE
  5
1B9
330
1F
100
AcDbEntity
  8
0
  6
Continuous
 62
     7
370
    25
100
AcDbLine
 10
341.9433857147
 20
94.3952932839
 30
0.0
 11
341.9433857147
 21
90.9952932839
 31
0.0
  0
LINE
  5
1BA
330
1F
100
AcDbEntity
  8
0
  6
Continuous
 62
     7
370
    25
100
AcDbLine
 10
341.9433857147
 20
90.9952932839
 30
0.0
 11
345.3433857147
 21
90.9952932839
 31
0.0
  0
LINE
  5
1BB
330
1F
100
AcDbEntity
  8
0
  6
Continuous
 62
     7
370
    25
100
AcDbLine
 10
345.3433857147
 20
90.9952932839
 30
0.0
 11
345.3433857147
 21
94.3952932839
 31
0.0
  0
LINE
  5
1BC
330
1F
100
AcDbEntity
  8
0
  6
Continuous
 62
     7
370
    25
100
AcDbLine
 10
361.9433857147
 20
124.4952932839
 30
0.0
 11
365.3433857147
 21
124.4952932839
 31
0.0
  0
LINE
  5
1BD
330
1F
100
AcDbEntity
  8
0
  6
Continuous
 62
     7
370
    25
100
AcDbLine
 10
365.3433857147
 20
124.4952932839
 30
0.0
 11
365.3433857147
 21
127.8952932839
 31
0.0
  0
LINE
  5
1BE
330
1F
100
AcDbEntity
  8
0
  6
Continuous
 62
     7
370
    25
100
AcDbLine
 10
365.3433857147
 20
127.8952932839
 30
0.0
 11
361.9433857147
 21
127.8952932839
 31
0.0
  0
LINE
  5
1BF
330
1F
100
AcDbEntity
  8
0
  6
Continuous
 62
     7
370
    25
100
AcDbLine
 10
361.9433857147
 20
127.8952932839
 30
0.0
 11
361.9433857147
 21
124.4952932839
 31
0.0
  0
LINE
  5
1C0
330
1F
100
AcDbEntity
  8
0
  6
Continuous
 62
     7
370
    25
100
AcDbLine
 10
296.3433857147
 20
100.1952932839
 30
0.0
 11
292.9433857147
 21
100.1952932839
 31
0.0
  0
LINE
  5
1C1
330
1F
100
AcDbEntity
  8
0
  6
Continuous
 62
     7
370
    25
100
AcDbLine
 10
296.3433857147
 20
108.4352932839
 30
0.0
 11
296.3433857147
 21
100.1952932839
 31
0.0
  0
LINE
  5
1C2
330
1F
100
AcDbEntity
  8
0
  6
Continuous
 62
     7
370
    25
100
AcDbLine
 10
296.3433857147
 20
108.4352932839
 30
0.0
 11
292.9433857147
 21
108.4352932839
 31
0.0
  0
LINE
  5
1C3
330
1F
100
AcDbEntity
  8
0
  6
Continuous
 62
     7
370
    25
100
AcDbLine
 10
292.9433857147
 20
108.4352932839
 30
0.0
 11
292.9433857147
 21
100.1952932839
 31
0.0
  0
CIRCLE
  5
1C4
330
1F
100
AcDbEntity
  8
0
  6
Continuous
 62
     7
370
    25
100
AcDbCircle
 10
332.1433857147
 20
240.4352932839
 30
0.0
 40
2.249999999999972
  0
CIRCLE
  5
1C5
330
1F
100
AcDbEntity
  8
0
  6
Continuous
 62
     7
370
    25
100
AcDbCircle
 10
306.9033857147
 20
201.9852932839
 30
0.0
 40
2.0
  0
CIRCLE
  5
1C6
330
1F
100
AcDbEntity
  8
0
  6
Continuous
 62
     7
370
    25
100
AcDbCircle
 10
357.3833857147
 20
86.0952932839
 30
0.0
 40
2.0
  0
CIRCLE
  5
1C7
330
1F
100
AcDbEntity
  8
0
  6
Continuous
 62
     7
370
    25
100
AcDbCircle
 10
306.9033857147
 20
86.0952932839
 30
0.0
 40
2.0
  0
CIRCLE
  5
1C8
330
1F
100
AcDbEntity
  8
0
  6
Continuous
 62
     7
370
    25
100
AcDbCircle
 10
357.3833857147
 20
201.9852932839
 30
0.0
 40
2.0
  0
CIRCLE
  5
1C9
330
1F
100
AcDbEntity
  8
0
  6
Continuous
 62
     7
370
    25
100
AcDbCircle
 10
301.6433857147
 20
230.1352932839
 30
0.0
 40
2.0
  0
CIRCLE
  5
1CA
330
1F
100
AcDbEntity
  8
0
  6
Continuous
 62
     7
370
    25
100
AcDbCircle
 10
362.6433857147
 20
230.1352932839
 30
0.0
 40
2.0
  0
LINE
  5
1CB
330
1F
100
AcDbEntity
  8
0
  6
Continuous
 62
     7
370
    25
100
AcDbLine
 10
332.1433857147
 20
251.4352932839
 30
0.0
 11
292.6433857147
 21
237.0584690304
 31
0.0
  0
LINE
  5
1CC
330
1F
100
AcDbEntity
  8
0
  6
Continuous
 62
     7
370
    25
100
AcDbLine
 10
371.6433857147
 20
237.0584690304
 30
0.0
 11
332.1433857147
 21
251.4352932839
 31
0.0
  0
LINE
  5
1CD
330
1F
100
AcDbEntity
  8
0
  6
Continuous
 62
     7
370
    25
100
AcDbLine
 10
371.6433857147
 20
173.6162732639
 30
0.0
 11
371.6433857147
 21
237.0584690304
 31
0.0
  0
LINE
  5
1CE
330
1F
100
AcDbEntity
  8
0
  6
Continuous
 62
     7
370
    25
100
AcDbLine
 10
390.1433857147
 20
162.9352932839
 30
0.0
 11
371.6433857147
 21
173.6162732639
 31
0.0
  0
LINE
  5
1CF
330
1F
100
AcDbEntity
  8
0
  6
Continuous
 62
     7
370
    25
100
AcDbLine
 10
390.1433857147
 20
81.1952932839
 30
0.0
 11
390.1433857147
 21
162.9352932839
 31
0.0
  0
LINE
  5
1D0
330
1F
100
AcDbEntity
  8
0
  6
Continuous
 62
     7
370
    25
100
AcDbLine
 10
274.1433857147
 20
81.1952932839
 30
0.0
 11
390.1433857147
 21
81.1952932839
 31
0.0
  0
LINE
  5
1D1
330
1F
100
AcDbEntity
  8
0
  6
Continuous
 62
     7
370
    25
100
AcDbLine
 10
274.1433857147
 20
162.9352932839
 30
0.0
 11
274.1433857147
 21
81.1952932839
 31
0.0
  0
LINE
  5
1D2
330
1F
100
AcDbEntity
  8
0
  6
Continuous
 62
     7
370
    25
100
AcDbLine
 10
274.1433857147
 20
162.9352932839
 30
0.0
 11
292.6433857147
 21
173.6162732639
 31
0.0
  0
LINE
  5
1D3
330
1F
100
AcDbEntity
  8
0
  6
Continuous
 62
     7
370
    25
100
AcDbLine
 10
292.6433857147
 20
173.6162732639
 30
0.0
 11
292.6433857147
 21
237.0584690304
 31
0.0
  0
LINE
  5
1D4
330
1F
100
AcDbEntity
  8
0
  6
Continuous
 62
     7
370
    25
100
AcDbLine
 10
311.6530046579
 20
225.203282306
 30
0.0
 11
315.9831316768
 21
227.703282306
 31
0.0
  0
LINE
  5
1D5
330
1F
100
AcDbEntity
  8
0
  6
Continuous
 62
     7
370
    25
100
AcDbLine
 10
315.9831316768
 20
227.703282306
 30
0.0
 11
315.9831316768
 21
232.703282306
 31
0.0
  0
LINE
  5
1D6
330
1F
100
AcDbEntity
  8
0
  6
Continuous
 62
     7
370
    25
100
AcDbLine
 10
315.9831316768
 20
232.703282306
 30
0.0
 11
313.6370850359
 21
234.0577729657
 31
0.0
  0
LINE
  5
1D7
330
1F
100
AcDbEntity
  8
0
  6
Continuous
 62
     7
370
    25
100
AcDbLine
 10
310.6470886297
 20
225.7840481957
 30
0.0
 11
311.6530046579
 21
225.203282306
 31
0.0
  0
LINE
  5
1D8
330
1F
100
AcDbEntity
  8
0
  6
Continuous
 62
     7
370
    25
100
AcDbLine
 10
314.1530046579
 20
192.2129012493
 30
0.0
 11
318.4831316768
 21
189.7129012493
 31
0.0
  0
LINE
  5
1D9
330
1F
100
AcDbEntity
  8
0
  6
Continuous
 62
     7
370
    25
100
AcDbLine
 10
318.4831316768
 20
189.7129012493
 30
0.0
 11
322.8132586958
 21
192.2129012493
 31
0.0
  0
LINE
  5
1DA
330
1F
100
AcDbEntity
  8
0
  6
Continuous
 62
     7
370
    25
100
AcDbLine
 10
322.8132586958
 20
192.2129012493
 30
0.0
 11
322.8132586958
 21
197.2129012493
 31
0.0
  0
LINE
  5
1DB
330
1F
100
AcDbEntity
  8
0
  6
Continuous
 62
     7
370
    25
100
AcDbLine
 10
322.8132586958
 20
197.2129012493
 30
0.0
 11
318.4831316768
 21
199.7129012493
 31
0.0
  0
LINE
  5
1DC
330
1F
100
AcDbEntity
  8
0
  6
Continuous
 62
     7
370
    25
100
AcDbLine
 10
318.4831316768
 20
199.7129012493
 30
0.0
 11
316.2469236062
 21
198.4218259177
 31
0.0
  0
LINE
  5
1DD
330
1F
100
AcDbEntity
  8
0
  6
Continuous
 62
     7
370
    25
100
AcDbLine
 10
314.1530046579
 20
195.0974035361
 30
0.0
 11
314.1530046579
 21
192.2129012493
 31
0.0
  0
LINE
  5
1DE
330
1F
100
AcDbEntity
  8
0
  6
Continuous
 62
     7
370
    25
100
AcDbLine
 10
361.6433857147
 20
174.7943169622
 30
0.0
 11
359.4638937904
 21
176.0526472114
 31
0.0
  0
LINE
  5
1DF
330
1F
100
AcDbEntity
  8
0
  6
Continuous
 62
     7
370
    25
100
AcDbLine
 10
359.4638937904
 20
176.0526472114
 30
0.0
 11
355.1337667714
 21
173.5526472114
 31
0.0
  0
LINE
  5
1E0
330
1F
100
AcDbEntity
  8
0
  6
Continuous
 62
     7
370
    25
100
AcDbLine
 10
355.1337667714
 20
173.5526472114
 30
0.0
 11
355.1337667714
 21
168.5526472114
 31
0.0
  0
LINE
  5
1E1
330
1F
100
AcDbEntity
  8
0
  6
Continuous
 62
     7
370
    25
100
AcDbLine
 10
355.1337667714
 20
168.5526472114
 30
0.0
 11
357.0672902453
 21
167.4363269133
 31
0.0
  0
LINE
  5
1E2
330
1F
100
AcDbEntity
  8
0
  6
Continuous
 62
     7
370
    25
100
AcDbLine
 10
309.1530046579
 20
168.5526472114
 30
0.0
 11
309.1530046579
 21
173.5526472114
 31
0.0
  0
LINE
  5
1E3
330
1F
100
AcDbEntity
  8
0
  6
Continuous
 62
     7
370
    25
100
AcDbLine
 10
309.1530046579
 20
173.5526472114
 30
0.0
 11
304.822877639
 21
176.0526472114
 31
0.0
  0
LINE
  5
1E4
330
1F
100
AcDbEntity
  8
0
  6
Continuous
 62
     7
370
    25
100
AcDbLine
 10
304.822877639
 20
176.0526472114
 30
0.0
 11
302.6433857147
 21
174.7943169622
 31
0.0
  0
LINE
  5
1E5
330
1F
100
AcDbEntity
  8
0
  6
Continuous
 62
     7
370
    25
100
AcDbLine
 10
307.219481184
 20
167.4363269133
 30
0.0
 11
309.1530046579
 21
168.5526472114
 31
0.0
  0
LINE
  5
1E6
330
1F
100
AcDbEntity
  8
0
  6
Continuous
 62
     7
370
    25
100
AcDbLine
 10
343.3036397525
 20
159.1352932839
 30
0.0
 11
343.3036397525
 21
161.7225201925
 31
0.0
  0
LINE
  5
1E7
330
1F
100
AcDbEntity
  8
0
  6
Continuous
 62
     7
370
    25
100
AcDbLine
 10
343.3036397525
 20
161.7225201925
 30
0.0
 11
338.9735127336
 21
164.2225201925
 31
0.0
  0
LINE
  5
1E8
330
1F
100
AcDbEntity
  8
0
  6
Continuous
 62
     7
370
    25
100
AcDbLine
 10
338.9735127336
 20
164.2225201925
 30
0.0
 11
334.6433857147
 21
161.7225201925
 31
0.0
  0
LINE
  5
1E9
330
1F
100
AcDbEntity
  8
0
  6
Continuous
 62
     7
370
    25
100
AcDbLine
 10
334.6433857147
 20
161.7225201925
 30
0.0
 11
334.6433857147
 21
159.1352932839
 31
0.0
  0
LINE
  5
1EA
330
1F
100
AcDbEntity
  8
0
  6
Continuous
 62
     7
370
    25
100
AcDbLine
 10
329.6433857147
 20
159.1352932839
 30
0.0
 11
329.6433857147
 21
161.7225201925
 31
0.0
  0
LINE
  5
1EB
330
1F
100
AcDbEntity
  8
0
  6
Continuous
 62
     7
370
    25
100
AcDbLine
 10
329.6433857147
 20
161.7225201925
 30
0.0
 11
325.3132586958
 21
164.2225201925
 31
0.0
  0
LINE
  5
1EC
330
1F
100
AcDbEntity
  8
0
  6
Continuous
 62
     7
370
    25
100
AcDbLine
 10
325.3132586958
 20
164.2225201925
 30
0.0
 11
320.9831316768
 21
161.7225201925
 31
0.0
  0
LINE
  5
1ED
330
1F
100
AcDbEntity
  8
0
  6
Continuous
 62
     7
370
    25
100
AcDbLine
 10
320.9831316768
 20
161.7225201925
 30
0.0
 11
320.9831316768
 21
159.1352932839
 31
0.0
  0
LINE
  5
1EE
330
1F
100
AcDbEntity
  8
0
  6
Continuous
 62
     7
370
    25
100
AcDbLine
 10
345.8036397525
 20
199.7129012493
 30
0.0
 11
341.4735127336
 21
197.2129012493
 31
0.0
  0
LINE
  5
1EF
330
1F
100
AcDbEntity
  8
0
  6
Continuous
 62
     7
370
    25
100
AcDbLine
 10
341.4735127336
 20
197.2129012493
 30
0.0
 11
341.4735127336
 21
192.2129012493
 31
0.0
  0
LINE
  5
1F0
330
1F
100
AcDbEntity
  8
0
  6
Continuous
 62
     7
370
    25
100
AcDbLine
 10
341.4735127336
 20
192.2129012493
 30
0.0
 11
345.8036397525
 21
189.7129012493
 31
0.0
  0
LINE
  5
1F1
330
1F
100
AcDbEntity
  8
0
  6
Continuous
 62
     7
370
    25
100
AcDbLine
 10
345.8036397525
 20
189.7129012493
 30
0.0
 11
350.1337667714
 21
192.2129012493
 31
0.0
  0
LINE
  5
1F2
330
1F
100
AcDbEntity
  8
0
  6
Continuous
 62
     7
370
    25
100
AcDbLine
 10
350.1337667714
 20
192.2129012493
 30
0.0
 11
350.1337667714
 21
195.0974035361
 31
0.0
  0
LINE
  5
1F3
330
1F
100
AcDbEntity
  8
0
  6
Continuous
 62
     7
370
    25
100
AcDbLine
 10
348.0398478232
 20
198.4218259177
 30
0.0
 11
345.8036397525
 21
199.7129012493
 31
0.0
  0
LINE
  5
1F4
330
1F
100
AcDbEntity
  8
0
  6
Continuous
 62
     7
370
    25
100
AcDbLine
 10
350.6496863934
 20
234.0577729657
 30
0.0
 11
348.3036397525
 21
232.703282306
 31
0.0
  0
LINE
  5
1F5
330
1F
100
AcDbEntity
  8
0
  6
Continuous
 62
     7
370
    25
100
AcDbLine
 10
348.3036397525
 20
232.703282306
 30
0.0
 11
348.3036397525
 21
227.703282306
 31
0.0
  0
LINE
  5
1F6
330
1F
100
AcDbEntity
  8
0
  6
Continuous
 62
     7
370
    25
100
AcDbLine
 10
348.3036397525
 20
227.703282306
 30
0.0
 11
352.6337667714
 21
225.203282306
 31
0.0
  0
LINE
  5
1F7
330
1F
100
AcDbEntity
  8
0
  6
Continuous
 62
     7
370
    25
100
AcDbLine
 10
352.6337667714
 20
225.203282306
 30
0.0
 11
353.6396827996
 21
225.7840481957
 31
0.0
  0
LINE
  5
1F8
330
1F
100
AcDbEntity
  8
0
  6
Continuous
 62
     7
370
    25
100
AcDbLine
 10
355.1337667714
 20
220.8731552871
 30
0.0
 11
355.1337667714
 21
215.8731552871
 31
0.0
  0
LINE
  5
1F9
330
1F
100
AcDbEntity
  8
0
  6
Continuous
 62
     7
370
    25
100
AcDbLine
 10
355.1337667714
 20
215.8731552871
 30
0.0
 11
359.4638937904
 21
213.3731552871
 31
0.0
  0
LINE
  5
1FA
330
1F
100
AcDbEntity
  8
0
  6
Continuous
 62
     7
370
    25
100
AcDbLine
 10
359.4638937904
 20
213.3731552871
 30
0.0
 11
361.6433857147
 21
214.6314855363
 31
0.0
  0
LINE
  5
1FB
330
1F
100
AcDbEntity
  8
0
  6
Continuous
 62
     7
370
    25
100
AcDbLine
 10
356.9440993892
 20
221.9183513113
 30
0.0
 11
355.1337667714
 21
220.8731552871
 31
0.0
  0
LINE
  5
1FC
330
1F
100
AcDbEntity
  8
0
  6
Continuous
 62
     7
370
    25
100
AcDbLine
 10
334.6433857147
 20
227.703282306
 30
0.0
 11
338.9735127336
 21
225.203282306
 31
0.0
  0
LINE
  5
1FD
330
1F
100
AcDbEntity
  8
0
  6
Continuous
 62
     7
370
    25
100
AcDbLine
 10
338.9735127336
 20
225.203282306
 30
0.0
 11
343.3036397525
 21
227.703282306
 31
0.0
  0
LINE
  5
1FE
330
1F
100
AcDbEntity
  8
0
  6
Continuous
 62
     7
370
    25
100
AcDbLine
 10
343.3036397525
 20
227.703282306
 30
0.0
 11
343.3036397525
 21
232.703282306
 31
0.0
  0
LINE
  5
1FF
330
1F
100
AcDbEntity
  8
0
  6
Continuous
 62
     7
370
    25
100
AcDbLine
 10
343.3036397525
 20
232.703282306
 30
0.0
 11
340.4093801857
 21
234.3742838461
 31
0.0
  0
LINE
  5
200
330
1F
100
AcDbEntity
  8
0
  6
Continuous
 62
     7
370
    25
100
AcDbLine
 10
334.6433857147
 20
230.4948456079
 30
0.0
 11
334.6433857147
 21
227.703282306
 31
0.0
  0
LINE
  5
201
330
1F
100
AcDbEntity
  8
0
  6
Continuous
 62
     7
370
    25
100
AcDbLine
 10
320.9831316768
 20
232.703282306
 30
0.0
 11
320.9831316768
 21
227.703282306
 31
0.0
  0
LINE
  5
202
330
1F
100
AcDbEntity
  8
0
  6
Continuous
 62
     7
370
    25
100
AcDbLine
 10
320.9831316768
 20
227.703282306
 30
0.0
 11
325.3132586958
 21
225.203282306
 31
0.0
  0
LINE
  5
203
330
1F
100
AcDbEntity
  8
0
  6
Continuous
 62
     7
370
    25
100
AcDbLine
 10
325.3132586958
 20
225.203282306
 30
0.0
 11
329.6433857147
 21
227.703282306
 31
0.0
  0
LINE
  5
204
330
1F
100
AcDbEntity
  8
0
  6
Continuous
 62
     7
370
    25
100
AcDbLine
 10
329.6433857147
 20
227.703282306
 30
0.0
 11
329.6433857147
 21
230.4948456079
 31
0.0
  0
LINE
  5
205
330
1F
100
AcDbEntity
  8
0
  6
Continuous
 62
     7
370
    25
100
AcDbLine
 10
323.8773912437
 20
234.3742838461
 30
0.0
 11
320.9831316768
 21
232.703282306
 31
0.0
  0
LINE
  5
206
330
1F
100
AcDbEntity
  8
0
  6
Continuous
 62
     7
370
    25
100
AcDbLine
 10
313.6370850359
 20
234.0577729657
 30
0.0
 11
311.1745067401
 21
233.1614677665
 31
0.0
  0
ARC
  5
207
330
1F
100
AcDbEntity
  8
0
  6
Continuous
 62
     7
370
    25
100
AcDbCircle
 10
301.6433857147
 20
230.1352932839
 30
0.0
 40
10.00000000000001
100
AcDbArc
 50
334.2067831686
 51
17.614881162
  0
ARC
  5
208
330
1F
100
AcDbEntity
  8
0
  6
Continuous
 62
     7
370
    25
100
AcDbCircle
 10
301.6433857147
 20
230.1352932839
 30
0.0
 40
9.999999999999988
100
AcDbArc
 50
275.7391704773
 51
304.7452492342
  0
LINE
  5
209
330
1F
100
AcDbEntity
  8
0
  6
Continuous
 62
     7
370
    25
100
AcDbLine
 10
302.6433857147
 20
220.1854189128
 30
0.0
 11
302.6433857147
 21
214.6314855363
 31
0.0
  0
ARC
  5
20A
330
1F
100
AcDbEntity
  8
0
  6
Continuous
 62
     7
370
    25
100
AcDbCircle
 10
306.9033857147
 20
201.9852932839
 30
0.0
 40
9.999999999999968
100
AcDbArc
 50
316.4656779822
 51
339.1239946505
  0
LINE
  5
20B
330
1F
100
AcDbEntity
  8
0
  6
Continuous
 62
     7
370
    25
100
AcDbLine
 10
302.6433857147
 20
174.7943169622
 30
0.0
 11
302.6433857147
 21
169.085167655
 31
0.0
  0
ARC
  5
20C
330
1F
100
AcDbEntity
  8
0
  6
Continuous
 62
     7
370
    25
100
AcDbCircle
 10
301.6433857147
 20
159.1352932839
 30
0.0
 40
10.00000000000002
100
AcDbArc
 50
56.1093573396
 51
84.2608295227
  0
LINE
  5
20D
330
1F
100
AcDbEntity
  8
0
  6
Continuous
 62
     7
370
    25
100
AcDbLine
 10
329.6433857147
 20
159.1352932839
 30
0.0
 11
320.9831316768
 21
159.1352932839
 31
0.0
  0
LINE
  5
20E
330
1F
100
AcDbEntity
  8
0
  6
Continuous
 62
     7
370
    25
100
AcDbLine
 10
343.3036397525
 20
159.1352932839
 30
0.0
 11
334.6433857147
 21
159.1352932839
 31
0.0
  0
ARC
  5
20F
330
1F
100
AcDbEntity
  8
0
  6
Continuous
 62
     7
370
    25
100
AcDbCircle
 10
362.6433857147
 20
159.1352932839
 30
0.0
 40
10.00000000000004
100
AcDbArc
 50
95.7391704773
 51
123.8906426604
  0
LINE
  5
210
330
1F
100
AcDbEntity
  8
0
  6
Continuous
 62
     7
370
    25
100
AcDbLine
 10
361.6433857147
 20
169.085167655
 30
0.0
 11
361.6433857147
 21
174.7943169622
 31
0.0
  0
ARC
  5
211
330
1F
100
AcDbEntity
  8
0
  6
Continuous
 62
     7
370
    25
100
AcDbCircle
 10
357.3833857147
 20
201.9852932839
 30
0.0
 40
10.0
100
AcDbArc
 50
200.8760053495
 51
223.5343220178
  0
LINE
  5
212
330
1F
100
AcDbEntity
  8
0
  6
Continuous
 62
     7
370
    25
100
AcDbLine
 10
361.6433857147
 20
214.6314855363
 30
0.0
 11
361.6433857147
 21
220.1854189128
 31
0.0
  0
ARC
  5
213
330
1F
100
AcDbEntity
  8
0
  6
Continuous
 62
     7
370
    25
100
AcDbCircle
 10
362.6433857147
 20
230.1352932839
 30
0.0
 40
10.00000000000002
100
AcDbArc
 50
235.2547507658
 51
264.2608295227
  0
ARC
  5
214
330
1F
100
AcDbEntity
  8
0
  6
Continuous
 62
     7
370
    25
100
AcDbCircle
 10
362.6433857147
 20
230.1352932839
 30
0.0
 40
10.00000000000004
100
AcDbArc
 50
162.385118838
 51
205.7932168314
  0
LINE
  5
215
330
1F
100
AcDbEntity
  8
0
  6
Continuous
 62
     7
370
    25
100
AcDbLine
 10
353.1122646893
 20
233.1614677665
 30
0.0
 11
350.6496863934
 21
234.0577729657
 31
0.0
  0
ARC
  5
216
330
1F
100
AcDbEntity
  8
0
  6
Continuous
 62
     7
370
    25
100
AcDbCircle
 10
332.1433857147
 20
240.4352932839
 30
0.0
 40
10.24999999999999
100
AcDbArc
 50
284.1169805713
 51
323.7494070667
  0
ARC
  5
217
330
1F
100
AcDbEntity
  8
0
  6
Continuous
 62
     7
370
    25
100
AcDbCircle
 10
332.1433857147
 20
240.4352932839
 30
0.0
 40
10.24999999999997
100
AcDbArc
 50
216.2505929333
 51
255.8830194287
  0
LINE
  5
218
330
1F
100
AcDbEntity
  8
0
  6
Continuous
 62
     7
370
    25
100
AcDbLine
 10
247.9179689872
 20
212.2551038189
 30
0.0
 11
252.2480960061
 21
209.7551038189
 31
0.0
  0
LINE
  5
219
330
1F
100
AcDbEntity
  8
0
  6
Continuous
 62
     7
370
    25
100
AcDbLine
 10
243.5878419683
 20
209.7551038189
 30
0.0
 11
247.9179689872
 21
212.2551038189
 31
0.0
  0
LINE
  5
21A
330
1F
100
AcDbEntity
  8
0
  6
Continuous
 62
     7
370
    25
100
AcDbLine
 10
243.5878419683
 20
204.7551038189
 30
0.0
 11
243.5878419683
 21
209.7551038189
 31
0.0
  0
LINE
  5
21B
330
1F
100
AcDbEntity
  8
0
  6
Continuous
 62
     7
370
    25
100
AcDbLine
 10
247.9179689872
 20
202.2551038189
 30
0.0
 11
243.5878419683
 21
204.7551038189
 31
0.0
  0
LINE
  5
21C
330
1F
100
AcDbEntity
  8
0
  6
Continuous
 62
     7
370
    25
100
AcDbLine
 10
252.2480960061
 20
204.7551038189
 30
0.0
 11
247.9179689872
 21
202.2551038189
 31
0.0
  0
LINE
  5
21D
330
1F
100
AcDbEntity
  8
0
  6
Continuous
 62
     7
370
    25
100
AcDbLine
 10
252.2480960061
 20
209.7551038189
 30
0.0
 11
252.2480960061
 21
204.7551038189
 31
0.0
  0
LINE
  5
21E
330
1F
100
AcDbEntity
  8
0
  6
Continuous
 62
     7
370
    25
100
AcDbLine
 10
227.4275879304
 20
200.4249768
 30
0.0
 11
231.7577149494
 21
197.9249768
 31
0.0
  0
LINE
  5
21F
330
1F
100
AcDbEntity
  8
0
  6
Continuous
 62
     7
370
    25
100
AcDbLine
 10
223.0974609115
 20
197.9249768
 30
0.0
 11
227.4275879304
 21
200.4249768
 31
0.0
  0
LINE
  5
220
330
1F
100
AcDbEntity
  8
0
  6
Continuous
 62
     7
370
    25
100
AcDbLine
 10
223.0974609115
 20
192.9249768
 30
0.0
 11
223.0974609115
 21
197.9249768
 31
0.0
  0
LINE
  5
221
330
1F
100
AcDbEntity
  8
0
  6
Continuous
 62
     7
370
    25
100
AcDbLine
 10
227.4275879304
 20
190.4249768
 30
0.0
 11
223.0974609115
 21
192.9249768
 31
0.0
  0
LINE
  5
222
330
1F
100
AcDbEntity
  8
0
  6
Continuous
 62
     7
370
    25
100
AcDbLine
 10
231.7577149494
 20
192.9249768
 30
0.0
 11
227.4275879304
 21
190.4249768
 31
0.0
  0
LINE
  5
223
330
1F
100
AcDbEntity
  8
0
  6
Continuous
 62
     7
370
    25
100
AcDbLine
 10
231.7577149494
 20
197.9249768
 30
0.0
 11
231.7577149494
 21
192.9249768
 31
0.0
  0
LINE
  5
224
330
1F
100
AcDbEntity
  8
0
  6
Continuous
 62
     7
370
    25
100
AcDbLine
 10
241.0878419683
 20
200.4249768
 30
0.0
 11
245.4179689872
 21
197.9249768
 31
0.0
  0
LINE
  5
225
330
1F
100
AcDbEntity
  8
0
  6
Continuous
 62
     7
370
    25
100
AcDbLine
 10
236.7577149494
 20
197.9249768
 30
0.0
 11
241.0878419683
 21
200.4249768
 31
0.0
  0
LINE
  5
226
330
1F
100
AcDbEntity
  8
0
  6
Continuous
 62
     7
370
    25
100
AcDbLine
 10
236.7577149494
 20
192.9249768
 30
0.0
 11
236.7577149494
 21
197.9249768
 31
0.0
  0
LINE
  5
227
330
1F
100
AcDbEntity
  8
0
  6
Continuous
 62
     7
370
    25
100
AcDbLine
 10
241.0878419683
 20
190.4249768
 30
0.0
 11
236.7577149494
 21
192.9249768
 31
0.0
  0
LINE
  5
228
330
1F
100
AcDbEntity
  8
0
  6
Continuous
 62
     7
370
    25
100
AcDbLine
 10
245.4179689872
 20
192.9249768
 30
0.0
 11
241.0878419683
 21
190.4249768
 31
0.0
  0
LINE
  5
229
330
1F
100
AcDbEntity
  8
0
  6
Continuous
 62
     7
370
    25
100
AcDbLine
 10
245.4179689872
 20
197.9249768
 30
0.0
 11
245.4179689872
 21
192.9249768
 31
0.0
  0
LINE
  5
22A
330
1F
100
AcDbEntity
  8
0
  6
Continuous
 62
     7
370
    25
100
AcDbLine
 10
243.5878419683
 20
181.0948497811
 30
0.0
 11
243.5878419683
 21
186.0948497811
 31
0.0
  0
LINE
  5
22B
330
1F
100
AcDbEntity
  8
0
  6
Continuous
 62
     7
370
    25
100
AcDbLine
 10
247.9179689872
 20
178.5948497811
 30
0.0
 11
243.5878419683
 21
181.0948497811
 31
0.0
  0
LINE
  5
22C
330
1F
100
AcDbEntity
  8
0
  6
Continuous
 62
     7
370
    25
100
AcDbLine
 10
252.2480960061
 20
181.0948497811
 30
0.0
 11
247.9179689872
 21
178.5948497811
 31
0.0
  0
LINE
  5
22D
330
1F
100
AcDbEntity
  8
0
  6
Continuous
 62
     7
370
    25
100
AcDbLine
 10
252.2480960061
 20
186.0948497811
 30
0.0
 11
252.2480960061
 21
181.0948497811
 31
0.0
  0
LINE
  5
22E
330
1F
100
AcDbEntity
  8
0
  6
Continuous
 62
     7
370
    25
100
AcDbLine
 10
247.9179689872
 20
188.5948497811
 30
0.0
 11
252.2480960061
 21
186.0948497811
 31
0.0
  0
LINE
  5
22F
330
1F
100
AcDbEntity
  8
0
  6
Continuous
 62
     7
370
    25
100
AcDbLine
 10
243.5878419683
 20
186.0948497811
 30
0.0
 11
247.9179689872
 21
188.5948497811
 31
0.0
  0
LINE
  5
230
330
1F
100
AcDbEntity
  8
0
  6
Continuous
 62
     7
370
    25
100
AcDbLine
 10
211.2673338926
 20
186.0948497811
 30
0.0
 11
211.2673338926
 21
181.0948497811
 31
0.0
  0
LINE
  5
231
330
1F
100
AcDbEntity
  8
0
  6
Continuous
 62
     7
370
    25
100
AcDbLine
 10
206.9372068737
 20
188.5948497811
 30
0.0
 11
211.2673338926
 21
186.0948497811
 31
0.0
  0
LINE
  5
232
330
1F
100
AcDbEntity
  8
0
  6
Continuous
 62
     7
370
    25
100
AcDbLine
 10
202.6070798547
 20
186.0948497811
 30
0.0
 11
206.9372068737
 21
188.5948497811
 31
0.0
  0
LINE
  5
233
330
1F
100
AcDbEntity
  8
0
  6
Continuous
 62
     7
370
    25
100
AcDbLine
 10
202.6070798547
 20
181.0948497811
 30
0.0
 11
202.6070798547
 21
186.0948497811
 31
0.0
  0
LINE
  5
234
330
1F
100
AcDbEntity
  8
0
  6
Continuous
 62
     7
370
    25
100
AcDbLine
 10
206.9372068737
 20
178.5948497811
 30
0.0
 11
202.6070798547
 21
181.0948497811
 31
0.0
  0
LINE
  5
235
330
1F
100
AcDbEntity
  8
0
  6
Continuous
 62
     7
370
    25
100
AcDbLine
 10
211.2673338926
 20
181.0948497811
 30
0.0
 11
206.9372068737
 21
178.5948497811
 31
0.0
  0
LINE
  5
236
330
1F
100
AcDbEntity
  8
0
  6
Continuous
 62
     7
370
    25
100
AcDbLine
 10
209.4372068737
 20
197.9249768
 30
0.0
 11
213.7673338926
 21
200.4249768
 31
0.0
  0
LINE
  5
237
330
1F
100
AcDbEntity
  8
0
  6
Continuous
 62
     7
370
    25
100
AcDbLine
 10
209.4372068737
 20
192.9249768
 30
0.0
 11
209.4372068737
 21
197.9249768
 31
0.0
  0
LINE
  5
238
330
1F
100
AcDbEntity
  8
0
  6
Continuous
 62
     7
370
    25
100
AcDbLine
 10
213.7673338926
 20
190.4249768
 30
0.0
 11
209.4372068737
 21
192.9249768
 31
0.0
  0
LINE
  5
239
330
1F
100
AcDbEntity
  8
0
  6
Continuous
 62
     7
370
    25
100
AcDbLine
 10
218.0974609115
 20
192.9249768
 30
0.0
 11
213.7673338926
 21
190.4249768
 31
0.0
  0
LINE
  5
23A
330
1F
100
AcDbEntity
  8
0
  6
Continuous
 62
     7
370
    25
100
AcDbLine
 10
218.0974609115
 20
197.9249768
 30
0.0
 11
218.0974609115
 21
192.9249768
 31
0.0
  0
LINE
  5
23B
330
1F
100
AcDbEntity
  8
0
  6
Continuous
 62
     7
370
    25
100
AcDbLine
 10
213.7673338926
 20
200.4249768
 30
0.0
 11
218.0974609115
 21
197.9249768
 31
0.0
  0
LINE
  5
23C
330
1F
100
AcDbEntity
  8
0
  6
Continuous
 62
     7
370
    25
100
AcDbLine
 10
202.6070798547
 20
209.7551038189
 30
0.0
 11
206.9372068737
 21
212.2551038189
 31
0.0
  0
LINE
  5
23D
330
1F
100
AcDbEntity
  8
0
  6
Continuous
 62
     7
370
    25
100
AcDbLine
 10
202.6070798547
 20
204.7551038189
 30
0.0
 11
202.6070798547
 21
209.7551038189
 31
0.0
  0
LINE
  5
23E
330
1F
100
AcDbEntity
  8
0
  6
Continuous
 62
     7
370
    25
100
AcDbLine
 10
206.9372068737
 20
202.2551038189
 30
0.0
 11
202.6070798547
 21
204.7551038189
 31
0.0
  0
LINE
  5
23F
330
1F
100
AcDbEntity
  8
0
  6
Continuous
 62
     7
370
    25
100
AcDbLine
 10
211.2673338926
 20
204.7551038189
 30
0.0
 11
206.9372068737
 21
202.2551038189
 31
0.0
  0
LINE
  5
240
330
1F
100
AcDbEntity
  8
0
  6
Continuous
 62
     7
370
    25
100
AcDbLine
 10
211.2673338926
 20
209.7551038189
 30
0.0
 11
211.2673338926
 21
204.7551038189
 31
0.0
  0
LINE
  5
241
330
1F
100
AcDbEntity
  8
0
  6
Continuous
 62
     7
370
    25
100
AcDbLine
 10
206.9372068737
 20
212.2551038189
 30
0.0
 11
211.2673338926
 21
209.7551038189
 31
0.0
  0
ARC
  5
242
330
1F
100
AcDbEntity
  8
0
  6
Continuous
 62
     7
370
    25
100
AcDbCircle
 10
227.4275879304
 20
164.5533909562
 30
0.0
 40
9.999999999999993
100
AcDbArc
 50
50.0
 51
130.0
  0
ARC
  5
243
330
1F
100
AcDbEntity
  8
0
  6
Continuous
 62
     7
370
    25
100
AcDbCircle
 10
192.9275879304
 20
155.8473688347
 30
0.0
 40
2.0
100
AcDbArc
 50
180.0
 51
270.0
  0
ARC
  5
244
330
1F
100
AcDbEntity
  8
0
  6
Continuous
 62
     7
370
    25
100
AcDbCircle
 10
212.9275879304
 20
238.3082913651
 30
0.0
 40
10.00000000000003
100
AcDbArc
 50
180.0
 51
230.0
  0
ARC
  5
245
330
1F
100
AcDbEntity
  8
0
  6
Continuous
 62
     7
370
    25
100
AcDbCircle
 10
227.4275879304
 20
226.1413467131
 30
0.0
 40
10.00000000000001
100
AcDbArc
 50
230.0
 51
310.0
  0
ARC
  5
246
330
1F
100
AcDbEntity
  8
0
  6
Continuous
 62
     7
370
    25
100
AcDbCircle
 10
241.9275879304
 20
238.3082913651
 30
0.0
 40
10.0
100
AcDbArc
 50
310.0
 51
0.0
  0
ARC
  5
247
330
1F
100
AcDbEntity
  8
0
  6
Continuous
 62
     7
370
    25
100
AcDbCircle
 10
261.9275879304
 20
155.8473688347
 30
0.0
 40
2.0
100
AcDbArc
 50
270.0
 51
0.0
  0
CIRCLE
  5
248
330
1F
100
AcDbEntity
  8
0
  6
Continuous
 62
     7
370
    25
100
AcDbCircle
 10
257.9275879304
 20
260.8473688347
 30
0.0
 40
2.0
  0
CIRCLE
  5
249
330
1F
100
AcDbEntity
  8
0
  6
Continuous
 62
     7
370
    25
100
AcDbCircle
 10
196.9275879304
 20
260.8473688347
 30
0.0
 40
2.0
  0
LINE
  5
24A
330
1F
100
AcDbEntity
  8
0
  6
Continuous
 62
     7
370
    25
100
AcDbLine
 10
216.2673338926
 20
204.7551038189
 30
0.0
 11
216.2673338926
 21
209.5446985632
 31
0.0
  0
LINE
  5
24B
330
1F
100
AcDbEntity
  8
0
  6
Continuous
 62
     7
370
    25
100
AcDbLine
 10
220.5974609115
 20
202.2551038189
 30
0.0
 11
216.2673338926
 21
204.7551038189
 31
0.0
  0
LINE
  5
24C
330
1F
100
AcDbEntity
  8
0
  6
Continuous
 62
     7
370
    25
100
AcDbLine
 10
224.9275879304
 20
204.7551038189
 30
0.0
 11
220.5974609115
 21
202.2551038189
 31
0.0
  0
LINE
  5
24D
330
1F
100
AcDbEntity
  8
0
  6
Continuous
 62
     7
370
    25
100
AcDbLine
 10
224.9275879304
 20
206.2982118801
 30
0.0
 11
224.9275879304
 21
204.7551038189
 31
0.0
  0
LINE
  5
24E
330
1F
100
AcDbEntity
  8
0
  6
Continuous
 62
     7
370
    25
100
AcDbLine
 10
229.9275879304
 20
204.7551038189
 30
0.0
 11
229.9275879304
 21
206.2982118801
 31
0.0
  0
LINE
  5
24F
330
1F
100
AcDbEntity
  8
0
  6
Continuous
 62
     7
370
    25
100
AcDbLine
 10
234.2577149494
 20
202.2551038189
 30
0.0
 11
229.9275879304
 21
204.7551038189
 31
0.0
  0
LINE
  5
250
330
1F
100
AcDbEntity
  8
0
  6
Continuous
 62
     7
370
    25
100
AcDbLine
 10
238.5878419683
 20
204.7551038189
 30
0.0
 11
234.2577149494
 21
202.2551038189
 31
0.0
  0
LINE
  5
251
330
1F
100
AcDbEntity
  8
0
  6
Continuous
 62
     7
370
    25
100
AcDbLine
 10
238.5878419683
 20
209.5446985632
 30
0.0
 11
238.5878419683
 21
204.7551038189
 31
0.0
  0
LINE
  5
252
330
1F
100
AcDbEntity
  8
0
  6
Continuous
 62
     7
370
    25
100
AcDbLine
 10
238.5878419683
 20
186.0948497811
 30
0.0
 11
238.5878419683
 21
181.1500391061
 31
0.0
  0
LINE
  5
253
330
1F
100
AcDbEntity
  8
0
  6
Continuous
 62
     7
370
    25
100
AcDbLine
 10
234.2577149494
 20
188.5948497811
 30
0.0
 11
238.5878419683
 21
186.0948497811
 31
0.0
  0
LINE
  5
254
330
1F
100
AcDbEntity
  8
0
  6
Continuous
 62
     7
370
    25
100
AcDbLine
 10
229.9275879304
 20
186.0948497811
 30
0.0
 11
234.2577149494
 21
188.5948497811
 31
0.0
  0
LINE
  5
255
330
1F
100
AcDbEntity
  8
0
  6
Continuous
 62
     7
370
    25
100
AcDbLine
 10
224.9275879304
 20
186.0948497811
 30
0.0
 11
224.9275879304
 21
184.3965257892
 31
0.0
  0
LINE
  5
256
330
1F
100
AcDbEntity
  8
0
  6
Continuous
 62
     7
370
    25
100
AcDbLine
 10
220.5974609115
 20
188.5948497811
 30
0.0
 11
224.9275879304
 21
186.0948497811
 31
0.0
  0
LINE
  5
257
330
1F
100
AcDbEntity
  8
0
  6
Continuous
 62
     7
370
    25
100
AcDbLine
 10
216.2673338926
 20
186.0948497811
 30
0.0
 11
220.5974609115
 21
188.5948497811
 31
0.0
  0
LINE
  5
258
330
1F
100
AcDbEntity
  8
0
  6
Continuous
 62
     7
370
    25
100
AcDbLine
 10
216.2673338926
 20
181.1500391061
 30
0.0
 11
216.2673338926
 21
186.0948497811
 31
0.0
  0
LINE
  5
259
330
1F
100
AcDbEntity
  8
0
  6
Continuous
 62
     7
370
    25
100
AcDbLine
 10
229.9275879304
 20
184.3965257892
 30
0.0
 11
229.9275879304
 21
186.0948497811
 31
0.0
  0
CIRCLE
  5
25A
330
1F
100
AcDbEntity
  8
0
  6
Continuous
 62
     7
370
    25
100
AcDbCircle
 10
257.9275879304
 20
159.8473688347
 30
0.0
 40
2.0
  0
LINE
  5
25B
330
1F
100
AcDbEntity
  8
0
  6
Continuous
 62
     7
370
    25
100
AcDbLine
 10
257.9275879304
 20
266.8473688347
 30
0.0
 11
251.9275879304
 21
263.3832672195
 31
0.0
  0
CIRCLE
  5
25C
330
1F
100
AcDbEntity
  8
0
  6
Continuous
 62
     7
370
    25
100
AcDbCircle
 10
257.9275879304
 20
230.8473688347
 30
0.0
 40
2.0
  0
CIRCLE
  5
25D
330
1F
100
AcDbEntity
  8
0
  6
Continuous
 62
     7
370
    25
100
AcDbCircle
 10
196.9275879304
 20
230.8473688347
 30
0.0
 40
2.0
  0
CIRCLE
  5
25E
330
1F
100
AcDbEntity
  8
0
  6
Continuous
 62
     7
370
    25
100
AcDbCircle
 10
196.9275879304
 20
159.8473688347
 30
0.0
 40
2.0
  0
LINE
  5
25F
330
1F
100
AcDbEntity
  8
0
  6
Continuous
 62
     7
370
    25
100
AcDbLine
 10
251.9275879304
 20
238.3082913651
 30
0.0
 11
251.9275879304
 21
263.3832672195
 31
0.0
  0
LINE
  5
260
330
1F
100
AcDbEntity
  8
0
  6
Continuous
 62
     7
370
    25
100
AcDbLine
 10
248.3554640273
 20
230.6478469339
 30
0.0
 11
233.8554640273
 21
218.4809022819
 31
0.0
  0
LINE
  5
261
330
1F
100
AcDbEntity
  8
0
  6
Continuous
 62
     7
370
    25
100
AcDbLine
 10
206.4997118336
 20
230.6478469339
 30
0.0
 11
220.9997118336
 21
218.4809022819
 31
0.0
  0
LINE
  5
262
330
1F
100
AcDbEntity
  8
0
  6
Continuous
 62
     7
370
    25
100
AcDbLine
 10
202.9275879304
 20
238.3082913651
 30
0.0
 11
202.9275879304
 21
263.3832672195
 31
0.0
  0
LINE
  5
263
330
1F
100
AcDbEntity
  8
0
  6
Continuous
 62
     7
370
    25
100
AcDbLine
 10
202.9275879304
 20
263.3832672195
 30
0.0
 11
196.9275879304
 21
266.8473688347
 31
0.0
  0
LINE
  5
264
330
1F
100
AcDbEntity
  8
0
  6
Continuous
 62
     7
370
    25
100
AcDbLine
 10
196.9275879304
 20
266.8473688347
 30
0.0
 11
190.9275879304
 21
263.3832672195
 31
0.0
  0
LINE
  5
265
330
1F
100
AcDbEntity
  8
0
  6
Continuous
 62
     7
370
    25
100
AcDbLine
 10
190.9275879304
 20
155.8473688347
 30
0.0
 11
190.9275879304
 21
263.3832672195
 31
0.0
  0
LINE
  5
266
330
1F
100
AcDbEntity
  8
0
  6
Continuous
 62
     7
370
    25
100
AcDbLine
 10
196.9275879304
 20
153.8473688347
 30
0.0
 11
192.9275879304
 21
153.8473688347
 31
0.0
  0
ARC
  5
267
330
1F
100
AcDbEntity
  8
0
  6
Continuous
 62
     7
370
    25
100
AcDbCircle
 10
196.9275879304
 20
159.8473688347
 30
0.0
 40
6.0
100
AcDbArc
 50
270.0
 51
310.0
  0
LINE
  5
268
330
1F
100
AcDbEntity
  8
0
  6
Continuous
 62
     7
370
    25
100
AcDbLine
 10
200.7843135886
 20
155.2511021759
 30
0.0
 11
220.9997118336
 21
172.2138353874
 31
0.0
  0
LINE
  5
269
330
1F
100
AcDbEntity
  8
0
  6
Continuous
 62
     7
370
    25
100
AcDbLine
 10
254.0708622723
 20
155.2511021759
 30
0.0
 11
233.8554640273
 21
172.2138353874
 31
0.0
  0
ARC
  5
26A
330
1F
100
AcDbEntity
  8
0
  6
Continuous
 62
     7
370
    25
100
AcDbCircle
 10
257.9275879304
 20
159.8473688347
 30
0.0
 40
5.999999999999999
100
AcDbArc
 50
230.0
 51
270.0
  0
LINE
  5
26B
330
1F
100
AcDbEntity
  8
0
  6
Continuous
 62
     7
370
    25
100
AcDbLine
 10
261.9275879304
 20
153.8473688347
 30
0.0
 11
257.9275879304
 21
153.8473688347
 31
0.0
  0
LINE
  5
26C
330
1F
100
AcDbEntity
  8
0
  6
Continuous
 62
     7
370
    25
100
AcDbLine
 10
263.9275879304
 20
263.3832672195
 30
0.0
 11
263.9275879304
 21
155.8473688347
 31
0.0
  0
LINE
  5
26D
330
1F
100
AcDbEntity
  8
0
  6
Continuous
 62
     7
370
    25
100
AcDbLine
 10
263.9275879304
 20
263.3832672195
 30
0.0
 11
257.9275879304
 21
266.8473688347
 31
0.0
  0
ARC
  5
26E
330
1F
100
AcDbEntity
  8
0
  6
Continuous
 62
     7
370
    25
100
AcDbCircle
 10
227.4275879304
 20
226.1413467131
 30
0.0
 40
20.0
100
AcDbArc
 50
236.0815260495
 51
262.8192442185
  0
ARC
  5
26F
330
1F
100
AcDbEntity
  8
0
  6
Continuous
 62
     7
370
    25
100
AcDbCircle
 10
227.4275879304
 20
226.1413467131
 30
0.0
 40
20.0
100
AcDbArc
 50
277.1807557815
 51
303.9184739505
  0
ARC
  5
270
330
1F
100
AcDbEntity
  8
0
  6
Continuous
 62
     7
370
    25
100
AcDbCircle
 10
227.4275879304
 20
164.5533909562
 30
0.0
 40
19.99999999999999
100
AcDbArc
 50
56.0815260495
 51
82.8192442185
  0
ARC
  5
271
330
1F
100
AcDbEntity
  8
0
  6
Continuous
 62
     7
370
    25
100
AcDbCircle
 10
227.4275879304
 20
164.5533909562
 30
0.0
 40
20.0
100
AcDbArc
 50
97.1807557815
 51
123.9184739505
  0
ENDSEC
  0
SECTION
  2
OBJECTS
  0
DICTIONARY
  5
C
330
0
100
AcDbDictionary
281
     1
  3
ACAD_GROUP
350
D
  3
ACAD_LAYOUT
350
1A
  3
ACAD_MLINESTYLE
350
17
  3
ACAD_PLOTSETTINGS
350
19
  3
ACAD_PLOTSTYLENAME
350
E
  3
ACAD_SCALELIST
350
47
  3
DWGPROPS
350
272
  0
DICTIONARY
  5
D
102
{ACAD_REACTORS
330
C
102
}
330
C
100
AcDbDictionary
281
     1
  0
DICTIONARY
  5
1A
102
{ACAD_REACTORS
330
C
102
}
330
C
100
AcDbDictionary
281
     1
  3
Layout1
350
1E
  3
Layout2
350
26
  3
Model
350
22
  0
DICTIONARY
  5
17
102
{ACAD_REACTORS
330
C
102
}
330
C
100
AcDbDictionary
281
     1
  3
Standard
350
18
  0
DICTIONARY
  5
19
102
{ACAD_REACTORS
330
C
102
}
330
C
100
AcDbDictionary
281
     1
  0
ACDBDICTIONARYWDFLT
  5
E
102
{ACAD_REACTORS
330
C
102
}
330
C
100
AcDbDictionary
281
     1
  3
Normal
350
F
100
AcDbDictionaryWithDefault
340
F
  0
DICTIONARY
  5
47
102
{ACAD_REACTORS
330
C
102
}
330
C
100
AcDbDictionary
281
     1
  3
A0
350
48
  3
A1
350
49
  3
A2
350
4A
  3
A3
350
4B
  3
A4
350
4C
  3
A5
350
4D
  3
A6
350
4E
  3
A7
350
4F
  3
A8
350
50
  3
A9
350
51
  3
B0
350
52
  3
B1
350
53
  3
B2
350
54
  3
B3
350
55
  3
B4
350
56
  3
B5
350
57
  3
B6
350
58
  0
XRECORD
  5
272
102
{ACAD_REACTORS
330
C
102
}
330
C
100
AcDbXrecord
280
     1
  1
DWGPROPS COOKIE
  2

  3

  4

  6

  7

  8
LenovoPro5
  9

300
=
301
=
302
=
303
=
304
=
305
=
306
=
307
=
308
=
309
=
 40
0.0
 41
2460328.607175312
 42
2460328.607175937
  1

 90
        0
  0
LAYOUT
  5
1E
102
{ACAD_REACTORS
330
1A
102
}
330
1A
100
AcDbPlotSettings
  1

  2
none_device
  4

  6

 40
0.0
 41
0.0
 42
0.0
 43
0.0
 44
0.0
 45
0.0
 46
0.0
 47
0.0
 48
0.0
 49
0.0
140
0.0
141
0.0
142
1.0
143
1.0
 70
   688
 72
     1
 73
     0
 74
     5
  7

 75
    16
147
1.0
148
0.0
149
0.0
100
AcDbLayout
  1
Layout1
 70
     1
 71
     1
 10
0.0
 20
0.0
 11
420.0
 21
297.0
 12
0.0
 22
0.0
 32
0.0
 14
1.0000000000E+20
 24
1.0000000000E+20
 34
1.0000000000E+20
 15
-1.0000000000E+20
 25
-1.0000000000E+20
 35
-1.0000000000E+20
146
0.0
 13
0.0
 23
0.0
 33
0.0
 16
1.0
 26
0.0
 36
0.0
 17
0.0
 27
1.0
 37
0.0
 76
     0
330
1B
  0
LAYOUT
  5
26
102
{ACAD_REACTORS
330
1A
102
}
330
1A
100
AcDbPlotSettings
  1

  2
none_device
  4

  6

 40
0.0
 41
0.0
 42
0.0
 43
0.0
 44
0.0
 45
0.0
 46
0.0
 47
0.0
 48
0.0
 49
0.0
140
0.0
141
0.0
142
1.0
143
1.0
 70
   688
 72
     1
 73
     0
 74
     5
  7

 75
    16
147
1.0
148
0.0
149
0.0
100
AcDbLayout
  1
Layout2
 70
     1
 71
     2
 10
0.0
 20
0.0
 11
0.0
 21
0.0
 12
0.0
 22
0.0
 32
0.0
 14
0.0
 24
0.0
 34
0.0
 15
0.0
 25
0.0
 35
0.0
146
0.0
 13
0.0
 23
0.0
 33
0.0
 16
1.0
 26
0.0
 36
0.0
 17
0.0
 27
1.0
 37
0.0
 76
     0
330
23
  0
LAYOUT
  5
22
102
{ACAD_REACTORS
330
1A
102
}
330
1A
100
AcDbPlotSettings
  1

  2
none_device
  4
Letter_(8.50_x_11.00_Inches)
  6

 40
6.35
 41
6.35
 42
6.35000508
 43
6.35000508
 44
215.9
 45
279.4
 46
0.0
 47
0.0
 48
0.0
 49
0.0
140
0.0
141
0.0
142
1.0
143
1.0
 70
  1712
 72
     1
 73
     0
 74
     0
  7

 75
     0
147
1.0
148
0.0
149
0.0
100
AcDbLayout
  1
Model
 70
     1
 71
     0
 10
0.0
 20
0.0
 11
420.0
 21
297.0
 12
0.0
 22
0.0
 32
0.0
 14
0.0
 24
0.0
 34
0.0
 15
420.0
 25
297.0
 35
0.0
146
0.0
 13
0.0
 23
0.0
 33
0.0
 16
1.0
 26
0.0
 36
0.0
 17
0.0
 27
1.0
 37
0.0
 76
     0
330
1F
331
29
  0
MLINESTYLE
  5
18
102
{ACAD_REACTORS
330
17
102
}
330
17
100
AcDbMlineStyle
  2
Standard
 70
     0
  3

 62
   256
 51
90.0
 52
90.0
 71
     2
 49
0.5
 62
   256
  6
BYLAYER
 49
-0.5
 62
   256
  6
BYLAYER
  0
ACDBPLACEHOLDER
  5
F
102
{ACAD_REACTORS
330
E
102
}
330
E
  0
SCALE
  5
48
102
{ACAD_REACTORS
330
47
102
}
330
47
100
AcDbScale
 70
     0
300
1:1
140
1.0
141
1.0
290
     1
  0
SCALE
  5
49
102
{ACAD_REACTORS
330
47
102
}
330
47
100
AcDbScale
 70
     0
300
1:2
140
1.0
141
2.0
290
     0
  0
SCALE
  5
4A
102
{ACAD_REACTORS
330
47
102
}
330
47
100
AcDbScale
 70
     0
300
1:4
140
1.0
141
4.0
290
     0
  0
SCALE
  5
4B
102
{ACAD_REACTORS
330
47
102
}
330
47
100
AcDbScale
 70
     0
300
1:5
140
1.0
141
5.0
290
     0
  0
SCALE
  5
4C
102
{ACAD_REACTORS
330
47
102
}
330
47
100
AcDbScale
 70
     0
300
1:8
140
1.0
141
8.0
290
     0
  0
SCALE
  5
4D
102
{ACAD_REACTORS
330
47
102
}
330
47
100
AcDbScale
 70
     0
300
1:10
140
1.0
141
10.0
290
     0
  0
SCALE
  5
4E
102
{ACAD_REACTORS
330
47
102
}
330
47
100
AcDbScale
 70
     0
300
1:16
140
1.0
141
16.0
290
     0
  0
SCALE
  5
4F
102
{ACAD_REACTORS
330
47
102
}
330
47
100
AcDbScale
 70
     0
300
1:20
140
1.0
141
20.0
290
     0
  0
SCALE
  5
50
102
{ACAD_REACTORS
330
47
102
}
330
47
100
AcDbScale
 70
     0
300
1:30
140
1.0
141
30.0
290
     0
  0
SCALE
  5
51
102
{ACAD_REACTORS
330
47
102
}
330
47
100
AcDbScale
 70
     0
300
1:40
140
1.0
141
40.0
290
     0
  0
SCALE
  5
52
102
{ACAD_REACTORS
330
47
102
}
330
47
100
AcDbScale
 70
     0
300
1:50
140
1.0
141
50.0
290
     0
  0
SCALE
  5
53
102
{ACAD_REACTORS
330
47
102
}
330
47
100
AcDbScale
 70
     0
300
1:100
140
1.0
141
100.0
290
     0
  0
SCALE
  5
54
102
{ACAD_REACTORS
330
47
102
}
330
47
100
AcDbScale
 70
     0
300
2:1
140
2.0
141
1.0
290
     0
  0
SCALE
  5
55
102
{ACAD_REACTORS
330
47
102
}
330
47
100
AcDbScale
 70
     0
300
4:1
140
4.0
141
1.0
290
     0
  0
SCALE
  5
56
102
{ACAD_REACTORS
330
47
102
}
330
47
100
AcDbScale
 70
     0
300
8:1
140
8.0
141
1.0
290
     0
  0
SCALE
  5
57
102
{ACAD_REACTORS
330
47
102
}
330
47
100
AcDbScale
 70
     0
300
10:1
140
10.0
141
1.0
290
     0
  0
SCALE
  5
58
102
{ACAD_REACTORS
330
47
102
}
330
47
100
AcDbScale
 70
     0
300
100:1
140
100.0
141
1.0
290
     0
  0
ENDSEC
  0
EOF
